<svg width="460" height="256" viewBox="0 0 460 256" fill="none" xmlns="http://www.w3.org/2000/svg">
<g clip-path="url(#clip0_328_5220)">
<g clip-path="url(#clip1_328_5220)">
<path d="M145.454 202.774C145.01 204.939 144.378 206.994 143.536 208.908C166.575 215.814 225.88 229.094 248.904 236C272.544 225.757 297.449 215.463 321.09 205.22C323.844 198.945 324.965 191.418 324.205 184.222C323.438 177.035 320.751 170.15 316.794 165.148C292.641 159.896 237.565 148.661 213.405 143.409C189.275 152.279 165.137 161.149 141 170.019C141.542 171.202 142.053 172.445 142.52 173.738C145.763 182.528 147.328 193.563 145.447 202.774H145.454Z" fill="#2D7A85"/>
<path d="M319.743 194.585C319.615 195.217 319.472 195.838 319.306 196.45C318.795 198.314 318.133 200.008 317.298 201.421C296.192 210.321 270.347 219.913 249.227 228.814C249.204 228.824 249.174 228.834 249.151 228.844L145.454 202.774C145.928 200.439 146.176 197.993 146.244 195.498C146.259 194.886 146.267 194.285 146.251 193.663C146.244 192.03 146.139 190.396 145.973 188.752C145.913 188.091 145.838 187.449 145.732 186.808C145.522 185.054 145.198 183.31 144.814 181.596C144.664 180.884 144.491 180.183 144.303 179.481C143.784 177.486 143.197 175.582 142.52 173.748C148.14 174.8 153.648 175.903 159.095 177.045C189.478 183.4 217.678 190.817 249.009 196.7C269.105 188.421 295.485 180.132 315.559 171.844C316.628 173.006 317.516 174.439 318.208 176.043C318.419 176.514 318.614 177.005 318.802 177.516C319.517 179.551 319.991 181.826 320.224 184.162C320.277 184.743 320.33 185.324 320.352 185.896C320.51 188.852 320.3 191.859 319.743 194.595V194.585Z" fill="#FDF9F7"/>
<path d="M319.743 194.585C319.615 195.217 319.472 195.838 319.307 196.45C318.795 198.314 318.133 200.008 317.298 201.421C296.193 210.321 270.347 219.913 249.227 228.814C249.212 226.599 248.527 224.353 247.511 222.559C246.044 219.963 243.945 218.139 241.853 216.445C216.738 195.949 188.003 185.505 159.088 177.035C189.47 183.39 217.671 190.807 249.001 196.69C269.098 188.411 295.478 180.122 315.552 171.833C316.621 172.996 317.508 174.429 318.201 176.033C318.411 176.504 318.607 176.995 318.795 177.506C319.51 179.541 319.984 181.816 320.217 184.152C320.27 184.733 320.322 185.314 320.345 185.886C320.503 188.842 320.292 191.849 319.736 194.585H319.743Z" fill="#C5CDEA"/>
<path d="M249.175 204.388H249.197C249.265 204.388 249.348 204.388 249.438 204.358C255.157 202.283 260.882 200.198 266.578 198.013C276.645 194.185 286.69 190.286 296.742 186.367C304.109 183.48 311.475 180.523 318.811 177.507C318.63 177.005 318.434 176.514 318.216 176.043C315.282 177.256 312.332 178.459 309.39 179.651C299.376 183.721 289.331 187.68 279.264 191.499C269.182 195.297 259.054 198.895 248.942 202.484C248.829 202.524 248.738 202.584 248.663 202.684C248.197 203.175 248.528 204.328 249.167 204.398L249.175 204.388Z" fill="#503357"/>
<path d="M250.115 220.645C250.176 220.645 250.243 220.645 250.303 220.625C256.059 218.761 261.815 216.856 267.556 214.872C277.691 211.374 287.811 207.826 297.924 204.237C305.072 201.702 312.197 199.116 319.315 196.44C319.473 195.828 319.616 195.207 319.751 194.575C316.742 195.698 313.717 196.821 310.707 197.953C300.61 201.692 290.497 205.3 280.362 208.768C270.22 212.256 260.017 215.493 249.837 218.741C249.724 218.771 249.634 218.841 249.559 218.931C249.069 219.422 249.416 220.685 250.123 220.645H250.115Z" fill="#503357"/>
<path d="M248.964 211.935C249.024 211.935 249.069 211.925 249.122 211.905C255.096 210.111 261.048 208.247 266.999 206.282C277.548 202.784 288.044 198.935 298.48 194.836C303.679 192.811 308.863 190.707 314.017 188.522C316.124 187.63 318.246 186.758 320.353 185.886C320.33 185.314 320.278 184.733 320.225 184.152C317.418 185.404 314.612 186.647 311.775 187.81C301.392 192.11 290.926 196.099 280.4 199.767C269.866 203.416 259.287 206.843 248.648 209.89C248.58 209.91 248.52 209.94 248.467 209.991C247.76 210.412 248.144 211.985 248.956 211.935H248.964Z" fill="#503357"/>
<path d="M144.303 179.471C144.491 180.163 144.664 180.874 144.814 181.586C163.151 186.086 183.624 191.118 186.919 191.819C197.25 194.054 207.596 196.239 217.934 198.374C228.287 200.509 238.648 202.524 249.024 204.388C249.069 204.388 249.129 204.388 249.174 204.388H249.197C249.821 204.278 249.866 202.894 249.136 202.764C248.986 202.734 248.82 202.704 248.662 202.684C242.944 201.642 237.241 200.559 231.522 199.467C221.162 197.472 210.809 195.367 200.478 193.102C194.052 191.689 166.627 184.963 144.303 179.471Z" fill="#503357"/>
<path d="M146.244 195.488C164.497 200.088 184.767 205.17 188.025 205.991C198.318 208.567 208.619 211.103 218.919 213.589C229.22 216.075 239.543 218.45 249.874 220.665C249.971 220.685 250.047 220.675 250.114 220.655H250.16C250.679 220.414 250.701 219.192 250.017 219.041C249.866 219.011 249.701 218.971 249.543 218.941C243.854 217.708 238.166 216.445 232.47 215.142C222.155 212.817 211.839 210.351 201.554 207.735C195.233 206.142 168.395 199.316 146.244 193.663C146.259 194.285 146.251 194.886 146.236 195.498L146.244 195.488Z" fill="#503357"/>
<path d="M145.74 186.798C145.838 187.439 145.913 188.081 145.973 188.742C163.249 193.132 181.141 197.673 184.271 198.505C194.948 201.331 205.662 203.787 216.414 206.002C221.772 207.114 227.129 208.147 232.493 209.109C237.911 210.061 243.313 211.133 248.746 211.955C248.813 211.955 248.889 211.965 248.941 211.955C248.979 211.955 249.009 211.935 249.054 211.925C249.679 211.655 249.731 210.201 248.949 210.081C248.798 210.051 248.633 210.041 248.482 210.011C242.546 209.119 236.624 208.297 230.71 207.194C219.928 205.19 209.191 202.875 198.492 200.218C192.247 198.665 167.425 192.401 145.74 186.808V186.798Z" fill="#503357"/>
<path d="M150.112 169.779C156.312 170.791 162.482 172.204 168.659 173.397C174.844 174.59 181.036 175.743 187.213 176.985C199.53 179.461 211.825 182.127 224.097 184.954C227.535 185.745 230.966 186.547 234.397 187.369C237.866 188.201 241.335 189.193 244.826 189.855C245.811 190.045 245.525 192.16 244.585 191.849C241.553 190.857 238.453 190.176 235.39 189.384C232.321 188.592 229.251 187.82 226.181 187.058C220.034 185.535 213.887 184.032 207.724 182.648C195.437 179.902 183.128 177.366 170.796 175.041C163.836 173.728 156.839 172.896 149.879 171.693C148.946 171.533 149.179 169.629 150.104 169.779H150.112Z" fill="#503357"/>
<path d="M297.435 171.693C299.376 170.932 301.31 170.16 303.251 169.398C305.268 168.596 307.276 167.534 309.331 166.942C310.151 166.712 310.482 168.225 309.692 168.606C307.984 169.448 306.163 169.929 304.41 170.571C302.596 171.232 300.798 171.944 298.992 172.625C295.471 173.969 291.957 175.292 288.444 176.665C281.378 179.421 274.321 182.237 267.256 185.034C263.283 186.607 259.325 188.201 255.33 189.654C254.555 189.935 254.216 188.381 254.984 188.071C262.019 185.174 269.129 182.598 276.209 179.902C283.29 177.216 290.37 174.49 297.427 171.693H297.435Z" fill="#503357"/>
<path d="M214.542 145.674C220.659 147.408 226.836 148.841 232.983 150.395C239.13 151.948 245.293 153.401 251.455 154.855C263.734 157.741 276.021 160.548 288.353 163.033C291.799 163.725 295.253 164.397 298.706 165.028C302.213 165.669 305.734 166.151 309.233 166.802C310.233 166.982 309.963 169.067 308.969 168.857C302.785 167.584 296.637 166.03 290.46 164.727C284.283 163.424 278.098 162.141 271.921 160.808C259.611 158.162 247.302 155.516 235.015 152.68C228.1 151.086 221.193 149.352 214.263 147.849C213.21 147.618 213.503 145.393 214.542 145.684V145.674Z" fill="#503357"/>
<path d="M154.731 165.158C189.169 171.844 223.607 178.519 258.038 185.204C278.902 175.181 300.993 167.454 321.865 157.431C321.361 156.659 320.834 155.647 320.307 154.494C318.532 150.595 316.839 145.113 316.884 141.655C316.914 138.818 317.448 135.992 318.411 133.466C318.968 132.013 319.668 130.66 320.48 129.467C289.812 123.102 259.159 113.761 228.483 107.396C204.03 116.146 178.553 125.287 154.092 134.027C149.299 142.827 150.104 156.218 154.731 165.168V165.158Z" fill="#9680BB"/>
<path d="M320.307 154.494C299.977 163.244 277.735 171.222 257.917 180.173C257.879 180.113 257.857 180.072 257.834 180.012C254.381 173.969 254.418 165.098 255.961 157.772C276.065 149.964 296.132 142.136 316.236 134.308C316.906 134.047 317.576 133.787 318.253 133.526C318.306 133.506 318.343 133.496 318.373 133.476C318.388 133.466 318.396 133.456 318.418 133.456H318.411C317.448 135.992 316.914 138.798 316.891 141.645C316.846 145.103 318.539 150.585 320.314 154.484L320.307 154.494Z" fill="#F8FDF7"/>
<path d="M316.236 134.318C316.906 134.057 317.576 133.797 318.253 133.536C314.98 134.959 262.552 158.042 257.917 180.173C257.879 180.112 257.857 180.072 257.834 180.012C254.381 173.968 254.418 165.098 255.961 157.771C276.065 149.964 296.132 142.136 316.236 134.308V134.318Z" fill="#C5CDEA"/>
<path d="M255.713 161.129C263.621 158.192 271.513 155.226 279.414 152.249C287.269 149.282 295.117 146.255 302.949 143.188C307.389 141.454 311.783 139.53 316.222 137.766C316.922 137.485 317.328 138.928 316.621 139.189C312.67 140.672 308.683 141.995 304.732 143.499C300.79 145.002 296.855 146.526 292.912 148.049C285.072 151.086 277.247 154.183 269.422 157.28C264.983 159.034 260.558 160.828 256.127 162.602C255.389 162.903 254.975 161.38 255.713 161.109V161.129Z" fill="#503357"/>
<path d="M255.788 168.305C263.62 165.319 271.438 162.292 279.255 159.235C287.065 156.178 294.943 153.361 302.693 150.054C307.072 148.19 311.444 146.295 315.823 144.421C316.59 144.09 317.027 145.694 316.259 145.984C312.324 147.428 308.389 148.841 304.461 150.294C300.534 151.738 296.644 153.311 292.746 154.905C284.966 158.092 277.171 161.229 269.384 164.366C264.982 166.141 260.596 167.975 256.201 169.789C255.472 170.09 255.058 168.586 255.788 168.315V168.305Z" fill="#503357"/>
<path d="M257.647 175.151C258.685 174.961 259.701 174.42 260.702 173.989L263.576 172.776C265.525 171.954 267.481 171.132 269.43 170.33C273.342 168.717 277.255 167.123 281.152 165.479C288.992 162.192 296.832 158.934 304.627 155.466C308.999 153.522 313.355 151.507 317.734 149.603C318.351 149.332 318.713 150.635 318.088 150.896C310.248 154.183 302.363 157.28 294.538 160.638C286.72 163.996 278.918 167.424 271.13 170.892C268.925 171.874 266.721 172.846 264.516 173.798C263.425 174.269 262.342 174.74 261.251 175.211C260.137 175.693 258.964 176.073 257.925 176.795C257.173 177.316 256.669 175.322 257.647 175.141V175.151Z" fill="#503357"/>
<path d="M158.321 134.609C159.878 134.719 161.405 135.14 162.948 135.44C164.483 135.741 166.025 136.052 167.56 136.353C170.638 136.964 173.715 137.575 176.785 138.187C182.864 139.389 188.951 140.602 195.031 141.805C207.303 144.231 219.575 146.656 231.846 149.052C238.738 150.395 245.623 151.728 252.508 153.121C253.237 153.271 253.042 154.765 252.312 154.624C240.07 152.239 227.851 149.703 215.617 147.267C203.345 144.822 191.081 142.386 178.809 139.951C175.385 139.269 171.954 138.598 168.531 137.916C166.815 137.575 165.107 137.235 163.392 136.894C161.646 136.543 159.878 136.343 158.163 135.771C157.598 135.581 157.756 134.579 158.313 134.609H158.321Z" fill="#503357"/>
<path d="M191.314 170.711C190.486 168.486 189.711 166.301 189.207 163.895C188.718 161.55 188.44 159.145 188.372 156.719C188.244 151.828 188.967 146.887 190.554 142.456C190.848 141.635 189.93 140.913 189.621 141.745C186.935 148.961 186.469 157.481 188.237 165.178C188.733 167.333 189.38 169.568 190.306 171.463C190.712 172.295 191.645 171.593 191.314 170.701V170.711Z" fill="#503357"/>
<path d="M200.38 172.495C200.215 171.302 199.763 170.11 199.5 168.937C199.252 167.814 199.041 166.682 198.868 165.539C198.514 163.194 198.326 160.798 198.304 158.403C198.259 153.562 198.936 148.801 200.245 144.291C200.523 143.318 199.334 142.898 199.064 143.88C197.785 148.55 197.175 153.562 197.205 158.523C197.22 160.999 197.408 163.485 197.747 165.92C197.92 167.153 198.138 168.366 198.402 169.568C198.65 170.701 198.868 172.034 199.357 173.036C199.703 173.758 200.493 173.317 200.38 172.485V172.495Z" fill="#503357"/>
<path d="M250.25 181.406C250.145 180.804 249.866 180.253 249.663 179.702C249.483 179.201 249.31 178.689 249.144 178.178C248.791 177.076 248.482 175.943 248.219 174.79C247.707 172.575 247.338 170.29 247.158 167.985C246.782 163.284 247.098 158.523 248.091 153.993C248.294 153.081 247.226 152.71 247.015 153.622C245.916 158.333 245.563 163.324 245.954 168.225C246.15 170.671 246.503 173.097 247.052 175.452C247.316 176.585 247.632 177.697 247.97 178.8C248.294 179.822 248.625 181.135 249.182 181.997C249.212 182.047 249.242 182.117 249.272 182.157C249.272 182.157 249.272 182.157 249.28 182.147C249.671 182.648 250.386 182.217 250.25 181.416V181.406Z" fill="#503357"/>
<path d="M243.81 177.055C243.547 175.963 243.321 174.86 243.14 173.738C242.764 171.453 242.576 169.127 242.553 166.792C242.516 162.161 243.148 157.501 244.465 153.211C244.758 152.259 243.712 151.437 243.404 152.409C241.951 156.919 241.199 161.76 241.214 166.672C241.222 169.117 241.417 171.563 241.786 173.958C241.974 175.161 242.207 176.344 242.486 177.516C242.621 178.058 242.757 178.599 242.915 179.14C243.08 179.732 243.193 180.373 243.644 180.684C243.968 180.904 244.329 180.694 244.442 180.233C244.577 179.661 244.382 179.21 244.231 178.679C244.081 178.148 243.938 177.607 243.802 177.055H243.81Z" fill="#503357"/>
<path d="M160.939 136.603C161.262 135.771 160.314 135.04 159.983 135.882C158.223 140.312 157.215 145.213 156.996 150.224C156.891 152.71 156.989 155.196 157.275 157.651C157.418 158.904 157.621 160.147 157.869 161.36C158.095 162.472 158.298 163.936 158.877 164.828C159.193 165.319 159.84 164.918 159.833 164.306C159.818 163.685 159.615 163.114 159.464 162.532C159.329 162.011 159.208 161.48 159.096 160.949C158.855 159.806 158.659 158.644 158.509 157.481C158.208 155.136 158.11 152.73 158.193 150.355C158.358 145.574 159.291 140.863 160.954 136.623L160.939 136.603Z" fill="#503357"/>
<path d="M166.048 165.529C164.648 161.059 163.632 156.509 163.354 151.647C163.076 146.856 163.429 142.025 164.407 137.405C164.603 136.463 163.512 136.082 163.309 137.024C162.255 141.835 161.857 146.897 162.143 151.898C162.421 156.829 163.264 161.931 164.942 166.371C165.318 167.373 166.356 166.511 166.048 165.529Z" fill="#503357"/>
<path d="M323.942 127.903C287.51 139.77 251.086 151.637 214.661 163.504C190.306 156.589 166.026 147.368 141.67 140.452C142.151 139.049 142.58 137.675 142.957 136.342C145.44 127.542 145.65 119.995 143.566 112.428C143.062 110.614 142.437 108.8 141.67 106.985C171.149 96.2108 206.415 85.4963 235.895 74.7017C263.681 79.5026 292.995 84.3537 320.782 89.1346C326.259 100.26 327.079 115.274 323.942 127.903Z" fill="#A9A5D2"/>
<path d="M297.758 109.431C300.926 115.104 301.43 123.072 299.007 129.336C282.439 132.644 265.992 136.944 249.732 142.206C249.612 139.319 249.318 136.443 248.852 133.606C248.521 131.591 247.911 129.467 248.062 127.372C248.393 122.671 252.614 122.451 255.45 121.589C264.464 118.852 273.486 116.206 282.53 113.651C285.065 112.929 287.601 112.227 290.144 111.516C290.919 111.305 297.465 108.89 297.766 109.431H297.758Z" fill="#CBCAEB"/>
<path d="M213.36 155.065C190.02 147.658 166.365 143.188 142.957 136.332C145.44 127.532 145.651 119.985 143.566 112.418C143.566 112.418 143.604 112.428 143.679 112.438C166.854 116.988 190.013 121.529 213.195 126.069C217.514 134.117 217.484 146.826 213.368 155.055L213.36 155.065Z" fill="#FDF9F7"/>
<path d="M213.36 155.065C214.571 126.881 146.651 113.23 143.679 112.448C166.853 116.998 190.012 121.539 213.194 126.079C217.513 134.127 217.483 146.836 213.367 155.065H213.36Z" fill="#C5CDEA"/>
<path d="M228.928 129.948C228.416 127.472 227.709 125.077 226.843 122.812C226.542 122.01 225.715 122.761 226.008 123.553C228.86 131.321 229.575 140.492 228.153 148.951C227.746 151.367 227.182 153.722 226.452 155.987C226.181 156.829 227.069 157.481 227.363 156.649C230.267 148.51 230.741 138.708 228.928 129.958V129.948Z" fill="#503357"/>
<path d="M234.668 127.793C234.405 126.52 234.096 125.257 233.728 124.024C233.562 123.473 233.382 122.922 233.201 122.37C232.945 121.619 232.795 121.198 232.2 121.017C232.185 121.017 232.17 121.017 232.163 121.037C231.967 121.639 231.99 121.879 232.155 122.501C232.298 123.042 232.479 123.573 232.629 124.114C232.923 125.157 233.186 126.219 233.419 127.292C233.886 129.457 234.217 131.672 234.405 133.917C234.774 138.357 234.623 142.847 233.908 147.197C233.502 149.653 232.9 152.018 232.411 154.434C232.291 155.045 232.893 155.235 233.103 154.784C234.864 150.966 235.481 146.044 235.707 141.554C235.94 136.924 235.586 132.243 234.668 127.783V127.793Z" fill="#503357"/>
<path d="M321.955 113.119C321.745 109.16 321.022 105.271 319.788 101.653C319.074 99.5685 318.193 97.594 317.155 95.7598C316.779 95.0882 315.906 95.7197 316.29 96.4113C319.691 102.645 321.263 110.503 320.714 118.181C320.556 120.356 320.195 122.491 319.796 124.616C319.63 125.518 320.579 125.808 320.827 124.976C321.91 121.278 322.159 117.058 321.955 113.119Z" fill="#503357"/>
<path d="M316.012 115.545C315.884 111.255 315.177 107.036 313.883 103.097C313.153 100.881 312.242 98.7967 311.166 96.8523C310.768 96.1206 310.008 97.0627 310.384 97.7844C313.875 104.399 315.305 112.819 314.492 120.807C314.379 121.95 314.206 123.082 313.995 124.195C313.785 125.317 313.521 126.38 313.416 127.532C313.348 128.254 314.116 128.515 314.387 127.943C315.229 126.189 315.5 123.924 315.734 121.879C315.982 119.785 316.065 117.65 316.004 115.525L316.012 115.545Z" fill="#503357"/>
<path d="M318.743 93.3543C305.719 97.9849 292.596 102.184 279.474 106.304C266.412 110.403 253.32 114.292 240.198 117.991C232.817 120.075 225.413 122.04 218.01 123.994C217.295 124.185 217.581 125.648 218.296 125.458C231.516 121.92 244.705 118.181 257.873 114.302C270.972 110.433 284.041 106.414 297.081 102.215C304.417 99.8491 311.73 97.3634 319.059 94.9579C319.834 94.7074 319.518 93.0837 318.743 93.3543Z" fill="#503357"/>
<path d="M215.775 148.029C211.118 147.117 206.49 145.864 201.87 144.722C197.243 143.589 192.616 142.446 187.981 141.314C178.794 139.059 169.607 136.804 160.42 134.538C155.206 133.255 150.014 131.712 144.77 130.619C144.198 130.499 143.942 131.642 144.537 131.812C149.134 133.125 153.799 134.077 158.434 135.18C163.069 136.272 167.696 137.455 172.323 138.598C181.51 140.863 190.697 143.138 199.884 145.403C205.098 146.686 210.35 147.839 215.519 149.372C216.181 149.573 216.43 148.17 215.783 148.039L215.775 148.029Z" fill="#503357"/>
<path d="M216.641 139.209C211.968 138.467 207.318 137.375 202.668 136.413C198.019 135.44 193.369 134.478 188.719 133.506C179.487 131.582 170.255 129.657 161.03 127.723C155.793 126.63 150.571 125.277 145.304 124.375C144.725 124.275 144.499 125.427 145.094 125.568C149.721 126.71 154.401 127.502 159.051 128.424C163.709 129.356 168.351 130.359 173.001 131.331C182.233 133.265 191.457 135.2 200.69 137.134C205.926 138.237 211.201 139.189 216.4 140.542C217.062 140.712 217.288 139.299 216.633 139.199L216.641 139.209Z" fill="#503357"/>
<path d="M215.986 132.473C211.396 131.341 206.784 130.349 202.187 129.266C197.589 128.184 193.007 127.071 188.402 126.029C179.2 123.944 169.991 121.959 160.759 120.145C158.193 119.644 155.62 119.143 153.054 118.622C150.421 118.091 147.81 117.469 145.184 116.868C144.514 116.718 144.379 118.01 145.064 118.111C147.404 118.461 149.736 118.782 152.068 119.233C154.393 119.684 156.718 120.145 159.036 120.626C163.641 121.589 168.245 122.591 172.85 123.583C181.992 125.558 191.119 127.642 200.23 129.827C205.407 131.06 210.546 132.524 215.708 133.867C216.392 134.047 216.671 132.634 215.986 132.463V132.473Z" fill="#503357"/>
<path d="M274.915 100.571C267.18 98.8367 259.438 97.1729 251.68 95.5792C243.961 93.9956 236.233 92.4621 228.506 90.9887C226.332 90.5778 224.15 90.1368 221.975 89.7158C219.861 89.3049 217.754 88.7837 215.632 88.5131C215.572 88.4529 215.497 88.4028 215.407 88.4028C214.827 88.4028 214.293 88.6534 213.736 88.8438C213.119 89.0643 212.495 89.2648 211.87 89.4753C210.659 89.8762 209.447 90.2771 208.236 90.668C205.851 91.4498 203.458 92.2216 201.066 92.9933C196.25 94.5368 191.435 96.1104 186.604 97.5637C183.895 98.3756 181.179 99.1975 178.471 100.029C177.801 100.24 178.064 101.613 178.734 101.392C178.817 101.362 178.899 101.342 178.975 101.312C179.027 101.503 179.155 101.683 179.306 101.723C182.24 102.505 185.22 102.976 188.177 103.628C191.126 104.279 194.076 104.971 197.018 105.682C202.834 107.075 208.65 108.449 214.474 109.822C217.769 110.604 221.065 111.375 224.353 112.197C225.045 112.368 225.323 110.964 224.639 110.814C218.725 109.561 212.826 108.198 206.927 106.865C201.096 105.552 195.249 104.329 189.433 102.926C186.529 102.224 183.632 101.372 180.713 100.741C189.659 97.7542 198.605 94.7373 207.589 91.9209C208.906 91.5099 210.222 91.099 211.547 90.678C212.239 90.4575 212.931 90.237 213.631 90.0366C214.173 89.8762 214.722 89.7659 215.241 89.5154C215.271 89.5354 215.294 89.5555 215.324 89.5655C217.205 90.0466 219.116 90.3172 221.012 90.648C222.983 90.9988 224.947 91.3796 226.918 91.7705C230.778 92.5423 234.638 93.3241 238.491 94.1259C246.203 95.7195 253.9 97.4134 261.605 99.0772C265.397 99.8991 269.181 100.741 272.966 101.583C267.714 103.026 262.493 104.62 257.241 106.063C251.402 107.677 245.556 109.21 239.694 110.654C236.399 111.465 233.103 112.317 229.793 112.989C229.161 113.119 229.409 114.422 230.041 114.262C235.85 112.738 241.696 111.425 247.512 109.902C253.358 108.368 259.197 106.765 265.021 105.071C268.294 104.119 271.567 103.157 274.809 102.044C274.907 102.014 274.975 101.934 275.013 101.854C275.381 101.553 275.442 100.721 274.915 100.601V100.571Z" fill="#503357"/>
<path d="M298.42 119.093C298.202 116.357 297.698 113.711 296.893 111.175C296.847 111.035 296.772 110.954 296.689 110.914C296.561 110.614 296.328 110.403 296.012 110.503C284.237 114.091 272.469 117.7 260.694 121.288C257.391 122.29 254.08 123.303 250.777 124.305C250.393 124.425 250.333 124.916 250.476 125.277C250.469 125.347 250.461 125.427 250.476 125.508C250.852 128.364 251.093 131.241 251.153 134.137C251.183 135.54 251.176 136.954 251.123 138.357C251.101 139.079 251.056 139.81 251.018 140.532C250.98 141.213 250.86 141.925 250.988 142.587C251.025 142.777 251.138 142.897 251.259 142.967C251.379 143.188 251.575 143.328 251.831 143.258C263.388 139.78 274.945 136.352 286.517 132.975C289.752 132.032 292.987 131.08 296.23 130.138C296.945 129.928 296.652 128.474 295.944 128.685C284.387 132.163 272.838 135.651 261.266 138.998C258.203 139.88 255.134 140.772 252.071 141.654C252.094 141.374 252.109 141.083 252.124 140.802C252.177 140.031 252.207 139.259 252.222 138.487C252.259 136.994 252.244 135.49 252.192 133.997C252.086 131.16 251.823 128.334 251.379 125.558C263.064 122.05 274.749 118.552 286.434 115.054C289.677 114.081 292.92 113.109 296.163 112.137C296.787 114.462 297.224 116.888 297.382 119.343C297.464 120.606 297.487 121.879 297.442 123.142C297.419 123.814 297.374 124.495 297.314 125.167C297.254 125.808 297.111 126.44 297.231 127.071C297.329 127.602 297.826 127.612 298.036 127.211C298.307 126.69 298.315 126.029 298.375 125.417C298.442 124.706 298.488 123.984 298.518 123.272C298.57 121.879 298.54 120.476 298.427 119.093H298.42Z" fill="#503357"/>
<path d="M329.284 86.2182C295.508 97.3736 261.725 108.509 227.949 119.654C206.445 112.408 183.895 107.597 162.391 100.35C162.835 99.5085 163.286 98.4361 163.723 97.2233C165.205 93.1139 166.484 87.4309 166.191 84.0031C165.95 81.1867 165.213 78.4404 164.069 76.055C163.407 74.6818 162.617 73.429 161.714 72.3365C191.773 62.0029 221.591 48.6925 251.642 38.3589C276.622 43.8715 302.648 49.6447 327.628 55.1472C333.046 63.2758 333.226 76.7064 329.284 86.2182Z" fill="#E9B2BC"/>
<path d="M310.113 78.9517C311.076 84.8652 299.519 93.2243 284.297 97.6143C269.076 102.014 255.962 100.782 254.998 94.868C254.035 88.9545 265.592 80.5954 280.814 76.2054C296.035 71.8053 309.15 73.0382 310.113 78.9517Z" fill="#F6D6DB"/>
<path d="M227.7 114.633C227.527 114.573 227.369 114.533 227.196 114.473C206.941 108.218 184.421 103.227 163.715 97.2133C165.197 93.1039 166.476 87.4209 166.183 83.9931C165.942 81.1766 165.205 78.4304 164.061 76.0449C177.281 79.3625 190.486 82.6801 203.698 85.9976C211.802 88.0223 219.898 90.0669 228.001 92.0916C230.1 99.2479 230.777 108.148 227.7 114.633Z" fill="#FDF9F7"/>
<path d="M227.701 114.633C227.528 114.573 227.37 114.533 227.197 114.473C226.347 110.904 224.985 107.527 223.277 104.58C219.612 98.2355 214.541 93.6049 209.267 89.7561C207.438 88.4231 205.58 87.1602 203.691 85.9976C211.795 88.0222 219.891 90.0669 227.994 92.0915C230.094 99.2478 230.771 108.148 227.693 114.633H227.701Z" fill="#C5CDEA"/>
<path d="M228.491 95.3891C220.41 93.4948 212.329 91.5804 204.248 89.646C196.212 87.7216 188.184 85.7271 180.156 83.7024C175.611 82.5598 171.097 81.2168 166.552 80.0441C165.83 79.8537 165.536 81.3471 166.259 81.5175C170.299 82.4796 174.362 83.2715 178.403 84.2537C182.435 85.2359 186.468 86.2382 190.501 87.2405C198.53 89.2351 206.543 91.2998 214.556 93.3545C219.101 94.5272 223.638 95.7199 228.182 96.9226C228.935 97.1231 229.243 95.5595 228.483 95.3791L228.491 95.3891Z" fill="#503357"/>
<path d="M228.942 102.545C220.929 100.591 212.923 98.5964 204.917 96.5818C196.919 94.5572 188.876 92.7831 180.915 90.5079C176.423 89.225 171.932 87.912 167.44 86.619C166.65 86.3885 166.334 88.0523 167.124 88.2327C171.142 89.1548 175.167 90.0569 179.185 90.979C183.203 91.9111 187.19 92.9635 191.178 94.036C199.154 96.1909 207.137 98.2957 215.128 100.401C219.642 101.593 224.141 102.836 228.648 104.069C229.393 104.269 229.694 102.726 228.949 102.545H228.942Z" fill="#503357"/>
<path d="M227.595 109.591C226.542 109.541 225.504 109.13 224.473 108.84L221.523 108.008C219.522 107.437 217.52 106.885 215.511 106.344C211.501 105.252 207.491 104.169 203.488 103.047C195.445 100.801 187.401 98.5863 179.388 96.1508C174.896 94.7877 170.412 93.3544 165.912 92.0314C165.273 91.8409 165.017 93.184 165.657 93.3644C173.7 95.6196 181.773 97.6642 189.809 99.9896C197.837 102.315 205.85 104.71 213.864 107.136C216.128 107.817 218.393 108.509 220.658 109.171C221.779 109.491 222.893 109.822 224.014 110.143C225.157 110.473 226.354 110.704 227.437 111.285C228.22 111.706 228.581 109.652 227.595 109.601V109.591Z" fill="#503357"/>
<path d="M323.46 56.2798C321.918 56.5905 320.428 57.2019 318.916 57.7131C317.411 58.2143 315.898 58.7254 314.394 59.2266L305.342 62.2535C299.375 64.248 293.416 66.2426 287.45 68.2371C275.419 72.2563 263.38 76.2655 251.341 80.2546C244.585 82.4897 237.828 84.7148 231.079 87C230.364 87.2405 230.673 88.7039 231.387 88.4633C243.396 84.4943 255.367 80.3748 267.36 76.3557C279.391 72.3265 291.422 68.2872 303.454 64.2681C306.809 63.1455 310.173 62.0229 313.528 60.9004C315.206 60.3391 316.884 59.7778 318.57 59.2165C320.285 58.6452 322.031 58.2143 323.693 57.4124C324.243 57.1518 324.009 56.1696 323.46 56.2798Z" fill="#503357"/>
<path d="M237.437 97.1029C237.226 95.4291 236.978 93.5348 236.376 92.0213C236.12 91.3899 235.488 91.8409 235.556 92.4623C235.736 94.056 236.143 95.6195 236.331 97.2232C236.526 98.887 236.609 100.581 236.594 102.275C236.579 103.918 236.474 105.552 236.263 107.176C236.158 107.978 236.03 108.77 235.879 109.561C235.721 110.373 235.473 111.055 235.661 111.877C235.759 112.308 236.105 112.378 236.346 112.127C236.858 111.596 236.933 110.794 237.083 109.982C237.241 109.11 237.377 108.228 237.482 107.346C237.685 105.632 237.783 103.898 237.775 102.164C237.768 100.481 237.648 98.7868 237.444 97.123L237.437 97.1029Z" fill="#503357"/>
<path d="M241.831 100.511C241.764 99.2178 241.636 97.9248 241.455 96.6519C241.372 96.0505 241.267 95.4492 241.147 94.8578C241.026 94.2564 240.944 93.5849 240.605 93.1439C240.605 93.1439 240.605 93.1539 240.605 93.1639C240.409 92.9334 240.041 92.9134 239.95 93.3844C239.853 93.9257 239.98 94.4368 240.063 94.9681C240.161 95.5694 240.236 96.1808 240.311 96.7822C240.469 98.0551 240.56 99.3481 240.59 100.641C240.62 101.874 240.612 103.097 240.552 104.329C240.522 104.951 240.469 105.582 240.409 106.204C240.349 106.825 240.199 107.437 240.319 108.058C240.454 108.76 241.117 108.79 241.395 108.248C241.673 107.697 241.666 106.945 241.726 106.304C241.779 105.693 241.824 105.081 241.846 104.47C241.907 103.157 241.907 101.834 241.839 100.521L241.831 100.511Z" fill="#503357"/>
<path d="M246.052 98.7066C245.947 97.7845 245.804 96.8624 245.616 95.9603C245.435 95.0683 245.232 94.056 244.848 93.2742C244.555 92.6928 244.081 93.1038 244.051 93.5648C244.051 93.5648 244.05 93.5648 244.043 93.5648C244.043 93.5749 244.043 93.5849 244.043 93.6049C244.043 93.635 244.043 93.655 244.051 93.6851C244.126 94.5571 244.336 95.4091 244.479 96.261C244.622 97.1029 244.735 97.9649 244.81 98.8269C244.893 99.6888 244.938 100.561 244.946 101.423C244.961 102.365 244.893 103.297 244.901 104.229C244.901 104.65 245.119 104.981 245.405 105.101C245.525 105.151 245.631 105.131 245.751 105.101C245.962 105.051 246.202 104.75 246.232 104.46C246.421 102.575 246.263 100.571 246.044 98.7066H246.052Z" fill="#503357"/>
<path d="M250.469 98.0151C250.431 97.7545 250.378 97.5039 250.326 97.2534C250.22 96.7322 250.107 96.211 250.002 95.6898C249.934 95.349 249.648 95.0984 249.385 95.2087C249.099 95.329 248.979 95.6597 249.024 96.0306C249.084 96.5718 249.144 97.103 249.204 97.6443C249.235 97.8948 249.257 98.1454 249.302 98.386C249.34 98.6065 249.4 98.837 249.52 99.0174C249.656 99.2078 249.874 99.3181 250.07 99.2579C250.175 99.1978 250.183 99.1978 250.077 99.2579L250.213 99.1878C250.356 99.0876 250.453 98.8871 250.491 98.6766C250.529 98.4661 250.499 98.2356 250.469 98.0251V98.0151Z" fill="#503357"/>
<path d="M326.537 66.8539C326.221 65.2102 325.852 63.356 325.145 61.9127C324.852 61.3113 324.25 61.8325 324.363 62.4439C324.648 64.0175 325.153 65.5209 325.446 67.0945C325.747 68.7282 325.943 70.4121 326.033 72.0959C326.123 73.7296 326.123 75.3834 326.025 77.0171C325.973 77.829 325.897 78.6308 325.8 79.4327C325.694 80.2646 325.491 80.9662 325.732 81.768C325.86 82.189 326.206 82.209 326.432 81.9384C326.913 81.347 326.928 80.5452 327.026 79.7133C327.131 78.8213 327.207 77.9292 327.252 77.0372C327.342 75.3032 327.327 73.5693 327.207 71.8353C327.086 70.1515 326.861 68.4877 326.545 66.8539H326.537Z" fill="#503357"/>
<path d="M323.28 72.8475C323.122 71.5646 322.911 70.3017 322.648 69.0488C322.52 68.4575 322.377 67.8762 322.226 67.2948C322.068 66.7135 321.94 66.052 321.572 65.6511C321.572 65.6511 321.572 65.6611 321.572 65.6711C321.361 65.4607 320.992 65.4907 320.94 65.9618C320.872 66.5131 321.037 67.0042 321.158 67.5254C321.293 68.1167 321.414 68.7081 321.526 69.3094C321.767 70.5623 321.94 71.8352 322.061 73.1181C322.174 74.3409 322.249 75.5637 322.264 76.7965C322.271 77.428 322.264 78.0494 322.241 78.6808C322.219 79.3023 322.113 79.9337 322.271 80.5351C322.452 81.2166 323.114 81.1665 323.355 80.5952C323.596 80.0139 323.543 79.2622 323.558 78.6207C323.573 78.0093 323.573 77.3979 323.558 76.7765C323.528 75.4635 323.445 74.1405 323.287 72.8475H323.28Z" fill="#503357"/>
<path d="M319.111 73.9101C318.946 72.998 318.743 72.106 318.495 71.224C318.254 70.352 317.99 69.3698 317.554 68.6381C317.23 68.0969 316.779 68.5579 316.779 69.019C316.779 69.019 316.779 69.019 316.771 69.019C316.771 69.029 316.771 69.039 316.771 69.059C316.771 69.0891 316.779 69.1092 316.787 69.1392C316.914 70.0012 317.185 70.8231 317.381 71.655C317.577 72.4869 317.742 73.3288 317.885 74.1707C318.02 75.0227 318.126 75.8846 318.194 76.7466C318.269 77.6787 318.261 78.6209 318.329 79.553C318.359 79.974 318.592 80.2747 318.893 80.3649C319.014 80.405 319.119 80.3649 319.239 80.3248C319.45 80.2546 319.668 79.9239 319.676 79.6232C319.744 77.7288 319.45 75.7543 319.111 73.9201V73.9101Z" fill="#503357"/>
<path d="M315.244 77.0973C315.191 76.8467 315.123 76.6061 315.055 76.3556C314.913 75.8444 314.77 75.3433 314.627 74.8321C314.536 74.5013 314.235 74.2808 313.98 74.4212C313.701 74.5715 313.603 74.9223 313.671 75.2831C313.769 75.8143 313.867 76.3456 313.957 76.8768C314.002 77.1273 314.047 77.3679 314.107 77.6084C314.16 77.8289 314.235 78.0494 314.363 78.2098C314.514 78.3902 314.732 78.4704 314.928 78.3802C315.033 78.31 315.033 78.31 314.935 78.3802L315.063 78.29C315.198 78.1797 315.281 77.9592 315.304 77.7488C315.326 77.5283 315.281 77.3077 315.236 77.0973H315.244Z" fill="#503357"/>
<path d="M307.148 75.8244C303.785 72.0257 298.819 73.1784 294.959 74.7219C290.475 76.516 285.08 79.3725 280.543 76.2855C280.31 75.5939 279.339 75.7142 279.331 76.6563C279.316 78.1196 278.346 79.142 277.473 79.8035C276.344 80.6655 275.088 81.2167 273.839 81.6577C271.333 82.5397 268.752 82.9006 266.239 83.7325C264.012 84.4641 261.8 85.5666 259.987 87.491C258.301 89.2751 256.601 92.3321 257.481 95.3289C257.91 96.7722 258.858 97.8547 259.912 98.4561C260.574 98.8269 261.258 99.0174 261.966 99.1176C262.688 99.2178 263.478 99.3281 264.178 99.0274C264.584 98.847 264.599 98.0852 264.178 97.9148C263.583 97.6743 262.966 97.7645 262.342 97.7344C261.687 97.6943 261.04 97.5841 260.408 97.3435C259.4 96.9526 258.384 96.0406 258.031 94.6574C257.225 91.5102 259.934 88.6136 261.725 87.3106C265.923 84.2436 270.927 84.6546 275.404 82.7402C277.24 81.9584 279.67 80.6354 280.385 78.0595C282.04 79.0618 283.861 79.4326 285.674 79.2923C287.819 79.1219 289.858 78.2499 291.882 77.3679C295.877 75.634 300.587 73.1182 304.718 75.6239C306.268 76.5661 307.6 78.3301 307.6 80.7356C307.6 83.1912 306.396 85.4063 304.974 86.8295C302.069 89.7462 298.134 90.087 294.658 90.5981C290.776 91.1694 286.735 92.1016 283.756 95.6998C283.417 95.4292 282.996 95.2488 282.665 95.1185C282.018 94.8579 281.325 94.7576 280.648 94.7376C279.181 94.6875 277.714 95.0884 276.314 95.6597C273.274 96.9126 270.25 98.8369 267.007 97.7545C266.3 97.5239 266.081 98.847 266.728 99.1777C269.716 100.701 272.868 98.857 275.697 97.5841C277.097 96.9526 278.556 96.3513 280.046 96.3713C280.708 96.3813 281.355 96.5116 281.987 96.7823C282.619 97.0529 283.259 97.7946 283.929 97.6342C283.936 97.6342 283.944 97.6242 283.959 97.6142C284.139 97.6442 284.32 97.564 284.47 97.3235C286.908 93.3143 291.129 92.6328 294.741 92.2419C298.443 91.841 302.476 91.5002 305.598 88.4933C307.133 87.0099 308.412 84.9552 308.811 82.4295C309.21 79.9338 308.623 77.4581 307.148 75.7943V75.8244Z" fill="#503357"/>
<path d="M304.59 51.3785C305.064 52.8919 305.681 54.3052 306.426 55.5881C290.189 63.5663 248.069 80.8558 231.847 88.834C213.932 84.434 195.091 80.1642 177.169 75.7742C174.709 71.5746 173.354 66.2424 173.384 60.9203C173.422 55.5981 174.874 50.2559 177.387 46.1165C194.55 39.1806 233.75 23.9258 250.92 17C269.091 20.3376 287.269 23.6752 305.448 27.0129C305.139 27.935 304.861 28.9072 304.613 29.9095C302.897 36.715 302.559 44.9238 304.59 51.3785Z" fill="#4962D1"/>
<path d="M222.284 38.1582C226.369 36.3842 230.447 34.6001 234.533 32.826C236.655 31.9039 238.807 30.9718 241.034 30.8716C243.314 30.7713 245.563 31.5431 247.836 31.8037C250.108 32.0643 252.583 31.7235 254.321 29.749C253.855 29.0374 253.892 27.9148 254.246 27.0929C254.592 26.2711 255.187 25.6797 255.789 25.1786C256.406 24.6574 257.075 24.1763 257.805 24.1462C258.535 24.1161 259.325 24.6574 259.513 25.5895C259.746 26.7121 259.062 27.8146 258.339 28.4661C257.617 29.1176 256.752 29.6187 256.3 30.621C258.151 32.3349 260.273 33.5276 262.493 34.0889C256.172 36.9254 249.852 39.7619 243.532 42.5983C242.689 42.9792 241.824 43.3601 240.936 43.4202C239.898 43.4904 238.882 43.1195 237.859 42.869C236.211 42.458 234.525 42.3277 232.855 42.4981C231.922 42.5883 230.959 42.7888 230.169 43.4703C229.281 44.2421 228.724 45.525 228.009 46.5674C226.723 48.4417 224.834 49.5542 222.931 49.5642C222.284 49.5642 221.546 49.3838 221.2 48.6522C220.869 47.9606 221.027 46.9984 221.418 46.3569C221.802 45.7155 222.366 45.3145 222.916 44.9236C223.871 44.2521 224.827 43.5806 225.782 42.9191C226.136 42.6685 226.512 42.3979 226.708 41.9268C227.031 41.1651 226.723 40.1427 226.204 39.6015C225.684 39.0603 225.007 38.8798 224.36 38.7095" fill="#718EE3"/>
<path d="M303.484 46.1866C303.718 48.0007 304.071 49.7447 304.59 51.3684L231.14 83.6622C230.681 83.5619 230.222 83.4517 229.755 83.3414C214.03 79.7031 195.189 76.165 179.645 72.5167C178.937 71.6046 178.328 70.452 177.824 69.149C177.666 68.7281 177.515 68.2971 177.372 67.8561C176.77 65.9417 176.394 63.7768 176.304 61.6218C176.281 61.2009 176.266 60.7699 176.259 60.3389C176.259 58.615 176.447 56.9111 176.808 55.3275C176.913 54.9466 177.011 54.5557 177.139 54.1949C177.402 53.3329 177.741 52.5211 178.147 51.7794C178.328 51.4286 178.531 51.0978 178.749 50.7971C183.805 51.9397 189.366 52.9921 195.107 54.0145C206.596 56.0591 218.77 57.9936 228.913 60.2788C255.247 50.4864 278.263 39.6918 304.598 29.8994C304.244 31.3126 303.951 32.776 303.725 34.2794C303.642 34.8206 303.567 35.3519 303.507 35.9031C303.364 37.1961 303.251 38.499 303.221 39.812C303.198 40.2831 303.183 40.7642 303.198 41.2453C303.191 42.4581 303.244 43.6709 303.349 44.8435C303.371 45.2946 303.424 45.7356 303.484 46.1766V46.1866Z" fill="#FDF9F7"/>
<path d="M303.484 46.1866C303.717 48.0007 304.071 49.7447 304.59 51.3684L231.139 83.6621C225.301 67.385 187.146 54.5958 178.162 51.7894C178.343 51.4386 178.546 51.1078 178.764 50.8071C183.82 51.9497 189.381 53.0021 195.121 54.0245C206.611 56.0691 218.785 58.0036 228.927 60.2888C255.262 50.4964 278.278 39.7018 304.613 29.9094C304.259 31.3227 303.966 32.786 303.74 34.2894C303.657 34.8307 303.582 35.3619 303.522 35.9131C303.379 37.2061 303.266 38.5091 303.236 39.8221C303.213 40.2931 303.198 40.7742 303.213 41.2553C303.206 42.4681 303.258 43.6809 303.364 44.8535C303.386 45.3046 303.439 45.7456 303.499 46.1866H303.484Z" fill="#C5CDEA"/>
<path d="M229.357 65.9016C229.357 65.9016 229.349 65.9016 229.342 65.9016C229.289 65.9116 229.229 65.9216 229.161 65.9116C224.857 65.1398 220.546 64.358 216.25 63.5161C208.658 62.0327 201.074 60.4992 193.497 58.9356C187.936 57.793 182.369 56.5903 176.823 55.3374C176.921 54.9465 177.026 54.5657 177.147 54.1948C179.366 54.696 181.594 55.1971 183.821 55.6782C191.39 57.352 198.974 58.9256 206.566 60.409C214.165 61.8724 221.78 63.1753 229.387 64.4883C229.47 64.5084 229.545 64.5384 229.605 64.5986C229.981 64.8892 229.823 65.7713 229.364 65.9016H229.357Z" fill="#503357"/>
<path d="M229.853 77.829C229.808 77.839 229.763 77.849 229.718 77.829C225.399 77.2176 221.08 76.5761 216.769 75.8745C209.154 74.6417 201.547 73.3688 193.933 72.0658C188.561 71.1437 183.189 70.1815 177.831 69.1592C177.673 68.7382 177.523 68.3072 177.38 67.8562C179.652 68.2872 181.924 68.7081 184.197 69.1391C191.804 70.5624 199.411 71.8754 207.025 73.0881C214.647 74.3109 222.291 75.3533 229.928 76.3957C230.011 76.3957 230.086 76.4458 230.147 76.4959C230.538 76.7866 230.38 77.7488 229.861 77.8189L229.853 77.829Z" fill="#503357"/>
<path d="M230.056 71.364C230.01 71.364 229.98 71.364 229.935 71.364C225.466 70.8328 221.004 70.2415 216.542 69.58C208.619 68.3973 200.719 66.954 192.841 65.3202C188.914 64.5184 185.001 63.6564 181.096 62.7343C179.501 62.3535 177.898 62.0027 176.303 61.6318C176.281 61.2108 176.273 60.7799 176.266 60.3489C178.395 60.9001 180.524 61.4414 182.669 61.9225C190.524 63.7065 198.417 65.2601 206.332 66.5731C214.247 67.8761 222.185 68.9986 230.131 69.8405C230.184 69.8405 230.229 69.8606 230.266 69.8907C230.808 70.1112 230.643 71.2939 230.056 71.364Z" fill="#503357"/>
<path d="M303.732 34.2996C303.65 34.8308 303.574 35.362 303.514 35.9032C290.52 41.5361 276.013 47.8204 273.673 48.7626C266.33 51.7093 258.979 54.636 251.62 57.5126C244.254 60.3991 236.873 63.1955 229.469 65.8917C229.439 65.9017 229.394 65.9117 229.356 65.9117C229.356 65.9117 229.351 65.9117 229.341 65.9117C228.882 65.9117 228.747 64.9195 229.266 64.729C229.379 64.6889 229.492 64.6489 229.605 64.6088C233.683 63.1154 237.746 61.6019 241.824 60.0684C249.205 57.282 256.571 54.4255 263.915 51.4487C268.482 49.5945 287.917 41.1853 303.732 34.3096V34.2996Z" fill="#503357"/>
<path d="M303.484 46.1865C290.557 51.8795 276.201 58.1839 273.891 59.1962C266.6 62.3935 259.302 65.5608 252.004 68.6879C244.698 71.8151 237.377 74.872 230.033 77.8087C229.965 77.8388 229.905 77.8388 229.853 77.8288H229.815C229.424 77.7286 229.311 76.8365 229.8 76.6461C229.913 76.606 230.026 76.5559 230.138 76.5158C234.186 74.8821 238.219 73.2383 242.267 71.5645C249.588 68.5476 256.902 65.4305 264.185 62.2031C268.662 60.2286 287.66 51.8194 303.341 44.8635C303.371 45.3146 303.424 45.7556 303.476 46.1966L303.484 46.1865Z" fill="#503357"/>
<path d="M303.221 39.812C303.198 40.2931 303.183 40.7642 303.19 41.2553C290.964 46.6677 278.286 52.2705 276.073 53.2727C268.527 56.7006 260.912 59.8578 253.268 62.8546C249.453 64.3581 245.646 65.7913 241.809 67.1745C237.941 68.5677 234.096 70.031 230.206 71.334C230.154 71.344 230.109 71.364 230.063 71.354C230.041 71.354 230.011 71.354 229.981 71.354C229.507 71.2338 229.364 70.1914 229.928 70.0009C230.041 69.9608 230.154 69.9308 230.267 69.8907C234.518 68.4775 238.754 67.1143 242.975 65.5608C250.664 62.7143 258.294 59.6573 265.871 56.3498C270.295 54.4154 287.871 46.6677 303.221 39.822V39.812Z" fill="#503357"/>
<path d="M260.122 32.6858C259.024 32.4652 257.948 32.0643 256.917 31.5231C256.421 31.2625 255.593 30.9117 255.164 30.3304C255.728 29.9996 256.285 29.6087 256.819 29.1577C257.293 28.7568 257.752 28.3158 258.196 27.8547C258.52 27.5139 258.986 27.1431 259.144 26.6019C259.265 26.1909 259.212 25.7198 258.941 25.4492C258.58 25.0884 258.046 25.2989 257.654 25.4492C256.413 25.9103 253.922 27.6743 254.141 29.7791C253.057 30.2803 251.936 30.6311 250.792 30.8215C248.212 31.2425 245.601 30.9117 243.05 30.2502C242.734 29.3682 240.642 30.6411 240.251 30.8215C237.618 32.0242 234.947 33.1067 232.283 34.1792C229.213 35.412 226.166 36.7149 223.119 38.0279C222.652 38.2284 222.72 39.0202 223.036 39.2708C223.096 39.4312 223.209 39.5514 223.375 39.5715C224.42 39.6617 225.534 39.7519 226.497 40.3232C226.956 40.5938 227.438 40.9747 227.716 41.546C227.814 41.7364 227.859 41.9369 227.881 42.1273C226.55 42.5282 225.241 43.0795 224.007 43.8412C222.818 44.5729 221.659 45.485 220.673 46.6476C220.32 47.0686 220.026 47.6499 220.252 48.2914C220.53 49.0832 221.215 48.8226 221.727 48.7023C222.946 48.4117 224.119 47.9105 225.218 47.1387C226.316 46.357 227.52 45.2945 228.265 43.9414C228.416 43.6608 228.514 43.3802 228.581 43.1095C229.74 42.7988 230.914 42.6084 232.103 42.5282C233.419 42.438 234.743 42.4581 236.053 42.6786C237.422 42.9191 238.686 43.4203 239.98 44.0216C240.575 44.3023 240.943 42.9291 240.349 42.6285C237.67 41.2252 234.54 41.105 231.704 41.3956C230.68 41.5059 229.657 41.6763 228.641 41.9269C228.529 41.0849 228.092 40.3132 227.445 39.7719C226.64 39.0803 225.707 38.8097 224.766 38.6794C229.62 36.3541 234.518 34.129 239.506 32.3951C240.183 32.1646 240.861 31.9541 241.538 31.7436C241.876 31.6333 242.441 31.5732 242.779 31.2625C246.549 32.2949 250.755 32.5855 254.412 30.7714C254.419 30.7914 254.427 30.8115 254.442 30.8315C254.758 31.4229 255.277 31.7937 255.751 32.1245C256.338 32.5454 256.94 32.8862 257.564 33.1769C258.181 33.4575 258.813 33.6981 259.453 33.8685C259.724 33.9386 259.994 33.9887 260.265 34.0489C259.746 34.2694 259.272 34.55 259.107 34.6202C256.473 35.8229 253.802 36.9054 251.139 37.9778C248.069 39.2106 245.021 40.5136 241.974 41.8266C241.357 42.0972 241.666 43.3902 242.275 43.0995C247.572 40.5437 252.929 38.068 258.384 36.1637C259.061 35.9332 259.739 35.7227 260.416 35.5122C260.777 35.402 261.409 35.3418 261.74 34.9509C262.116 35.0111 262.515 34.6202 262.455 33.9587C262.327 32.6256 260.815 32.8862 260.115 32.7359L260.122 32.6858ZM227.453 43.5205C226.083 45.5852 223.924 46.9884 221.945 47.6599C221.802 47.7101 221.193 47.9807 221.132 47.7602C221.072 47.5196 221.471 47.229 221.629 47.0786C222.05 46.6577 222.479 46.2668 222.931 45.9059C223.849 45.1743 224.819 44.5729 225.827 44.0918C226.384 43.8212 226.956 43.6007 227.528 43.4102C227.505 43.4503 227.483 43.4904 227.46 43.5305L227.453 43.5205ZM255.029 28.837C255.518 27.6843 256.616 26.8825 257.519 26.4515C257.7 26.3613 258.068 26.1408 258.264 26.1609C258.738 26.221 258.422 26.642 258.249 26.8424C257.797 27.3736 257.301 27.8247 256.782 28.2155C256.165 28.6766 255.525 29.0575 254.878 29.3982C254.893 29.2279 254.938 29.0374 255.021 28.837H255.029Z" fill="#503357"/>
<path d="M298.812 28.0051C294.38 29.5386 290.001 31.3627 285.599 33.0265C281.19 34.6903 276.781 36.3241 272.38 38.0179C263.614 41.4057 254.878 44.9237 246.166 48.552C243.728 49.5643 241.29 50.5966 238.86 51.629C236.399 52.6814 233.954 53.8441 231.463 54.7762C230.764 55.0368 231.117 56.5402 231.779 56.1994C233.909 55.0869 236.113 54.1949 238.28 53.2226C240.455 52.2504 242.629 51.2882 244.804 50.3461C249.16 48.4517 253.517 46.5674 257.896 44.7733C266.616 41.1952 275.382 37.7674 284.17 34.4999C289.128 32.6557 294.147 31.1422 299.128 29.3782C299.797 29.1377 299.489 27.7846 298.819 28.0151L298.812 28.0051Z" fill="#503357"/>
<path d="M191.924 48.3615C190.457 48.0508 188.997 47.7501 187.53 47.4394C186.002 47.1187 184.475 46.6075 182.933 46.4371C182.316 46.377 182.188 47.5096 182.79 47.7C184.091 48.0909 185.453 48.2112 186.77 48.4517C188.132 48.7023 189.494 48.9829 190.856 49.2536C193.512 49.7747 196.16 50.2859 198.809 50.8271C204.143 51.9196 209.47 53.0522 214.805 54.1748C217.799 54.8062 220.794 55.4477 223.804 55.999C224.383 56.0992 224.518 54.9265 223.939 54.7962C218.62 53.6035 213.262 52.6413 207.928 51.5989C202.586 50.5565 197.251 49.4841 191.916 48.3715L191.924 48.3615Z" fill="#503357"/>
<path d="M250.258 18.7841C245.94 20.8287 241.56 22.6629 237.204 24.5873C232.848 26.5117 228.476 28.3559 224.105 30.2101C215.399 33.8885 206.671 37.5068 197.898 40.9046C195.445 41.8567 192.985 42.7788 190.517 43.6809C188.019 44.593 185.498 45.4048 183 46.3269C182.285 46.5875 182.632 48.0609 183.339 47.7903C187.74 46.0663 192.089 44.152 196.483 42.408C200.878 40.664 205.279 38.9301 209.666 37.1761C218.416 33.668 227.167 30.16 235.88 26.5117C240.786 24.457 245.684 22.3221 250.604 20.3276C251.349 20.0269 250.973 18.4433 250.243 18.7941L250.258 18.7841Z" fill="#503357"/>
<path d="M318.411 133.466H318.404C318.404 133.466 318.389 133.476 318.366 133.486C318.381 133.476 318.389 133.466 318.411 133.466Z" fill="#F8FDF7"/>
</g>
<path d="M371.66 146.38L393.24 146.9C400.867 146.9 406.847 146.813 411.18 146.64C411.7 132.427 411.96 119.947 411.96 109.2L411.7 83.72C411.7 81.4667 411.093 80.34 409.88 80.34L406.76 81.9C401.387 87.7933 395.667 95.5067 389.6 105.04C383.707 114.573 379.113 122.72 375.82 129.48L370.88 139.36C370.187 140.92 369.84 142.48 369.84 144.04C369.84 145.6 370.447 146.38 371.66 146.38ZM409.88 173.42L387.52 173.16L340.72 173.68C336.907 173.68 335 171.947 335 168.48L335.52 165.62C346.613 138.233 365.247 107.12 391.42 72.28C399.74 61.0133 407.453 51.48 414.56 43.68L417.94 40.3C422.447 35.62 429.12 33.28 437.96 33.28C442.64 33.28 444.98 34.6667 444.98 37.44C442.207 61.88 440.82 86.7533 440.82 112.06V145.08C443.073 144.907 445.5 144.733 448.1 144.56L454.08 144.04C455.293 144.04 456.073 144.04 456.42 144.04C457.807 144.04 458.5 144.473 458.5 145.34C458.5 148.287 457.027 153.053 454.08 159.64C451.133 166.227 448.1 170.213 444.98 171.6L441.34 172.38C441.687 191.967 442.553 205.14 443.94 211.9C443.94 216.407 440.473 219.7 433.54 221.78C426.78 223.86 420.28 224.9 414.04 224.9C407.973 224.9 404.94 223.513 404.94 220.74C404.94 220.393 405.46 216.927 406.5 210.34C407.54 203.753 408.667 191.447 409.88 173.42Z" fill="#FFCA41"/>
<path d="M37.66 148.38L59.24 148.9C66.8667 148.9 72.8467 148.813 77.18 148.64C77.7 134.427 77.96 121.947 77.96 111.2L77.7 85.72C77.7 83.4667 77.0933 82.34 75.88 82.34L72.76 83.9C67.3867 89.7933 61.6667 97.5067 55.6 107.04C49.7067 116.573 45.1133 124.72 41.82 131.48L36.88 141.36C36.1867 142.92 35.84 144.48 35.84 146.04C35.84 147.6 36.4467 148.38 37.66 148.38ZM75.88 175.42L53.52 175.16L6.72 175.68C2.90667 175.68 1 173.947 1 170.48L1.52 167.62C12.6133 140.233 31.2467 109.12 57.42 74.28C65.74 63.0133 73.4533 53.48 80.56 45.68L83.94 42.3C88.4467 37.62 95.12 35.28 103.96 35.28C108.64 35.28 110.98 36.6667 110.98 39.44C108.207 63.88 106.82 88.7533 106.82 114.06V147.08C109.073 146.907 111.5 146.733 114.1 146.56L120.08 146.04C121.293 146.04 122.073 146.04 122.42 146.04C123.807 146.04 124.5 146.473 124.5 147.34C124.5 150.287 123.027 155.053 120.08 161.64C117.133 168.227 114.1 172.213 110.98 173.6L107.34 174.38C107.687 193.967 108.553 207.14 109.94 213.9C109.94 218.407 106.473 221.7 99.54 223.78C92.78 225.86 86.28 226.9 80.04 226.9C73.9733 226.9 70.94 225.513 70.94 222.74C70.94 222.393 71.46 218.927 72.5 212.34C73.54 205.753 74.6667 193.447 75.88 175.42Z" fill="#FFCA41"/>
<path d="M135.276 48.6406C129.335 45.9659 127.423 43.1345 125.908 36.4837C125.86 36.2668 125.763 36.1343 125.655 36.0379C125.306 35.3753 123.815 34.9536 123.875 36.5199C124.176 43.6044 121.65 47.6527 116.635 50.472C115.83 50.9298 115.95 52.4118 117.092 52.5082C119.534 52.701 121.855 54.0865 123.502 56.3998C124.224 57.4119 124.789 58.6047 125.174 59.8819C125.367 60.5204 125.535 61.1951 125.643 61.8699C125.739 62.4843 125.751 63.0506 126.028 63.4844C126.1 63.882 126.353 64.2073 126.762 64.1711C126.882 64.1711 127.002 64.147 127.122 64.135C127.423 64.1109 127.784 63.7735 127.808 63.3639C127.964 60.4361 128.734 57.5927 129.901 55.0022C130.803 53.0142 133.16 51.4359 134.952 50.9057C136.455 50.46 135.818 48.8816 135.252 48.6286L135.276 48.6406Z" fill="#FFE8AD"/>
<path d="M401.794 188.716C395.853 186.042 393.941 183.21 392.425 176.559C392.377 176.343 392.281 176.21 392.173 176.114C391.824 175.451 390.333 175.029 390.393 176.596C390.694 183.68 388.168 187.728 383.153 190.548C382.347 191.006 382.467 192.487 383.61 192.584C386.051 192.777 388.372 194.174 390.02 196.476C390.742 197.488 391.307 198.68 391.692 199.958C391.884 200.596 392.053 201.271 392.161 201.946C392.257 202.56 392.269 203.126 392.546 203.56C392.618 203.958 392.87 204.283 393.279 204.247C393.4 204.247 393.52 204.223 393.64 204.211C393.941 204.187 394.301 203.849 394.326 203.44C394.482 200.512 395.252 197.668 396.418 195.078C397.32 193.09 399.677 191.512 401.469 190.981C402.973 190.536 402.335 188.957 401.77 188.704L401.794 188.716Z" fill="#FFE8AD"/>
<path d="M395.555 55.653C391.418 53.7975 390.083 51.8216 389.037 47.195C389.001 47.0504 388.941 46.954 388.868 46.8817C388.628 46.4239 387.582 46.1347 387.63 47.2191C387.846 52.1589 386.078 54.9662 382.591 56.9301C382.037 57.2434 382.11 58.2796 382.915 58.3398C384.611 58.4724 386.223 59.4483 387.377 61.0507C387.882 61.7495 388.267 62.5929 388.544 63.4725C388.676 63.9183 388.796 64.3882 388.868 64.858C388.941 65.2797 388.953 65.6773 389.145 65.9786C389.193 66.2557 389.374 66.4846 389.662 66.4605C389.746 66.4605 389.831 66.4484 389.915 66.4364C390.119 66.4243 390.372 66.1834 390.384 65.8942C390.492 63.858 391.033 61.8821 391.839 60.0748C392.464 58.6892 394.1 57.5928 395.351 57.2314C396.397 56.9181 395.952 55.8217 395.555 55.653Z" fill="#FFE8AD"/>
<path d="M72.3227 182.181C68.1856 180.326 66.8507 178.35 65.8044 173.723C65.7683 173.578 65.7081 173.482 65.636 173.41C65.3955 172.952 64.3492 172.663 64.3973 173.747C64.6137 178.687 62.8458 181.494 59.3582 183.458C58.805 183.771 58.8771 184.808 59.6829 184.868C61.3786 185 62.9902 185.976 64.1447 187.579C64.6498 188.278 65.0347 189.121 65.3113 190.001C65.4436 190.446 65.5638 190.916 65.636 191.386C65.7081 191.808 65.7081 192.205 65.9126 192.507C65.9607 192.784 66.1411 193.013 66.4297 192.989C66.5139 192.989 66.5981 192.977 66.6823 192.964C66.8867 192.952 67.1393 192.711 67.1513 192.422C67.2596 190.386 67.8007 188.41 68.6065 186.603C69.2319 185.217 70.8675 184.121 72.1182 183.759C73.1645 183.446 72.7196 182.35 72.3227 182.181Z" fill="#FFE8AD"/>
<path d="M63.3468 115.51C60.7611 114.341 59.9192 113.112 59.2578 110.208C59.2337 110.112 59.1976 110.052 59.1495 110.015C58.9932 109.726 58.3438 109.546 58.3798 110.232C58.5121 113.329 57.4057 115.088 55.2289 116.317C54.8801 116.51 54.9283 117.16 55.4334 117.208C56.4917 117.293 57.5019 117.895 58.2235 118.907C58.5362 119.353 58.7887 119.871 58.9571 120.425C59.0413 120.702 59.1135 120.992 59.1616 121.293C59.1976 121.558 59.2097 121.811 59.3299 121.992C59.366 122.16 59.4743 122.305 59.6546 122.293C59.7028 122.293 59.7629 122.293 59.811 122.281C59.9433 122.281 60.0996 122.124 60.1117 121.943C60.1838 120.666 60.5206 119.425 61.0257 118.293C61.4225 117.425 62.4448 116.739 63.2265 116.51C63.8759 116.317 63.5993 115.63 63.3588 115.522L63.3468 115.51Z" fill="#FFE8AD"/>
<path d="M337.515 18.4792C332.716 16.1543 331.155 13.6864 329.926 7.90997C329.893 7.73113 329.81 7.60595 329.727 7.51653C329.445 6.94425 328.233 6.5687 328.282 7.94574C328.531 14.1156 326.472 17.6208 322.421 20.0887C321.773 20.4822 321.856 21.7698 322.786 21.8592C324.762 22.0201 326.638 23.2362 327.967 25.2392C328.548 26.1155 329.013 27.1706 329.328 28.2615C329.494 28.8159 329.627 29.4061 329.71 29.9962C329.793 30.5327 329.793 31.0156 330.026 31.3912C330.092 31.731 330.292 32.0171 330.624 31.9992C330.723 31.9992 330.823 31.9813 330.922 31.9634C331.155 31.9456 331.454 31.6415 331.47 31.2839C331.587 28.7265 332.218 26.2586 333.164 24.0052C333.895 22.2705 335.804 20.9114 337.249 20.4464C338.461 20.0529 337.946 18.6938 337.498 18.4613L337.515 18.4792Z" fill="#FFE8AD"/>
</g>
<defs>
<clipPath id="clip0_328_5220">
<rect width="460" height="256" fill="white"/>
</clipPath>
<clipPath id="clip1_328_5220">
<rect width="191" height="219" fill="white" transform="translate(141 17)"/>
</clipPath>
</defs>
</svg>
