<svg width="635" height="256" viewBox="0 0 635 256" fill="none" xmlns="http://www.w3.org/2000/svg">
<g clip-path="url(#clip0_328_5220)">
<g clip-path="url(#clip1_328_5220)">
<path d="M236.454 215.774C236.01 217.939 235.378 219.994 234.536 221.908C257.575 228.814 316.88 242.094 339.904 249C363.544 238.757 388.449 228.463 412.09 218.22C414.844 211.945 415.965 204.418 415.205 197.222C414.438 190.035 411.751 183.15 407.794 178.148C383.641 172.896 328.565 161.661 304.405 156.409C280.275 165.279 256.137 174.149 232 183.019C232.542 184.202 233.053 185.445 233.52 186.738C236.763 195.528 238.328 206.563 236.447 215.774H236.454Z" fill="#2D7A85"/>
<path d="M410.743 207.585C410.615 208.217 410.472 208.838 410.306 209.45C409.795 211.314 409.133 213.008 408.298 214.421C387.192 223.321 361.347 232.913 340.227 241.814C340.204 241.824 340.174 241.834 340.151 241.844L236.454 215.774C236.928 213.439 237.176 210.993 237.244 208.498C237.259 207.886 237.267 207.285 237.251 206.663C237.244 205.03 237.139 203.396 236.973 201.752C236.913 201.091 236.838 200.449 236.732 199.808C236.522 198.054 236.198 196.31 235.814 194.596C235.664 193.884 235.491 193.183 235.303 192.481C234.784 190.486 234.197 188.582 233.52 186.748C239.14 187.8 244.648 188.903 250.095 190.045C280.478 196.4 308.678 203.817 340.009 209.7C360.105 201.421 386.485 193.132 406.559 184.844C407.628 186.006 408.516 187.439 409.208 189.043C409.419 189.514 409.614 190.005 409.802 190.516C410.517 192.551 410.991 194.826 411.224 197.162C411.277 197.743 411.33 198.324 411.352 198.896C411.51 201.852 411.3 204.859 410.743 207.595V207.585Z" fill="#FDF9F7"/>
<path d="M410.743 207.585C410.615 208.217 410.472 208.838 410.307 209.45C409.795 211.314 409.133 213.008 408.298 214.421C387.193 223.321 361.347 232.913 340.227 241.814C340.212 239.599 339.527 237.353 338.511 235.559C337.044 232.963 334.945 231.139 332.853 229.445C307.738 208.949 279.003 198.505 250.088 190.035C280.47 196.39 308.671 203.807 340.001 209.69C360.098 201.411 386.478 193.122 406.552 184.833C407.621 185.996 408.508 187.429 409.201 189.033C409.411 189.504 409.607 189.995 409.795 190.506C410.51 192.541 410.984 194.816 411.217 197.152C411.27 197.733 411.322 198.314 411.345 198.886C411.503 201.842 411.292 204.849 410.736 207.585H410.743Z" fill="#C5CDEA"/>
<path d="M340.175 217.388H340.197C340.265 217.388 340.348 217.388 340.438 217.358C346.157 215.283 351.882 213.198 357.578 211.013C367.645 207.185 377.69 203.286 387.742 199.367C395.109 196.48 402.475 193.523 409.811 190.507C409.63 190.005 409.434 189.514 409.216 189.043C406.282 190.256 403.332 191.459 400.39 192.651C390.376 196.721 380.331 200.68 370.264 204.499C360.182 208.297 350.054 211.895 339.942 215.484C339.829 215.524 339.738 215.584 339.663 215.684C339.197 216.175 339.528 217.328 340.167 217.398L340.175 217.388Z" fill="#503357"/>
<path d="M341.115 233.645C341.176 233.645 341.243 233.645 341.303 233.625C347.059 231.761 352.815 229.856 358.556 227.872C368.691 224.374 378.811 220.826 388.924 217.237C396.072 214.702 403.197 212.116 410.315 209.44C410.473 208.828 410.616 208.207 410.751 207.575C407.742 208.698 404.717 209.821 401.707 210.953C391.61 214.692 381.497 218.3 371.362 221.768C361.22 225.256 351.017 228.493 340.837 231.741C340.724 231.771 340.634 231.841 340.559 231.931C340.069 232.422 340.416 233.685 341.123 233.645H341.115Z" fill="#503357"/>
<path d="M339.964 224.935C340.024 224.935 340.069 224.925 340.122 224.905C346.096 223.111 352.048 221.247 357.999 219.282C368.548 215.784 379.044 211.935 389.48 207.836C394.679 205.811 399.863 203.707 405.017 201.522C407.124 200.63 409.246 199.758 411.353 198.886C411.33 198.314 411.278 197.733 411.225 197.152C408.418 198.404 405.612 199.647 402.775 200.81C392.392 205.11 381.926 209.099 371.4 212.767C360.866 216.416 350.287 219.843 339.648 222.89C339.58 222.91 339.52 222.94 339.467 222.991C338.76 223.412 339.144 224.985 339.956 224.935H339.964Z" fill="#503357"/>
<path d="M235.303 192.471C235.491 193.163 235.664 193.874 235.814 194.586C254.151 199.086 274.624 204.118 277.919 204.819C288.25 207.054 298.596 209.239 308.934 211.374C319.287 213.509 329.648 215.524 340.024 217.388C340.069 217.388 340.129 217.388 340.174 217.388H340.197C340.821 217.278 340.866 215.894 340.136 215.764C339.986 215.734 339.82 215.704 339.662 215.684C333.944 214.642 328.241 213.559 322.522 212.467C312.162 210.472 301.809 208.367 291.478 206.102C285.052 204.689 257.627 197.963 235.303 192.471Z" fill="#503357"/>
<path d="M237.244 208.488C255.497 213.088 275.767 218.17 279.025 218.991C289.318 221.567 299.619 224.103 309.919 226.589C320.22 229.075 330.543 231.45 340.874 233.665C340.971 233.685 341.047 233.675 341.114 233.655H341.16C341.679 233.414 341.701 232.192 341.017 232.041C340.866 232.011 340.701 231.971 340.543 231.941C334.854 230.708 329.166 229.445 323.47 228.142C313.155 225.817 302.839 223.351 292.554 220.735C286.233 219.142 259.395 212.316 237.244 206.663C237.259 207.285 237.251 207.886 237.236 208.498L237.244 208.488Z" fill="#503357"/>
<path d="M236.74 199.798C236.838 200.439 236.913 201.081 236.973 201.742C254.249 206.132 272.141 210.673 275.271 211.505C285.948 214.331 296.662 216.787 307.414 219.002C312.772 220.114 318.129 221.147 323.493 222.109C328.911 223.061 334.313 224.133 339.746 224.955C339.813 224.955 339.889 224.965 339.941 224.955C339.979 224.955 340.009 224.935 340.054 224.925C340.679 224.655 340.731 223.201 339.949 223.081C339.798 223.051 339.633 223.041 339.482 223.011C333.546 222.119 327.624 221.297 321.71 220.194C310.928 218.19 300.191 215.875 289.492 213.218C283.247 211.665 258.425 205.401 236.74 199.808V199.798Z" fill="#503357"/>
<path d="M241.112 182.779C247.312 183.791 253.482 185.204 259.659 186.397C265.844 187.59 272.036 188.743 278.213 189.985C290.53 192.461 302.825 195.127 315.097 197.954C318.535 198.745 321.966 199.547 325.397 200.369C328.866 201.201 332.335 202.193 335.826 202.855C336.811 203.045 336.525 205.16 335.585 204.849C332.553 203.857 329.453 203.176 326.39 202.384C323.321 201.592 320.251 200.82 317.181 200.058C311.034 198.535 304.887 197.032 298.724 195.648C286.437 192.902 274.128 190.366 261.796 188.041C254.836 186.728 247.839 185.896 240.879 184.693C239.946 184.533 240.179 182.629 241.104 182.779H241.112Z" fill="#503357"/>
<path d="M388.435 184.693C390.376 183.932 392.31 183.16 394.251 182.398C396.268 181.596 398.276 180.534 400.331 179.942C401.151 179.712 401.482 181.225 400.692 181.606C398.984 182.448 397.163 182.929 395.41 183.571C393.596 184.232 391.798 184.944 389.992 185.625C386.471 186.969 382.957 188.292 379.444 189.665C372.378 192.421 365.321 195.237 358.256 198.034C354.283 199.607 350.325 201.201 346.33 202.654C345.555 202.935 345.216 201.381 345.984 201.071C353.019 198.174 360.129 195.598 367.209 192.902C374.29 190.216 381.37 187.49 388.427 184.693H388.435Z" fill="#503357"/>
<path d="M305.542 158.674C311.659 160.408 317.836 161.841 323.983 163.395C330.13 164.948 336.293 166.401 342.455 167.855C354.734 170.741 367.021 173.548 379.353 176.033C382.799 176.725 386.253 177.397 389.706 178.028C393.213 178.669 396.734 179.151 400.233 179.802C401.233 179.982 400.963 182.067 399.969 181.857C393.785 180.584 387.637 179.03 381.46 177.727C375.283 176.424 369.098 175.141 362.921 173.808C350.611 171.162 338.302 168.516 326.015 165.68C319.1 164.086 312.193 162.352 305.263 160.849C304.21 160.618 304.503 158.393 305.542 158.684V158.674Z" fill="#503357"/>
<path d="M245.731 178.158C280.169 184.844 314.607 191.519 349.038 198.204C369.902 188.181 391.993 180.454 412.865 170.431C412.361 169.659 411.834 168.647 411.307 167.494C409.532 163.595 407.839 158.113 407.884 154.655C407.914 151.818 408.448 148.992 409.411 146.466C409.968 145.013 410.668 143.66 411.48 142.467C380.812 136.102 350.159 126.761 319.483 120.396C295.03 129.146 269.553 138.287 245.092 147.027C240.299 155.827 241.104 169.218 245.731 178.168V178.158Z" fill="#9680BB"/>
<path d="M411.307 167.494C390.977 176.244 368.735 184.222 348.917 193.173C348.879 193.113 348.857 193.072 348.834 193.012C345.381 186.969 345.418 178.098 346.961 170.772C367.065 162.964 387.132 155.136 407.236 147.308C407.906 147.047 408.576 146.787 409.253 146.526C409.306 146.506 409.343 146.496 409.373 146.476C409.388 146.466 409.396 146.456 409.418 146.456H409.411C408.448 148.992 407.914 151.798 407.891 154.645C407.846 158.103 409.539 163.585 411.314 167.484L411.307 167.494Z" fill="#F8FDF7"/>
<path d="M407.236 147.318C407.906 147.057 408.576 146.797 409.253 146.536C405.98 147.959 353.552 171.042 348.917 193.173C348.879 193.112 348.857 193.072 348.834 193.012C345.381 186.968 345.418 178.098 346.961 170.771C367.065 162.964 387.132 155.136 407.236 147.308V147.318Z" fill="#C5CDEA"/>
<path d="M346.713 174.129C354.621 171.192 362.513 168.226 370.414 165.249C378.269 162.282 386.117 159.255 393.949 156.188C398.389 154.454 402.783 152.53 407.222 150.766C407.922 150.485 408.328 151.928 407.621 152.189C403.67 153.672 399.683 154.995 395.732 156.499C391.79 158.002 387.855 159.526 383.912 161.049C376.072 164.086 368.247 167.183 360.422 170.28C355.983 172.034 351.558 173.828 347.127 175.602C346.389 175.903 345.975 174.38 346.713 174.109V174.129Z" fill="#503357"/>
<path d="M346.788 181.305C354.62 178.319 362.438 175.292 370.255 172.235C378.065 169.178 385.943 166.361 393.693 163.054C398.072 161.19 402.444 159.295 406.823 157.421C407.59 157.09 408.027 158.694 407.259 158.984C403.324 160.428 399.389 161.841 395.461 163.294C391.534 164.738 387.644 166.311 383.746 167.905C375.966 171.092 368.171 174.229 360.384 177.366C355.982 179.141 351.596 180.975 347.201 182.789C346.472 183.09 346.058 181.586 346.788 181.315V181.305Z" fill="#503357"/>
<path d="M348.647 188.151C349.685 187.961 350.701 187.42 351.702 186.989L354.576 185.776C356.525 184.954 358.481 184.132 360.43 183.33C364.342 181.717 368.255 180.123 372.152 178.479C379.992 175.192 387.832 171.934 395.627 168.466C399.999 166.522 404.355 164.507 408.734 162.603C409.351 162.332 409.713 163.635 409.088 163.896C401.248 167.183 393.363 170.28 385.538 173.638C377.72 176.996 369.918 180.424 362.13 183.892C359.925 184.874 357.721 185.846 355.516 186.798C354.425 187.269 353.342 187.74 352.251 188.211C351.137 188.693 349.964 189.073 348.925 189.795C348.173 190.316 347.669 188.322 348.647 188.141V188.151Z" fill="#503357"/>
<path d="M249.321 147.609C250.878 147.719 252.405 148.14 253.948 148.44C255.483 148.741 257.025 149.052 258.56 149.353C261.638 149.964 264.715 150.575 267.785 151.187C273.864 152.389 279.951 153.602 286.031 154.805C298.303 157.231 310.575 159.656 322.846 162.052C329.738 163.395 336.623 164.728 343.508 166.121C344.237 166.271 344.042 167.765 343.312 167.624C331.07 165.239 318.851 162.703 306.617 160.267C294.345 157.822 282.081 155.386 269.809 152.951C266.385 152.269 262.954 151.598 259.531 150.916C257.815 150.575 256.107 150.235 254.392 149.894C252.646 149.543 250.878 149.343 249.163 148.771C248.598 148.581 248.756 147.579 249.313 147.609H249.321Z" fill="#503357"/>
<path d="M282.314 183.711C281.486 181.486 280.711 179.301 280.207 176.895C279.718 174.55 279.44 172.145 279.372 169.719C279.244 164.828 279.967 159.887 281.554 155.456C281.848 154.635 280.93 153.913 280.621 154.745C277.935 161.961 277.469 170.481 279.237 178.178C279.733 180.333 280.38 182.568 281.306 184.463C281.712 185.295 282.645 184.593 282.314 183.701V183.711Z" fill="#503357"/>
<path d="M291.38 185.495C291.215 184.302 290.763 183.11 290.5 181.937C290.252 180.814 290.041 179.682 289.868 178.539C289.514 176.194 289.326 173.798 289.304 171.403C289.259 166.562 289.936 161.801 291.245 157.291C291.523 156.318 290.334 155.898 290.064 156.88C288.785 161.55 288.175 166.562 288.205 171.523C288.22 173.999 288.408 176.485 288.747 178.92C288.92 180.153 289.138 181.366 289.402 182.568C289.65 183.701 289.868 185.034 290.357 186.036C290.703 186.758 291.493 186.317 291.38 185.485V185.495Z" fill="#503357"/>
<path d="M341.25 194.406C341.145 193.804 340.866 193.253 340.663 192.702C340.483 192.201 340.31 191.689 340.144 191.178C339.791 190.076 339.482 188.943 339.219 187.79C338.707 185.575 338.338 183.29 338.158 180.985C337.782 176.284 338.098 171.523 339.091 166.993C339.294 166.081 338.226 165.71 338.015 166.622C336.916 171.333 336.563 176.324 336.954 181.225C337.15 183.671 337.503 186.097 338.052 188.452C338.316 189.585 338.632 190.697 338.97 191.8C339.294 192.822 339.625 194.135 340.182 194.997C340.212 195.047 340.242 195.117 340.272 195.157C340.272 195.157 340.272 195.157 340.28 195.147C340.671 195.648 341.386 195.217 341.25 194.416V194.406Z" fill="#503357"/>
<path d="M334.81 190.055C334.547 188.963 334.321 187.86 334.14 186.738C333.764 184.453 333.576 182.127 333.553 179.792C333.516 175.161 334.148 170.501 335.465 166.211C335.758 165.259 334.712 164.437 334.404 165.409C332.951 169.919 332.199 174.76 332.214 179.672C332.222 182.117 332.417 184.563 332.786 186.958C332.974 188.161 333.207 189.344 333.486 190.516C333.621 191.058 333.757 191.599 333.915 192.14C334.08 192.732 334.193 193.373 334.644 193.684C334.968 193.904 335.329 193.694 335.442 193.233C335.577 192.661 335.382 192.21 335.231 191.679C335.081 191.148 334.938 190.607 334.802 190.055H334.81Z" fill="#503357"/>
<path d="M251.939 149.603C252.262 148.771 251.314 148.04 250.983 148.882C249.223 153.312 248.215 158.213 247.996 163.224C247.891 165.71 247.989 168.196 248.275 170.651C248.418 171.904 248.621 173.147 248.869 174.36C249.095 175.472 249.298 176.936 249.877 177.828C250.193 178.319 250.84 177.918 250.833 177.306C250.818 176.685 250.615 176.114 250.464 175.532C250.329 175.011 250.208 174.48 250.096 173.949C249.855 172.806 249.659 171.644 249.509 170.481C249.208 168.136 249.11 165.73 249.193 163.355C249.358 158.574 250.291 153.863 251.954 149.623L251.939 149.603Z" fill="#503357"/>
<path d="M257.048 178.529C255.648 174.059 254.632 169.509 254.354 164.647C254.076 159.856 254.429 155.025 255.407 150.405C255.603 149.463 254.512 149.082 254.309 150.024C253.255 154.835 252.857 159.897 253.143 164.898C253.421 169.829 254.264 174.931 255.942 179.371C256.318 180.373 257.356 179.511 257.048 178.529Z" fill="#503357"/>
<path d="M414.942 140.903C378.51 152.77 342.086 164.637 305.661 176.504C281.306 169.589 257.026 160.368 232.67 153.452C233.151 152.049 233.58 150.675 233.957 149.342C236.44 140.542 236.65 132.995 234.566 125.428C234.062 123.614 233.437 121.8 232.67 119.985C262.149 109.211 297.415 98.4963 326.895 87.7017C354.681 92.5026 383.995 97.3537 411.782 102.135C417.259 113.26 418.079 128.274 414.942 140.903Z" fill="#A9A5D2"/>
<path d="M388.758 122.431C391.926 128.104 392.43 136.072 390.007 142.336C373.439 145.644 356.992 149.944 340.732 155.206C340.612 152.319 340.318 149.443 339.852 146.606C339.521 144.591 338.911 142.467 339.062 140.372C339.393 135.671 343.614 135.451 346.45 134.589C355.464 131.852 364.486 129.206 373.53 126.651C376.065 125.929 378.601 125.227 381.144 124.516C381.919 124.305 388.465 121.89 388.766 122.431H388.758Z" fill="#CBCAEB"/>
<path d="M304.36 168.065C281.02 160.658 257.365 156.188 233.957 149.332C236.44 140.532 236.651 132.985 234.566 125.418C234.566 125.418 234.604 125.428 234.679 125.438C257.854 129.988 281.013 134.529 304.195 139.069C308.514 147.117 308.484 159.826 304.368 168.055L304.36 168.065Z" fill="#FDF9F7"/>
<path d="M304.36 168.065C305.571 139.881 237.651 126.23 234.679 125.448C257.853 129.998 281.012 134.539 304.194 139.079C308.513 147.127 308.483 159.836 304.367 168.065H304.36Z" fill="#C5CDEA"/>
<path d="M319.928 142.948C319.416 140.472 318.709 138.077 317.843 135.812C317.542 135.01 316.715 135.761 317.008 136.553C319.86 144.321 320.575 153.492 319.153 161.951C318.746 164.367 318.182 166.722 317.452 168.987C317.181 169.829 318.069 170.481 318.363 169.649C321.267 161.51 321.741 151.708 319.928 142.958V142.948Z" fill="#503357"/>
<path d="M325.668 140.793C325.405 139.52 325.096 138.257 324.728 137.024C324.562 136.473 324.382 135.922 324.201 135.37C323.945 134.619 323.795 134.198 323.2 134.017C323.185 134.017 323.17 134.017 323.163 134.037C322.967 134.639 322.99 134.879 323.155 135.501C323.298 136.042 323.479 136.573 323.629 137.114C323.923 138.157 324.186 139.219 324.419 140.292C324.886 142.457 325.217 144.672 325.405 146.917C325.774 151.357 325.623 155.847 324.908 160.197C324.502 162.653 323.9 165.018 323.411 167.434C323.291 168.045 323.893 168.235 324.103 167.784C325.864 163.966 326.481 159.044 326.707 154.554C326.94 149.924 326.586 145.243 325.668 140.783V140.793Z" fill="#503357"/>
<path d="M412.955 126.119C412.745 122.16 412.022 118.271 410.788 114.653C410.074 112.568 409.193 110.594 408.155 108.76C407.779 108.088 406.906 108.72 407.29 109.411C410.691 115.645 412.263 123.503 411.714 131.181C411.556 133.356 411.195 135.491 410.796 137.616C410.63 138.518 411.579 138.808 411.827 137.976C412.91 134.278 413.159 130.058 412.955 126.119Z" fill="#503357"/>
<path d="M407.012 128.545C406.884 124.255 406.177 120.036 404.883 116.097C404.153 113.881 403.242 111.797 402.166 109.852C401.768 109.121 401.008 110.063 401.384 110.784C404.875 117.399 406.305 125.819 405.492 133.807C405.379 134.95 405.206 136.082 404.995 137.195C404.785 138.317 404.521 139.38 404.416 140.532C404.348 141.254 405.116 141.515 405.387 140.943C406.229 139.189 406.5 136.924 406.734 134.879C406.982 132.785 407.065 130.65 407.004 128.525L407.012 128.545Z" fill="#503357"/>
<path d="M409.743 106.354C396.719 110.985 383.596 115.184 370.474 119.304C357.412 123.403 344.32 127.292 331.198 130.991C323.817 133.075 316.413 135.04 309.01 136.994C308.295 137.185 308.581 138.648 309.296 138.458C322.516 134.92 335.705 131.181 348.873 127.302C361.972 123.433 375.041 119.414 388.081 115.215C395.417 112.849 402.73 110.363 410.059 107.958C410.834 107.707 410.518 106.084 409.743 106.354Z" fill="#503357"/>
<path d="M306.775 161.029C302.118 160.117 297.49 158.864 292.87 157.722C288.243 156.589 283.616 155.446 278.981 154.314C269.794 152.059 260.607 149.804 251.42 147.538C246.206 146.255 241.014 144.712 235.77 143.619C235.198 143.499 234.942 144.642 235.537 144.812C240.134 146.125 244.799 147.077 249.434 148.18C254.069 149.272 258.696 150.455 263.323 151.598C272.51 153.863 281.697 156.138 290.884 158.403C296.098 159.686 301.35 160.839 306.519 162.372C307.181 162.573 307.43 161.17 306.783 161.039L306.775 161.029Z" fill="#503357"/>
<path d="M307.641 152.209C302.968 151.467 298.318 150.375 293.668 149.413C289.019 148.44 284.369 147.478 279.719 146.506C270.487 144.582 261.255 142.657 252.03 140.723C246.793 139.63 241.571 138.277 236.304 137.375C235.725 137.275 235.499 138.427 236.094 138.568C240.721 139.71 245.401 140.502 250.051 141.424C254.709 142.356 259.351 143.359 264.001 144.331C273.233 146.265 282.457 148.2 291.69 150.134C296.926 151.237 302.201 152.189 307.4 153.542C308.062 153.712 308.288 152.299 307.633 152.199L307.641 152.209Z" fill="#503357"/>
<path d="M306.986 145.473C302.396 144.341 297.784 143.349 293.187 142.266C288.589 141.184 284.007 140.071 279.402 139.029C270.2 136.944 260.991 134.959 251.759 133.145C249.193 132.644 246.62 132.143 244.054 131.622C241.421 131.091 238.81 130.469 236.184 129.868C235.514 129.718 235.379 131.01 236.064 131.111C238.404 131.461 240.736 131.782 243.068 132.233C245.393 132.684 247.718 133.145 250.036 133.626C254.641 134.589 259.245 135.591 263.85 136.583C272.992 138.558 282.119 140.642 291.23 142.827C296.407 144.06 301.546 145.524 306.708 146.867C307.392 147.047 307.671 145.634 306.986 145.463V145.473Z" fill="#503357"/>
<path d="M365.915 113.571C358.18 111.837 350.438 110.173 342.68 108.579C334.961 106.996 327.233 105.462 319.506 103.989C317.332 103.578 315.15 103.137 312.975 102.716C310.861 102.305 308.754 101.784 306.632 101.513C306.572 101.453 306.497 101.403 306.407 101.403C305.827 101.403 305.293 101.653 304.736 101.844C304.119 102.064 303.495 102.265 302.87 102.475C301.659 102.876 300.447 103.277 299.236 103.668C296.851 104.45 294.458 105.222 292.066 105.993C287.25 107.537 282.435 109.11 277.604 110.564C274.895 111.376 272.179 112.197 269.471 113.029C268.801 113.24 269.064 114.613 269.734 114.392C269.817 114.362 269.899 114.342 269.975 114.312C270.027 114.503 270.155 114.683 270.306 114.723C273.24 115.505 276.22 115.976 279.177 116.628C282.126 117.279 285.076 117.971 288.018 118.682C293.834 120.075 299.65 121.449 305.474 122.822C308.769 123.604 312.065 124.375 315.353 125.197C316.045 125.368 316.323 123.964 315.639 123.814C309.725 122.561 303.826 121.198 297.927 119.865C292.096 118.552 286.249 117.329 280.433 115.926C277.529 115.224 274.632 114.372 271.713 113.741C280.659 110.754 289.605 107.737 298.589 104.921C299.906 104.51 301.222 104.099 302.547 103.678C303.239 103.458 303.931 103.237 304.631 103.037C305.173 102.876 305.722 102.766 306.241 102.515C306.271 102.535 306.294 102.555 306.324 102.565C308.205 103.047 310.116 103.317 312.012 103.648C313.983 103.999 315.947 104.38 317.918 104.771C321.778 105.542 325.638 106.324 329.491 107.126C337.203 108.72 344.9 110.413 352.605 112.077C356.397 112.899 360.181 113.741 363.966 114.583C358.714 116.026 353.493 117.62 348.241 119.063C342.402 120.677 336.556 122.21 330.694 123.654C327.399 124.465 324.103 125.317 320.793 125.989C320.161 126.119 320.409 127.422 321.041 127.262C326.85 125.738 332.696 124.425 338.512 122.902C344.358 121.368 350.197 119.765 356.021 118.071C359.294 117.119 362.567 116.157 365.809 115.044C365.907 115.014 365.975 114.934 366.013 114.854C366.381 114.553 366.442 113.721 365.915 113.601V113.571Z" fill="#503357"/>
<path d="M389.42 132.093C389.202 129.357 388.698 126.711 387.893 124.175C387.847 124.035 387.772 123.954 387.689 123.914C387.561 123.614 387.328 123.403 387.012 123.503C375.237 127.091 363.469 130.7 351.694 134.288C348.391 135.29 345.08 136.303 341.777 137.305C341.393 137.425 341.333 137.916 341.476 138.277C341.469 138.347 341.461 138.427 341.476 138.508C341.852 141.364 342.093 144.241 342.153 147.137C342.183 148.54 342.176 149.954 342.123 151.357C342.101 152.079 342.056 152.81 342.018 153.532C341.98 154.213 341.86 154.925 341.988 155.587C342.025 155.777 342.138 155.897 342.259 155.967C342.379 156.188 342.575 156.328 342.831 156.258C354.388 152.78 365.945 149.352 377.517 145.975C380.752 145.032 383.987 144.08 387.23 143.138C387.945 142.928 387.652 141.474 386.944 141.685C375.387 145.163 363.838 148.651 352.266 151.998C349.203 152.88 346.134 153.772 343.071 154.654C343.094 154.374 343.109 154.083 343.124 153.802C343.177 153.031 343.207 152.259 343.222 151.487C343.259 149.994 343.244 148.49 343.192 146.997C343.086 144.16 342.823 141.334 342.379 138.558C354.064 135.05 365.749 131.552 377.434 128.054C380.677 127.081 383.92 126.109 387.163 125.137C387.787 127.462 388.224 129.888 388.382 132.343C388.464 133.606 388.487 134.879 388.442 136.142C388.419 136.814 388.374 137.495 388.314 138.167C388.254 138.808 388.111 139.44 388.231 140.071C388.329 140.602 388.826 140.612 389.036 140.211C389.307 139.69 389.315 139.029 389.375 138.417C389.442 137.706 389.488 136.984 389.518 136.272C389.57 134.879 389.54 133.476 389.427 132.093H389.42Z" fill="#503357"/>
<path d="M420.284 99.2182C386.508 110.374 352.725 121.509 318.949 132.654C297.445 125.408 274.895 120.597 253.391 113.35C253.835 112.509 254.286 111.436 254.723 110.223C256.205 106.114 257.484 100.431 257.191 97.0031C256.95 94.1867 256.213 91.4404 255.069 89.055C254.407 87.6818 253.617 86.429 252.714 85.3365C282.773 75.0029 312.591 61.6925 342.642 51.3589C367.622 56.8715 393.648 62.6447 418.628 68.1472C424.046 76.2758 424.226 89.7064 420.284 99.2182Z" fill="#E9B2BC"/>
<path d="M401.113 91.9517C402.076 97.8652 390.519 106.224 375.297 110.614C360.076 115.014 346.962 113.782 345.998 107.868C345.035 101.955 356.592 93.5954 371.814 89.2054C387.035 84.8053 400.15 86.0382 401.113 91.9517Z" fill="#F6D6DB"/>
<path d="M318.7 127.633C318.527 127.573 318.369 127.533 318.196 127.473C297.941 121.218 275.421 116.227 254.715 110.213C256.197 106.104 257.476 100.421 257.183 96.9931C256.942 94.1766 256.205 91.4304 255.061 89.0449C268.281 92.3625 281.486 95.6801 294.698 98.9976C302.802 101.022 310.898 103.067 319.001 105.092C321.1 112.248 321.777 121.148 318.7 127.633Z" fill="#FDF9F7"/>
<path d="M318.701 127.633C318.528 127.573 318.37 127.533 318.197 127.473C317.347 123.904 315.985 120.527 314.277 117.58C310.612 111.236 305.541 106.605 300.267 102.756C298.438 101.423 296.58 100.16 294.691 98.9976C302.795 101.022 310.891 103.067 318.994 105.091C321.094 112.248 321.771 121.148 318.693 127.633H318.701Z" fill="#C5CDEA"/>
<path d="M319.491 108.389C311.41 106.495 303.329 104.58 295.248 102.646C287.212 100.722 279.184 98.7271 271.156 96.7024C266.611 95.5598 262.097 94.2168 257.552 93.0441C256.83 92.8537 256.536 94.3471 257.259 94.5175C261.299 95.4796 265.362 96.2715 269.403 97.2537C273.435 98.2359 277.468 99.2382 281.501 100.241C289.53 102.235 297.543 104.3 305.556 106.354C310.101 107.527 314.638 108.72 319.182 109.923C319.935 110.123 320.243 108.56 319.483 108.379L319.491 108.389Z" fill="#503357"/>
<path d="M319.942 115.545C311.929 113.591 303.923 111.596 295.917 109.582C287.919 107.557 279.876 105.783 271.915 103.508C267.423 102.225 262.932 100.912 258.44 99.619C257.65 99.3885 257.334 101.052 258.124 101.233C262.142 102.155 266.167 103.057 270.185 103.979C274.203 104.911 278.19 105.964 282.178 107.036C290.154 109.191 298.137 111.296 306.128 113.401C310.642 114.593 315.141 115.836 319.648 117.069C320.393 117.269 320.694 115.726 319.949 115.545H319.942Z" fill="#503357"/>
<path d="M318.595 122.591C317.542 122.541 316.504 122.13 315.473 121.84L312.523 121.008C310.522 120.437 308.52 119.885 306.511 119.344C302.501 118.252 298.491 117.169 294.488 116.047C286.445 113.801 278.401 111.586 270.388 109.151C265.896 107.788 261.412 106.354 256.912 105.031C256.273 104.841 256.017 106.184 256.657 106.364C264.7 108.62 272.773 110.664 280.809 112.99C288.837 115.315 296.85 117.71 304.864 120.136C307.128 120.817 309.393 121.509 311.658 122.171C312.779 122.491 313.893 122.822 315.014 123.143C316.157 123.473 317.354 123.704 318.437 124.285C319.22 124.706 319.581 122.652 318.595 122.601V122.591Z" fill="#503357"/>
<path d="M414.46 69.2798C412.918 69.5905 411.428 70.2019 409.916 70.7131C408.411 71.2143 406.898 71.7254 405.394 72.2266L396.342 75.2535C390.375 77.248 384.416 79.2426 378.45 81.2371C366.419 85.2563 354.38 89.2655 342.341 93.2546C335.585 95.4897 328.828 97.7148 322.079 100C321.364 100.241 321.673 101.704 322.387 101.463C334.396 97.4943 346.367 93.3748 358.36 89.3557C370.391 85.3265 382.422 81.2872 394.454 77.2681C397.809 76.1455 401.173 75.0229 404.528 73.9004C406.206 73.3391 407.884 72.7778 409.57 72.2165C411.285 71.6452 413.031 71.2143 414.693 70.4124C415.243 70.1518 415.009 69.1696 414.46 69.2798Z" fill="#503357"/>
<path d="M328.437 110.103C328.226 108.429 327.978 106.535 327.376 105.021C327.12 104.39 326.488 104.841 326.556 105.462C326.736 107.056 327.143 108.62 327.331 110.223C327.526 111.887 327.609 113.581 327.594 115.275C327.579 116.918 327.474 118.552 327.263 120.176C327.158 120.978 327.03 121.77 326.879 122.561C326.721 123.373 326.473 124.055 326.661 124.877C326.759 125.308 327.105 125.378 327.346 125.127C327.858 124.596 327.933 123.794 328.083 122.982C328.241 122.11 328.377 121.228 328.482 120.346C328.685 118.632 328.783 116.898 328.775 115.164C328.768 113.481 328.648 111.787 328.444 110.123L328.437 110.103Z" fill="#503357"/>
<path d="M332.831 113.511C332.764 112.218 332.636 110.925 332.455 109.652C332.372 109.051 332.267 108.449 332.147 107.858C332.026 107.256 331.944 106.585 331.605 106.144C331.605 106.144 331.605 106.154 331.605 106.164C331.409 105.933 331.041 105.913 330.95 106.384C330.853 106.926 330.98 107.437 331.063 107.968C331.161 108.569 331.236 109.181 331.311 109.782C331.469 111.055 331.56 112.348 331.59 113.641C331.62 114.874 331.612 116.097 331.552 117.329C331.522 117.951 331.469 118.582 331.409 119.204C331.349 119.825 331.199 120.437 331.319 121.058C331.454 121.76 332.117 121.79 332.395 121.248C332.673 120.697 332.666 119.945 332.726 119.304C332.779 118.693 332.824 118.081 332.846 117.47C332.907 116.157 332.907 114.834 332.839 113.521L332.831 113.511Z" fill="#503357"/>
<path d="M337.052 111.707C336.947 110.784 336.804 109.862 336.616 108.96C336.435 108.068 336.232 107.056 335.848 106.274C335.555 105.693 335.081 106.104 335.051 106.565C335.051 106.565 335.05 106.565 335.043 106.565C335.043 106.575 335.043 106.585 335.043 106.605C335.043 106.635 335.043 106.655 335.051 106.685C335.126 107.557 335.336 108.409 335.479 109.261C335.622 110.103 335.735 110.965 335.81 111.827C335.893 112.689 335.938 113.561 335.946 114.423C335.961 115.365 335.893 116.297 335.901 117.229C335.901 117.65 336.119 117.981 336.405 118.101C336.525 118.151 336.631 118.131 336.751 118.101C336.962 118.051 337.202 117.75 337.232 117.46C337.421 115.575 337.263 113.571 337.044 111.707H337.052Z" fill="#503357"/>
<path d="M341.469 111.015C341.431 110.755 341.378 110.504 341.326 110.253C341.22 109.732 341.107 109.211 341.002 108.69C340.934 108.349 340.648 108.098 340.385 108.209C340.099 108.329 339.979 108.66 340.024 109.031C340.084 109.572 340.144 110.103 340.204 110.644C340.235 110.895 340.257 111.145 340.302 111.386C340.34 111.606 340.4 111.837 340.52 112.017C340.656 112.208 340.874 112.318 341.07 112.258C341.175 112.198 341.183 112.198 341.077 112.258L341.213 112.188C341.356 112.088 341.453 111.887 341.491 111.677C341.529 111.466 341.499 111.236 341.469 111.025V111.015Z" fill="#503357"/>
<path d="M417.537 79.8539C417.221 78.2102 416.852 76.356 416.145 74.9127C415.852 74.3113 415.25 74.8325 415.363 75.4439C415.648 77.0175 416.153 78.5209 416.446 80.0945C416.747 81.7282 416.943 83.4121 417.033 85.0959C417.123 86.7296 417.123 88.3834 417.025 90.0171C416.973 90.829 416.897 91.6308 416.8 92.4327C416.694 93.2646 416.491 93.9662 416.732 94.768C416.86 95.189 417.206 95.209 417.432 94.9384C417.913 94.347 417.928 93.5452 418.026 92.7133C418.131 91.8213 418.207 90.9292 418.252 90.0372C418.342 88.3032 418.327 86.5693 418.207 84.8353C418.086 83.1515 417.861 81.4877 417.545 79.8539H417.537Z" fill="#503357"/>
<path d="M414.28 85.8475C414.122 84.5646 413.911 83.3017 413.648 82.0488C413.52 81.4575 413.377 80.8762 413.226 80.2948C413.068 79.7135 412.94 79.052 412.572 78.6511C412.572 78.6511 412.572 78.6611 412.572 78.6711C412.361 78.4607 411.992 78.4907 411.94 78.9618C411.872 79.5131 412.037 80.0042 412.158 80.5254C412.293 81.1167 412.414 81.7081 412.526 82.3094C412.767 83.5623 412.94 84.8352 413.061 86.1181C413.174 87.3409 413.249 88.5637 413.264 89.7965C413.271 90.428 413.264 91.0494 413.241 91.6808C413.219 92.3023 413.113 92.9337 413.271 93.5351C413.452 94.2166 414.114 94.1665 414.355 93.5952C414.596 93.0139 414.543 92.2622 414.558 91.6207C414.573 91.0093 414.573 90.3979 414.558 89.7765C414.528 88.4635 414.445 87.1405 414.287 85.8475H414.28Z" fill="#503357"/>
<path d="M410.111 86.9101C409.946 85.998 409.743 85.106 409.495 84.224C409.254 83.352 408.99 82.3698 408.554 81.6381C408.23 81.0969 407.779 81.5579 407.779 82.019C407.779 82.019 407.779 82.019 407.771 82.019C407.771 82.029 407.771 82.039 407.771 82.059C407.771 82.0891 407.779 82.1092 407.787 82.1392C407.914 83.0012 408.185 83.8231 408.381 84.655C408.577 85.4869 408.742 86.3288 408.885 87.1707C409.02 88.0227 409.126 88.8846 409.194 89.7466C409.269 90.6787 409.261 91.6209 409.329 92.553C409.359 92.974 409.592 93.2747 409.893 93.3649C410.014 93.405 410.119 93.3649 410.239 93.3248C410.45 93.2546 410.668 92.9239 410.676 92.6232C410.744 90.7288 410.45 88.7543 410.111 86.9201V86.9101Z" fill="#503357"/>
<path d="M406.244 90.0973C406.191 89.8467 406.123 89.6061 406.055 89.3556C405.913 88.8444 405.77 88.3433 405.627 87.8321C405.536 87.5013 405.235 87.2808 404.98 87.4212C404.701 87.5715 404.603 87.9223 404.671 88.2831C404.769 88.8143 404.867 89.3456 404.957 89.8768C405.002 90.1273 405.047 90.3679 405.107 90.6084C405.16 90.8289 405.235 91.0494 405.363 91.2098C405.514 91.3902 405.732 91.4704 405.928 91.3802C406.033 91.31 406.033 91.31 405.935 91.3802L406.063 91.29C406.198 91.1797 406.281 90.9592 406.304 90.7488C406.326 90.5283 406.281 90.3077 406.236 90.0973H406.244Z" fill="#503357"/>
<path d="M398.148 88.8244C394.785 85.0257 389.819 86.1784 385.959 87.7219C381.475 89.516 376.08 92.3725 371.543 89.2855C371.31 88.5939 370.339 88.7142 370.331 89.6563C370.316 91.1196 369.346 92.142 368.473 92.8035C367.344 93.6655 366.088 94.2167 364.839 94.6577C362.333 95.5397 359.752 95.9006 357.239 96.7325C355.012 97.4641 352.8 98.5666 350.987 100.491C349.301 102.275 347.601 105.332 348.481 108.329C348.91 109.772 349.858 110.855 350.912 111.456C351.574 111.827 352.258 112.017 352.966 112.118C353.688 112.218 354.478 112.328 355.178 112.027C355.584 111.847 355.599 111.085 355.178 110.915C354.583 110.674 353.966 110.764 353.342 110.734C352.687 110.694 352.04 110.584 351.408 110.344C350.4 109.953 349.384 109.041 349.031 107.657C348.225 104.51 350.934 101.614 352.725 100.311C356.923 97.2436 361.927 97.6546 366.404 95.7402C368.24 94.9584 370.67 93.6354 371.385 91.0595C373.04 92.0618 374.861 92.4326 376.674 92.2923C378.819 92.1219 380.858 91.2499 382.882 90.3679C386.877 88.634 391.587 86.1182 395.718 88.6239C397.268 89.5661 398.6 91.3301 398.6 93.7356C398.6 96.1912 397.396 98.4063 395.974 99.8295C393.069 102.746 389.134 103.087 385.658 103.598C381.776 104.169 377.735 105.102 374.756 108.7C374.417 108.429 373.996 108.249 373.665 108.118C373.018 107.858 372.325 107.758 371.648 107.738C370.181 107.687 368.714 108.088 367.314 108.66C364.274 109.913 361.25 111.837 358.007 110.754C357.3 110.524 357.081 111.847 357.728 112.178C360.716 113.701 363.868 111.857 366.697 110.584C368.097 109.953 369.556 109.351 371.046 109.371C371.708 109.381 372.355 109.512 372.987 109.782C373.619 110.053 374.259 110.795 374.929 110.634C374.936 110.634 374.944 110.624 374.959 110.614C375.139 110.644 375.32 110.564 375.47 110.323C377.908 106.314 382.129 105.633 385.741 105.242C389.443 104.841 393.476 104.5 396.598 101.493C398.133 100.01 399.412 97.9552 399.811 95.4295C400.21 92.9338 399.623 90.4581 398.148 88.7943V88.8244Z" fill="#503357"/>
<path d="M395.59 64.3785C396.064 65.8919 396.681 67.3052 397.426 68.5881C381.189 76.5663 339.069 93.8558 322.847 101.834C304.932 97.434 286.091 93.1642 268.169 88.7742C265.709 84.5746 264.354 79.2424 264.384 73.9203C264.422 68.5981 265.874 63.2559 268.387 59.1165C285.55 52.1806 324.75 36.9258 341.92 30C360.091 33.3376 378.269 36.6752 396.448 40.0129C396.139 40.935 395.861 41.9072 395.613 42.9095C393.897 49.715 393.559 57.9238 395.59 64.3785Z" fill="#4962D1"/>
<path d="M313.284 51.1582C317.369 49.3842 321.447 47.6001 325.533 45.826C327.655 44.9039 329.807 43.9718 332.034 43.8716C334.314 43.7713 336.563 44.5431 338.836 44.8037C341.108 45.0643 343.583 44.7235 345.321 42.749C344.855 42.0374 344.892 40.9148 345.246 40.0929C345.592 39.2711 346.187 38.6797 346.789 38.1786C347.406 37.6574 348.075 37.1763 348.805 37.1462C349.535 37.1161 350.325 37.6574 350.513 38.5895C350.746 39.7121 350.062 40.8146 349.339 41.4661C348.617 42.1176 347.752 42.6187 347.3 43.621C349.151 45.3349 351.273 46.5276 353.493 47.0889C347.172 49.9254 340.852 52.7619 334.532 55.5983C333.689 55.9792 332.824 56.3601 331.936 56.4202C330.898 56.4904 329.882 56.1195 328.859 55.869C327.211 55.458 325.525 55.3277 323.855 55.4981C322.922 55.5883 321.959 55.7888 321.169 56.4703C320.281 57.2421 319.724 58.525 319.009 59.5674C317.723 61.4417 315.834 62.5542 313.931 62.5642C313.284 62.5642 312.546 62.3838 312.2 61.6522C311.869 60.9606 312.027 59.9984 312.418 59.3569C312.802 58.7155 313.366 58.3145 313.916 57.9236C314.871 57.2521 315.827 56.5806 316.782 55.9191C317.136 55.6685 317.512 55.3979 317.708 54.9268C318.031 54.1651 317.723 53.1427 317.204 52.6015C316.684 52.0603 316.007 51.8798 315.36 51.7095" fill="#718EE3"/>
<path d="M394.484 59.1866C394.718 61.0007 395.071 62.7447 395.59 64.3684L322.14 96.6622C321.681 96.5619 321.222 96.4517 320.755 96.3414C305.03 92.7031 286.189 89.165 270.645 85.5167C269.937 84.6046 269.328 83.452 268.824 82.149C268.666 81.7281 268.515 81.2971 268.372 80.8561C267.77 78.9417 267.394 76.7768 267.304 74.6218C267.281 74.2009 267.266 73.7699 267.259 73.3389C267.259 71.615 267.447 69.9111 267.808 68.3275C267.913 67.9466 268.011 67.5557 268.139 67.1949C268.402 66.3329 268.741 65.5211 269.147 64.7794C269.328 64.4286 269.531 64.0978 269.749 63.7971C274.805 64.9397 280.366 65.9921 286.107 67.0145C297.596 69.0591 309.77 70.9936 319.913 73.2788C346.247 63.4864 369.263 52.6918 395.598 42.8994C395.244 44.3126 394.951 45.776 394.725 47.2794C394.642 47.8206 394.567 48.3519 394.507 48.9031C394.364 50.1961 394.251 51.499 394.221 52.812C394.198 53.2831 394.183 53.7642 394.198 54.2453C394.191 55.4581 394.244 56.6709 394.349 57.8435C394.371 58.2946 394.424 58.7356 394.484 59.1766V59.1866Z" fill="#FDF9F7"/>
<path d="M394.484 59.1866C394.717 61.0007 395.071 62.7447 395.59 64.3684L322.139 96.6621C316.301 80.385 278.146 67.5958 269.162 64.7894C269.343 64.4386 269.546 64.1078 269.764 63.8071C274.82 64.9497 280.381 66.0021 286.121 67.0245C297.611 69.0691 309.785 71.0036 319.927 73.2888C346.262 63.4964 369.278 52.7018 395.613 42.9094C395.259 44.3227 394.966 45.786 394.74 47.2894C394.657 47.8307 394.582 48.3619 394.522 48.9131C394.379 50.2061 394.266 51.5091 394.236 52.8221C394.213 53.2931 394.198 53.7742 394.213 54.2553C394.206 55.4681 394.258 56.6809 394.364 57.8535C394.386 58.3046 394.439 58.7456 394.499 59.1866H394.484Z" fill="#C5CDEA"/>
<path d="M320.357 78.9016C320.357 78.9016 320.349 78.9016 320.342 78.9016C320.289 78.9116 320.229 78.9216 320.161 78.9116C315.857 78.1398 311.546 77.358 307.25 76.5161C299.658 75.0327 292.074 73.4992 284.497 71.9356C278.936 70.793 273.369 69.5903 267.823 68.3374C267.921 67.9465 268.026 67.5657 268.147 67.1948C270.366 67.696 272.594 68.1971 274.821 68.6782C282.39 70.352 289.974 71.9256 297.566 73.409C305.165 74.8724 312.78 76.1753 320.387 77.4883C320.47 77.5084 320.545 77.5384 320.605 77.5986C320.981 77.8892 320.823 78.7713 320.364 78.9016H320.357Z" fill="#503357"/>
<path d="M320.853 90.829C320.808 90.839 320.763 90.849 320.718 90.829C316.399 90.2176 312.08 89.5761 307.769 88.8745C300.154 87.6417 292.547 86.3688 284.933 85.0658C279.561 84.1437 274.189 83.1815 268.831 82.1592C268.673 81.7382 268.523 81.3072 268.38 80.8562C270.652 81.2872 272.924 81.7081 275.197 82.1391C282.804 83.5624 290.411 84.8754 298.025 86.0881C305.647 87.3109 313.291 88.3533 320.928 89.3957C321.011 89.3957 321.086 89.4458 321.147 89.4959C321.538 89.7866 321.38 90.7488 320.861 90.8189L320.853 90.829Z" fill="#503357"/>
<path d="M321.056 84.364C321.01 84.364 320.98 84.364 320.935 84.364C316.466 83.8328 312.004 83.2415 307.542 82.58C299.619 81.3973 291.719 79.954 283.841 78.3202C279.914 77.5184 276.001 76.6564 272.096 75.7343C270.501 75.3535 268.898 75.0027 267.303 74.6318C267.281 74.2108 267.273 73.7799 267.266 73.3489C269.395 73.9001 271.524 74.4414 273.669 74.9225C281.524 76.7065 289.417 78.2601 297.332 79.5731C305.247 80.8761 313.185 81.9986 321.131 82.8405C321.184 82.8405 321.229 82.8606 321.266 82.8907C321.808 83.1112 321.643 84.2939 321.056 84.364Z" fill="#503357"/>
<path d="M394.732 47.2996C394.65 47.8308 394.574 48.362 394.514 48.9032C381.52 54.5361 367.013 60.8204 364.673 61.7626C357.33 64.7093 349.979 67.636 342.62 70.5126C335.254 73.3991 327.873 76.1955 320.469 78.8917C320.439 78.9017 320.394 78.9117 320.356 78.9117C320.356 78.9117 320.351 78.9117 320.341 78.9117C319.882 78.9117 319.747 77.9195 320.266 77.729C320.379 77.6889 320.492 77.6489 320.605 77.6088C324.683 76.1154 328.746 74.6019 332.824 73.0684C340.205 70.282 347.571 67.4255 354.915 64.4487C359.482 62.5945 378.917 54.1853 394.732 47.3096V47.2996Z" fill="#503357"/>
<path d="M394.484 59.1865C381.557 64.8795 367.201 71.1839 364.891 72.1962C357.6 75.3935 350.302 78.5608 343.004 81.6879C335.698 84.8151 328.377 87.872 321.033 90.8087C320.965 90.8388 320.905 90.8388 320.853 90.8288H320.815C320.424 90.7286 320.311 89.8365 320.8 89.6461C320.913 89.606 321.026 89.5559 321.138 89.5158C325.186 87.8821 329.219 86.2383 333.267 84.5645C340.588 81.5476 347.902 78.4305 355.185 75.2031C359.662 73.2286 378.66 64.8194 394.341 57.8635C394.371 58.3146 394.424 58.7556 394.476 59.1966L394.484 59.1865Z" fill="#503357"/>
<path d="M394.221 52.812C394.198 53.2931 394.183 53.7642 394.19 54.2553C381.964 59.6677 369.286 65.2705 367.073 66.2727C359.527 69.7006 351.912 72.8578 344.268 75.8546C340.453 77.3581 336.646 78.7913 332.809 80.1745C328.941 81.5677 325.096 83.031 321.206 84.334C321.154 84.344 321.109 84.364 321.063 84.354C321.041 84.354 321.011 84.354 320.981 84.354C320.507 84.2338 320.364 83.1914 320.928 83.0009C321.041 82.9608 321.154 82.9308 321.267 82.8907C325.518 81.4775 329.754 80.1143 333.975 78.5608C341.664 75.7143 349.294 72.6573 356.871 69.3498C361.295 67.4154 378.871 59.6677 394.221 52.822V52.812Z" fill="#503357"/>
<path d="M351.122 45.6858C350.024 45.4652 348.948 45.0643 347.917 44.5231C347.421 44.2625 346.593 43.9117 346.164 43.3304C346.728 42.9996 347.285 42.6087 347.819 42.1577C348.293 41.7568 348.752 41.3158 349.196 40.8547C349.52 40.5139 349.986 40.1431 350.144 39.6019C350.265 39.1909 350.212 38.7198 349.941 38.4492C349.58 38.0884 349.046 38.2989 348.654 38.4492C347.413 38.9103 344.922 40.6743 345.141 42.7791C344.057 43.2803 342.936 43.6311 341.792 43.8215C339.212 44.2425 336.601 43.9117 334.05 43.2502C333.734 42.3682 331.642 43.6411 331.251 43.8215C328.618 45.0242 325.947 46.1067 323.283 47.1792C320.213 48.412 317.166 49.7149 314.119 51.0279C313.652 51.2284 313.72 52.0202 314.036 52.2708C314.096 52.4312 314.209 52.5514 314.375 52.5715C315.42 52.6617 316.534 52.7519 317.497 53.3232C317.956 53.5938 318.438 53.9747 318.716 54.546C318.814 54.7364 318.859 54.9369 318.881 55.1273C317.55 55.5282 316.241 56.0795 315.007 56.8412C313.818 57.5729 312.659 58.485 311.673 59.6476C311.32 60.0686 311.026 60.6499 311.252 61.2914C311.53 62.0832 312.215 61.8226 312.727 61.7023C313.946 61.4117 315.119 60.9105 316.218 60.1387C317.316 59.357 318.52 58.2945 319.265 56.9414C319.416 56.6608 319.514 56.3802 319.581 56.1095C320.74 55.7988 321.914 55.6084 323.103 55.5282C324.419 55.438 325.743 55.4581 327.053 55.6786C328.422 55.9191 329.686 56.4203 330.98 57.0216C331.575 57.3023 331.943 55.9291 331.349 55.6285C328.67 54.2252 325.54 54.105 322.704 54.3956C321.68 54.5059 320.657 54.6763 319.641 54.9269C319.529 54.0849 319.092 53.3132 318.445 52.7719C317.64 52.0803 316.707 51.8097 315.766 51.6794C320.62 49.3541 325.518 47.129 330.506 45.3951C331.183 45.1646 331.861 44.9541 332.538 44.7436C332.876 44.6333 333.441 44.5732 333.779 44.2625C337.549 45.2949 341.755 45.5855 345.412 43.7714C345.419 43.7914 345.427 43.8115 345.442 43.8315C345.758 44.4229 346.277 44.7937 346.751 45.1245C347.338 45.5454 347.94 45.8862 348.564 46.1769C349.181 46.4575 349.813 46.6981 350.453 46.8685C350.724 46.9386 350.994 46.9887 351.265 47.0489C350.746 47.2694 350.272 47.55 350.107 47.6202C347.473 48.8229 344.802 49.9054 342.139 50.9778C339.069 52.2106 336.021 53.5136 332.974 54.8266C332.357 55.0972 332.666 56.3902 333.275 56.0995C338.572 53.5437 343.929 51.068 349.384 49.1637C350.061 48.9332 350.739 48.7227 351.416 48.5122C351.777 48.402 352.409 48.3418 352.74 47.9509C353.116 48.0111 353.515 47.6202 353.455 46.9587C353.327 45.6256 351.815 45.8862 351.115 45.7359L351.122 45.6858ZM318.453 56.5205C317.083 58.5852 314.924 59.9884 312.945 60.6599C312.802 60.7101 312.193 60.9807 312.132 60.7602C312.072 60.5196 312.471 60.229 312.629 60.0786C313.05 59.6577 313.479 59.2668 313.931 58.9059C314.849 58.1743 315.819 57.5729 316.827 57.0918C317.384 56.8212 317.956 56.6007 318.528 56.4102C318.505 56.4503 318.483 56.4904 318.46 56.5305L318.453 56.5205ZM346.029 41.837C346.518 40.6843 347.616 39.8825 348.519 39.4515C348.7 39.3613 349.068 39.1408 349.264 39.1609C349.738 39.221 349.422 39.642 349.249 39.8424C348.797 40.3736 348.301 40.8247 347.782 41.2155C347.165 41.6766 346.525 42.0575 345.878 42.3982C345.893 42.2279 345.938 42.0374 346.021 41.837H346.029Z" fill="#503357"/>
<path d="M389.812 41.0051C385.38 42.5386 381.001 44.3627 376.599 46.0265C372.19 47.6903 367.781 49.3241 363.38 51.0179C354.614 54.4057 345.878 57.9237 337.166 61.552C334.728 62.5643 332.29 63.5966 329.86 64.629C327.399 65.6814 324.954 66.8441 322.463 67.7762C321.764 68.0368 322.117 69.5402 322.779 69.1994C324.909 68.0869 327.113 67.1949 329.28 66.2226C331.455 65.2504 333.629 64.2882 335.804 63.3461C340.16 61.4517 344.517 59.5674 348.896 57.7733C357.616 54.1952 366.382 50.7674 375.17 47.4999C380.128 45.6557 385.147 44.1422 390.128 42.3782C390.797 42.1377 390.489 40.7846 389.819 41.0151L389.812 41.0051Z" fill="#503357"/>
<path d="M282.924 61.3615C281.457 61.0508 279.997 60.7501 278.53 60.4394C277.002 60.1187 275.475 59.6075 273.933 59.4371C273.316 59.377 273.188 60.5096 273.79 60.7C275.091 61.0909 276.453 61.2112 277.77 61.4517C279.132 61.7023 280.494 61.9829 281.856 62.2536C284.512 62.7747 287.16 63.2859 289.809 63.8271C295.143 64.9196 300.47 66.0522 305.805 67.1748C308.799 67.8062 311.794 68.4477 314.804 68.999C315.383 69.0992 315.518 67.9265 314.939 67.7962C309.62 66.6035 304.262 65.6413 298.928 64.5989C293.586 63.5565 288.251 62.4841 282.916 61.3715L282.924 61.3615Z" fill="#503357"/>
<path d="M341.258 31.7841C336.94 33.8287 332.56 35.6629 328.204 37.5873C323.848 39.5117 319.476 41.3559 315.105 43.2101C306.399 46.8885 297.671 50.5068 288.898 53.9046C286.445 54.8567 283.985 55.7788 281.517 56.6809C279.019 57.593 276.498 58.4048 274 59.3269C273.285 59.5875 273.632 61.0609 274.339 60.7903C278.74 59.0663 283.089 57.152 287.483 55.408C291.878 53.664 296.279 51.9301 300.666 50.1761C309.416 46.668 318.167 43.16 326.88 39.5117C331.786 37.457 336.684 35.3221 341.604 33.3276C342.349 33.0269 341.973 31.4433 341.243 31.7941L341.258 31.7841Z" fill="#503357"/>
<path d="M409.411 146.466H409.404C409.404 146.466 409.389 146.476 409.366 146.486C409.381 146.476 409.389 146.466 409.411 146.466Z" fill="#F8FDF7"/>
</g>
<path d="M522.36 186.84C514.893 186.84 500.28 188.12 478.52 190.68L440.44 164.76C440.44 159.64 450.467 139.16 470.52 103.32C490.787 67.2667 506.68 42.9467 518.2 30.36L571 35.48C565.88 75.5867 562.68 114.307 561.4 151.64L581.88 153.56L577.4 187.16H560.76C560.76 211.48 561.293 231.96 562.36 248.6L523.96 245.4C522.893 230.253 522.36 210.733 522.36 186.84ZM488.12 153.56C498.787 152.067 510.307 151.32 522.68 151.32C524.173 123.16 526.733 96.8133 530.36 72.28C512.227 103.64 498.147 130.733 488.12 153.56Z" fill="#FFCA41"/>
<path d="M139.36 186.84C131.893 186.84 117.28 188.12 95.52 190.68L57.44 164.76C57.44 159.64 67.4667 139.16 87.52 103.32C107.787 67.2667 123.68 42.9467 135.2 30.36L188 35.48C182.88 75.5867 179.68 114.307 178.4 151.64L198.88 153.56L194.4 187.16H177.76C177.76 211.48 178.293 231.96 179.36 248.6L140.96 245.4C139.893 230.253 139.36 210.733 139.36 186.84ZM105.12 153.56C115.787 152.067 127.307 151.32 139.68 151.32C141.173 123.16 143.733 96.8133 147.36 72.28C129.227 103.64 115.147 130.733 105.12 153.56Z" fill="#FFCA41"/>
<path d="M218.272 69.6406C212.331 66.9659 210.419 64.1345 208.904 57.4837C208.856 57.2668 208.76 57.1343 208.651 57.0379C208.303 56.3753 206.811 55.9536 206.871 57.5199C207.172 64.6044 204.646 68.6527 199.631 71.472C198.826 71.9298 198.946 73.4118 200.088 73.5082C202.53 73.701 204.851 75.0865 206.499 77.3998C207.22 78.4119 207.785 79.6047 208.17 80.8819C208.363 81.5204 208.531 82.1951 208.639 82.8699C208.735 83.4843 208.748 84.0506 209.024 84.4844C209.096 84.882 209.349 85.2073 209.758 85.1711C209.878 85.1711 209.998 85.147 210.119 85.135C210.419 85.1109 210.78 84.7735 210.804 84.3639C210.96 81.4361 211.73 78.5927 212.897 76.0022C213.799 74.0142 216.156 72.4359 217.948 71.9057C219.451 71.46 218.814 69.8816 218.248 69.6286L218.272 69.6406Z" fill="#FFE8AD"/>
<path d="M484.79 209.716C478.849 207.042 476.937 204.21 475.421 197.559C475.373 197.343 475.277 197.21 475.169 197.114C474.82 196.451 473.329 196.029 473.389 197.596C473.69 204.68 471.164 208.728 466.149 211.548C465.343 212.006 465.464 213.487 466.606 213.584C469.047 213.777 471.369 215.174 473.016 217.476C473.738 218.488 474.303 219.68 474.688 220.958C474.88 221.596 475.049 222.271 475.157 222.946C475.253 223.56 475.265 224.126 475.542 224.56C475.614 224.958 475.866 225.283 476.275 225.247C476.396 225.247 476.516 225.223 476.636 225.211C476.937 225.187 477.298 224.849 477.322 224.44C477.478 221.512 478.248 218.668 479.414 216.078C480.316 214.09 482.673 212.512 484.465 211.981C485.969 211.536 485.331 209.957 484.766 209.704L484.79 209.716Z" fill="#FFE8AD"/>
<path d="M478.551 76.653C474.414 74.7975 473.079 72.8216 472.033 68.195C471.997 68.0504 471.937 67.954 471.865 67.8817C471.624 67.4239 470.578 67.1347 470.626 68.2191C470.842 73.1589 469.074 75.9662 465.587 77.9301C465.033 78.2434 465.106 79.2796 465.911 79.3398C467.607 79.4724 469.219 80.4483 470.373 82.0507C470.878 82.7495 471.263 83.5929 471.54 84.4725C471.672 84.9183 471.792 85.3882 471.865 85.858C471.937 86.2797 471.949 86.6773 472.141 86.9786C472.189 87.2557 472.37 87.4846 472.658 87.4605C472.742 87.4605 472.827 87.4484 472.911 87.4364C473.115 87.4243 473.368 87.1834 473.38 86.8942C473.488 84.858 474.029 82.8821 474.835 81.0748C475.46 79.6892 477.096 78.5928 478.347 78.2314C479.393 77.9181 478.948 76.8217 478.551 76.653Z" fill="#FFE8AD"/>
<path d="M128.319 216.181C124.182 214.326 122.847 212.35 121.8 207.723C121.764 207.578 121.704 207.482 121.632 207.41C121.392 206.952 120.345 206.663 120.393 207.747C120.61 212.687 118.842 215.494 115.354 217.458C114.801 217.771 114.873 218.808 115.679 218.868C117.375 219 118.986 219.976 120.141 221.579C120.646 222.278 121.031 223.121 121.307 224.001C121.44 224.446 121.56 224.916 121.632 225.386C121.704 225.808 121.704 226.205 121.909 226.507C121.957 226.784 122.137 227.013 122.426 226.989C122.51 226.989 122.594 226.977 122.678 226.964C122.883 226.952 123.135 226.711 123.147 226.422C123.256 224.386 123.797 222.41 124.603 220.603C125.228 219.217 126.864 218.121 128.114 217.759C129.161 217.446 128.716 216.35 128.319 216.181Z" fill="#FFE8AD"/>
<path d="M131.608 134.761C128.01 133.135 126.839 131.425 125.919 127.385C125.885 127.25 125.835 127.167 125.768 127.116C125.551 126.714 124.647 126.463 124.697 127.418C124.881 131.726 123.342 134.174 120.313 135.884C119.828 136.152 119.895 137.057 120.598 137.124C122.07 137.242 123.476 138.08 124.48 139.488C124.915 140.108 125.266 140.829 125.5 141.6C125.617 141.986 125.718 142.388 125.785 142.807C125.835 143.176 125.852 143.528 126.019 143.78C126.069 144.014 126.22 144.215 126.471 144.199C126.538 144.199 126.621 144.199 126.688 144.182C126.872 144.182 127.09 143.964 127.107 143.713C127.207 141.936 127.676 140.209 128.378 138.633C128.931 137.426 130.353 136.471 131.441 136.152C132.344 135.884 131.959 134.928 131.625 134.777L131.608 134.761Z" fill="#FFE8AD"/>
<path d="M420.511 39.4792C415.712 37.1543 414.151 34.6864 412.922 28.91C412.889 28.7311 412.806 28.6059 412.723 28.5165C412.441 27.9443 411.229 27.5687 411.278 28.9457C411.528 35.1156 409.469 38.6208 405.417 41.0887C404.769 41.4822 404.852 42.7698 405.782 42.8592C407.758 43.0201 409.635 44.2362 410.963 46.2392C411.544 47.1155 412.009 48.1706 412.325 49.2615C412.491 49.8159 412.623 50.4061 412.706 50.9962C412.789 51.5327 412.789 52.0156 413.022 52.3912C413.088 52.731 413.288 53.0171 413.62 52.9992C413.719 52.9992 413.819 52.9813 413.919 52.9634C414.151 52.9456 414.45 52.6415 414.467 52.2839C414.583 49.7265 415.214 47.2586 416.16 45.0052C416.891 43.2705 418.8 41.9114 420.245 41.4464C421.457 41.0529 420.942 39.6938 420.494 39.4613L420.511 39.4792Z" fill="#FFE8AD"/>
</g>
<defs>
<clipPath id="clip0_328_5220">
<rect width="635" height="256" fill="white"/>
</clipPath>
<clipPath id="clip1_328_5220">
<rect width="191" height="219" fill="white" transform="translate(232 30)"/>
</clipPath>
</defs>
</svg>
