<?xml version="1.0" encoding="UTF-8"?>
<svg id="Layer_2" data-name="Layer 2" xmlns="http://www.w3.org/2000/svg" viewBox="0 0 455.91 465.53">
  <defs>
    <style>
      .cls-1 {
        fill: none;
        stroke: #fff;
        stroke-miterlimit: 10;
      }
    </style>
  </defs>
  <g id="Capa_1" data-name="Capa 1">
    <g>
      <path class="cls-1" d="M154.4,24.02s.08-.02-.07,.01h0s.07-.01,.07-.01Z"/>
      <polygon class="cls-1" points="154.34 24.03 154.32 24.03 154.33 24.03 154.34 24.03"/>
      <path class="cls-1" d="M391.39,323.06l61.32-118.56L172.92,5.62l-7.97,14.64c.6-.28,1.21-.57,1.8-.87,.78-.39,1.59-.81,2.3-1.21l.03-.02c.68-.38,1.48-.39,2.07,.03L437.55,206.57c.3-.05,.61-.02,.89,.13,.74,.39,.99,1.39,.56,2.23l-58.6,115.65-30.65,60.5c-5.21,10.26-10.44,20.57-15.78,30.9l-16.13,31.32-.07,.15c-.19,.36-.45,.68-.79,.93-1.18,.87-2.31,1.82-3.55,2.6-1.21,.81-2.44,1.59-3.72,2.24-1.25,.73-2.58,1.24-3.88,1.83-1.32,.46-2.64,1-3.99,1.31-1.34,.4-2.68,.6-4.03,.84-1.34,.14-2.68,.3-4.01,.29-1.34,.05-2.64-.07-3.94-.18-.35-.04-.69-.09-1.04-.14l-.42,.85-2.9-1.47h0c-1.07-.27-2.14-.54-3.17-.91-1.21-.39-2.39-.87-3.54-1.37-2.31-1.02-4.51-2.24-6.61-3.63-1.59-1.06-3.1-2.23-4.57-3.46l-3.45,6.72c3.97,2.86,8.3,5.17,12.82,6.98,1.29,.51,2.6,.96,3.92,1.39,1.33,.4,2.66,.77,4.03,1.07,1.36,.29,2.73,.57,4.13,.73,1.38,.21,2.79,.29,4.2,.36l2.13,.03,2.14-.11c1.42-.14,2.86-.25,4.29-.56,1.43-.23,2.85-.64,4.27-1.02,1.41-.5,2.83-.93,4.2-1.59,1.4-.55,2.73-1.33,4.09-2.04,1.3-.84,2.65-1.59,3.89-2.57,.63-.47,1.27-.92,1.89-1.42l1.81-1.55c1.21-1,2.29-2.2,3.44-3.29l33.54-64.59,32.43-62.66Z"/>
      <path class="cls-1" d="M454.95,202.95h-.01S173.74,.82,173.74,.82c-.85-.61-2.13-.33-2.87,.62-.08,.1-.15,.21-.2,.31v.02s-11.52,20.86-11.52,20.86l-2.03,.67-2.43,.63-.3,.08h-.04s0,.01,0,.01c.15-.03,.02,0,.07-.01h-.07s-.01,.01-.01,.01h0l-.16,.02-.65,.11-1.29,.21-2.59,.44-5.19,.87c-1.68,.17-3.35,.28-5.03,.43l-2.51,.21c-.83,.07-1.67,.04-2.51,.07l-2.51,.04c-.85,.03-1.63-.04-2.44-.05h-.1c-.4-.01-.79,.1-1.14,.29l-8.19-5.7c-.1-.07-.25-.04-.34,.08,0,.01-.02,.03-.02,.04l-28.59,53.41-29.29,55.03-30.08,56.71L.83,244.74c-.56,1.06-.39,2.21,.34,2.8h0s30.71,24.78,30.71,24.78l-.06,.09,.67,.4,31.78,25.64c20.12,16.13,40.34,32.38,60.74,48.59l-.1,.17,1.12,.63c.87,.69,1.73,1.38,2.6,2.07l132.36,105.02h0c.83,.67,2.04,.4,2.81-.56,4.01,2.89,8.37,5.21,12.93,7.04,1.3,.51,2.62,.97,3.95,1.4,1.34,.4,2.69,.78,4.07,1.08,1.38,.29,2.76,.57,4.16,.73,1.4,.21,2.83,.29,4.25,.36l2.15,.03,2.16-.11c1.44-.14,2.89-.25,4.34-.57,1.44-.23,2.89-.65,4.33-1.03,1.43-.5,2.87-.95,4.26-1.61,1.42-.56,2.77-1.36,4.14-2.07,1.32-.85,2.69-1.61,3.95-2.6,.63-.48,1.29-.93,1.91-1.43l1.84-1.57c1.23-1.02,2.34-2.24,3.51-3.35,.02-.02,.03-.04,.05-.06h0s33.84-64.51,33.84-64.51l32.86-62.42,62.74-119.12c.3-.59,.17-1.28-.3-1.62Zm-129.54,247.36c-1.15,1.09-2.23,2.29-3.44,3.29l-1.81,1.55c-.62,.5-1.26,.94-1.89,1.42-1.24,.98-2.59,1.72-3.89,2.57-1.36,.71-2.69,1.49-4.09,2.04-1.38,.65-2.79,1.09-4.2,1.59-1.42,.38-2.84,.8-4.27,1.02-1.43,.31-2.87,.42-4.29,.56l-2.14,.11-2.13-.03c-1.41-.07-2.82-.15-4.2-.36-1.4-.16-2.77-.44-4.13-.73-1.36-.3-2.7-.68-4.03-1.07-1.32-.43-2.64-.88-3.92-1.39-4.52-1.81-8.85-4.12-12.82-6.98l3.45-6.72c1.47,1.23,2.98,2.4,4.57,3.46,2.1,1.39,4.3,2.61,6.61,3.63,1.16,.5,2.33,.99,3.54,1.37,1.03,.37,2.09,.65,3.17,.91h0s2.9,1.47,2.9,1.47l.42-.85c.35,.05,.69,.1,1.04,.14,1.3,.11,2.61,.23,3.94,.18,1.33,.02,2.67-.15,4.01-.29,1.35-.23,2.69-.44,4.03-.84,1.35-.31,2.66-.85,3.99-1.31,1.29-.6,2.63-1.1,3.88-1.83,1.28-.65,2.51-1.43,3.72-2.24,1.23-.78,2.37-1.72,3.55-2.6,.34-.25,.6-.57,.79-.93l.07-.15,16.13-31.32c5.34-10.33,10.57-20.64,15.78-30.9l30.65-60.5,58.6-115.65c.43-.84,.18-1.84-.56-2.23-.28-.15-.59-.18-.89-.13L171.16,18.19c-.59-.42-1.39-.41-2.07-.03l-.03,.02c-.72,.41-1.52,.82-2.3,1.21-.59,.3-1.2,.59-1.8,.87l7.97-14.64L452.71,204.5l-61.32,118.56-32.43,62.66-33.54,64.59ZM138.96,30.45L400.57,211.53,143.92,29.98c.19-.02,.39-.04,.58-.06l3.69-.64L409.24,209.75,152.69,28.5l.9-.16,.65-.12,.16-.03,.26-.05,.34-.09,2.19-.59L419.09,208.27,161.01,26.18c1.54-.6,3.07-1.23,4.58-1.92,0,0,0,0,0,0l-.93,1.33L426.55,206.2,167.25,23.46c.29-.14,.58-.28,.86-.43,.46-.23,.9-.47,1.36-.71L435.26,208.07c-.13,.08-.25,.17-.37,.25-.7,.39-1.39,.82-2.12,1.16-.74,.32-1.46,.71-2.23,.98l-2.28,.82-2.34,.63c-.78,.23-1.57,.4-2.37,.51l-2.38,.42c-.8,.14-1.6,.16-2.4,.24l-2.41,.2c-.81,.04-1.6,.02-2.41,.02-1.6,0-3.21,.06-4.79-.12-1.59-.14-3.2-.22-4.78-.41l-4.72-.75c-1.59-.2-3.12-.62-4.68-.98l-4.65-1.1-.84-.26c.15-.58-.03-1.18-.47-1.5L134.04,30.76c.81-.02,1.6-.01,2.42-.09l2.49-.23ZM62.4,242.95l-7.11-5.47,9.08-16.07-9.87,15.47-4.06-3.12,19.99-39.64,20.29-40.57,19.8-39.75,19.13-38.71,212.1,150.65-88.36,166.6-3.92-3.09,8.77-17.67-9.59,17.02-6.97-5.49,9.1-18.23-9.94,17.57-5.96-4.7,9.04-18.02-9.87,17.36-7.27-5.73,9.08-18.01-9.92,17.35-6.85-5.4,8.46-16.69-9.23,16.08-6.71-5.29,8.29-16.28-9.05,15.68-6.46-5.09,8.74-17.07-9.54,16.45-7.71-6.08,8.19-15.9-8.93,15.31-6.19-4.87,9.26-17.89-10.1,17.23-6.74-5.31,9.26-17.82-10.1,17.16-6.7-5.28,8.79-16.81-9.58,16.19-7.97-6.28,8.61-16.38-9.38,15.77-7.54-5.94,8.81-16.66-9.59,16.04-4.82-3.79c-.88-.7-1.77-1.39-2.66-2.08l8.06-15.17-8.78,14.61c-1.92-1.51-3.83-3.01-5.75-4.51l8.47-15.88-9.23,15.28c-1.66-1.3-3.32-2.6-4.98-3.9l8.5-15.86-9.25,15.27c-2.27-1.77-4.53-3.53-6.8-5.29l9.52-17.67-10.36,17.01c-1.59-1.24-3.18-2.47-4.77-3.71l8.72-16.13-9.5,15.53c-2.01-1.56-4.01-3.12-6.02-4.67l10.5-19.35-11.43,18.63c-2.3-1.78-4.59-3.56-6.88-5.34l10.24-18.78-11.15,18.07c-2.56-1.99-5.12-3.98-7.68-5.97l-.22-.17,9.09-16.56-9.89,15.94-6.15-4.73,8.76-15.89-9.53,15.3-6.91-5.32,9.34-16.85-10.16,16.22-7.1-5.46,9.28-16.65-10.09,16.03-6.02-4.64,10.28-18.37-11.17,17.68-6.21-4.78,9.97-17.74-10.84,17.08Zm169.17,138.52l-17,29.9-5.66-4.55,15.56-30.85,7.1,5.5Zm-30.65-23.73l-16.87,29.09-6.12-4.92,15.45-30,7.54,5.83Zm1.02,.79l6.28,4.86-16.9,29.28-4.86-3.91,15.48-30.23Zm7.26,5.62l6.53,5.06-16.93,29.48-5.1-4.1,15.51-30.43Zm7.53,5.83l6.68,5.17-16.96,29.68-5.25-4.22,15.53-30.64Zm.3,43.37l15.58-31.07,5.79,4.49-17.03,30.08-4.35-3.5Zm-97.75-118.99l-16.6,27.15c-1.48-1.18-2.96-2.36-4.44-3.54l15.28-28.14c1.92,1.51,3.84,3.01,5.76,4.52Zm1.02,.8c1.5,1.18,3.01,2.36,4.51,3.54l-16.59,27.24c-1.06-.85-2.13-1.7-3.19-2.55l15.26-28.23Zm5.61,4.4c2.18,1.71,4.36,3.42,6.54,5.12l-16.58,27.36c-1.74-1.39-3.47-2.77-5.21-4.16l15.25-28.32Zm35.45,27.56l-16.68,28.05-5.96-4.79,15.3-28.94,7.35,5.69Zm1.02,.79l7.78,6.02-16.73,28.28-6.38-5.13,15.33-29.16Zm8.82,6.82l6.51,5.04-16.76,28.47-5.11-4.11,15.37-29.4Zm7.58,5.87l6.55,5.07-16.8,28.67-5.15-4.14,15.39-29.61Zm7.63,5.9l6,4.64-16.83,28.86-4.59-3.69,15.43-29.81Zm37.45,72.33l15.61-31.26,6.81,5.27-17.06,30.29-5.35-4.3ZM66.68,252.84l-16.86,26.68-4.65-3.68,15.57-27.7,5.95,4.71Zm1.11,.88l5.75,4.56-16.8,26.71-4.46-3.53,15.52-27.74Zm6.78,5.37l6.81,5.4-16.75,26.75-5.53-4.38,15.47-27.77Zm7.86,6.23l6.62,5.25-16.7,26.8c-1.5-1.2-3.01-2.4-4.52-3.59l-.82-.65,15.41-27.8Zm7.63,6.04l5.86,4.64-16.66,26.85c-1.52-1.21-3.04-2.42-4.57-3.63l15.36-27.86Zm6.9,5.46c2.55,1.99,5.09,3.99,7.64,5.99l-16.63,26.96c-2.11-1.68-4.22-3.36-6.33-5.03l15.32-27.92Zm8.79,6.89c2.2,1.73,4.41,3.46,6.62,5.19l-16.61,27.06c-1.77-1.41-3.53-2.81-5.3-4.22l15.3-28.04Zm12.48,50.2l15.25-28.45c1.58,1.23,3.16,2.46,4.74,3.69l-16.59,27.48c-1.13-.91-2.26-1.82-3.39-2.72Zm21-23.97c1.84,1.43,3.68,2.86,5.52,4.29l-16.61,27.63c-1.39-1.11-2.78-2.23-4.16-3.34l15.25-28.58Zm6.49,5.05c.67,.52,1.33,1.04,2,1.56l5.27,4.08-16.64,27.83-4.17-3.35c-.57-.46-1.15-.92-1.72-1.38l15.27-28.73Zm230.92,7.52l-31.23,60.16c-5.29,10.21-10.6,20.47-15.87,30.83l-15.68,30.68c-.85,.66-1.69,1.37-2.58,1.95-.04,.03-.08,.05-.12,.08l110.45-223.45-114.72,224.75,1.21,.61s-.03,.02-.04,.02c-1.08,.67-2.22,1.12-3.32,1.67-.78,.28-1.56,.61-2.35,.88l110.82-223.46-114.95,224.51c-.14,.03-.29,.06-.43,.09-1.17,.14-2.33,.32-3.49,.33-1.01,.07-2.02,.01-3.02-.04l110.41-221.5-113.76,221.09c-.18-.03-.36-.06-.54-.09-1.13-.24-2.26-.49-3.36-.85-.28-.08-.55-.18-.82-.27l112.55-224.81-115.57,223.66c-1.94-.83-3.82-1.82-5.63-2.93,0,0-.01,0-.02-.01l1.46,.75,113.84-226.39-116.65,224.76c-1.2-.78-2.36-1.61-3.5-2.49l118.47-230.72,1.24,.39c1.57,.42,3.16,.79,4.73,1.18,1.59,.38,3.15,.82,4.78,1.04l4.85,.82c1.63,.21,3.28,.31,4.92,.47,1.64,.21,3.31,.16,4.98,.18,.84,0,1.67,.03,2.51,0l2.52-.19c.84-.08,1.68-.09,2.53-.23l2.53-.41c.84-.12,1.69-.28,2.53-.53l2.52-.65,2.5-.87c.82-.28,1.62-.7,2.43-1.05l-57.12,110.04Zm9.76-112.51l-124.49,239.42-6.52-5.24,27.08-55.42-29.6,53.39-5.32-4.28,25.87-52.66-28.27,50.73-5.42-4.36,27.31-55.31-29.84,53.27-5.53-4.44,15.63-31.47,5.21,4.03h.02c.87,.68,2.18,.35,2.91-.73,.06-.09,.12-.19,.17-.28l89.22-170.9h0c.37-.72,.2-1.55-.35-1.94L129.75,74.5c-.1-.07-.25-.03-.34,.08,0,.02-.02,.03-.02,.04l-20.41,38.53-20.69,39.39-21.07,40.24-17.14,33-22.95,35.8-5.35-4.23,28.36-49.73-30.79,47.81-5.63-4.45,28.83-50.29-31.3,48.34-5.63-4.45,29.39-56.92,29.28-57.05,28.35-55.43,27.26-53.62L386.4,210.02ZM45.55,235.32c.04,.53,.26,1,.65,1.31h.02s5.6,4.45,5.6,4.45l-16.97,26.6-5.3-4.19,16-28.18Zm7.26,6.55l6.84,5.42-16.91,26.64-5.55-4.39,15.63-27.67Z"/>
      <path class="cls-1" d="M389,208.19c.45,.31,.62,.91,.47,1.5l.84,.26,4.65,1.1c1.56,.35,3.09,.78,4.68,.98l4.72,.75c1.59,.19,3.19,.27,4.78,.41,1.59,.19,3.19,.11,4.79,.12,.81,0,1.6,.02,2.41-.02l2.41-.2c.8-.08,1.6-.1,2.4-.24l2.38-.42c.8-.12,1.59-.28,2.37-.51l2.34-.63,2.28-.82c.77-.27,1.48-.66,2.23-.98,.74-.34,1.43-.77,2.12-1.16,.12-.08,.25-.16,.37-.25L169.47,22.33c-.45,.24-.9,.48-1.36,.71-.29,.15-.58,.29-.86,.43L426.55,206.2,164.66,25.6l.93-1.33s0,0,0,0c-1.5,.69-3.03,1.32-4.58,1.92L419.09,208.27,157.19,27.46l-2.19,.59-.34,.09-.26,.05-.16,.03-.65,.12-.9,.16L409.24,209.75,148.19,29.28l-3.69,.64c-.19,.02-.39,.04-.58,.06L400.57,211.53,138.96,30.45l-2.49,.23c-.82,.08-1.62,.06-2.42,.09l254.96,177.43Z"/>
      <path class="cls-1" d="M154.34,24.03s0,0-.02,0h.02s0,0,0,0Z"/>
      <path class="cls-1" d="M428.82,214.4l-2.52,.65c-.84,.24-1.68,.41-2.53,.53l-2.53,.41c-.84,.14-1.68,.15-2.53,.23l-2.52,.19c-.84,.03-1.67,0-2.51,0-1.66-.02-3.34,.02-4.98-.18-1.64-.16-3.29-.26-4.92-.47l-4.85-.82c-1.63-.22-3.19-.67-4.78-1.04-1.58-.4-3.17-.76-4.73-1.18l-1.24-.39-118.47,230.72c1.14,.88,2.3,1.71,3.5,2.49l116.65-224.76-113.84,226.39-1.46-.75s.01,0,.02,.01c1.82,1.11,3.69,2.1,5.63,2.93l115.57-223.66-112.55,224.81c.27,.09,.55,.19,.82,.27,1.1,.36,2.23,.61,3.36,.85,.18,.04,.36,.06,.54,.09l113.76-221.09-110.41,221.5c1,.06,2,.11,3.02,.04,1.16-.01,2.33-.2,3.49-.33,.14-.03,.29-.06,.43-.09l114.95-224.51-110.82,223.46c.78-.27,1.56-.59,2.35-.88,1.11-.55,2.25-1,3.32-1.67,.01,0,.03-.02,.04-.02l-1.21-.61,114.72-224.75-110.45,223.45s.08-.05,.12-.08c.89-.58,1.72-1.29,2.58-1.95l15.68-30.68c5.27-10.36,10.59-20.62,15.87-30.83l31.23-60.16,57.12-110.04c-.81,.35-1.61,.76-2.43,1.05l-2.5,.87Z"/>
      <path class="cls-1" d="M51.82,241.08l-5.6-4.44h-.02c-.39-.32-.61-.79-.65-1.32l-16,28.18,5.3,4.19,16.97-26.6Z"/>
      <path class="cls-1" d="M72.36,297.37l16.7-26.8-6.62-5.25-15.41,27.8,.82,.65c1.5,1.2,3.01,2.4,4.52,3.59Z"/>
      <polygon class="cls-1" points="59.65 247.28 52.81 241.86 37.19 269.53 42.74 273.92 59.65 247.28"/>
      <path class="cls-1" d="M112.36,288.92c-2.21-1.73-4.41-3.46-6.62-5.19l-15.3,28.04c1.77,1.41,3.53,2.81,5.3,4.22l16.61-27.06Z"/>
      <path class="cls-1" d="M95.91,276.01l-5.86-4.64-15.36,27.86c1.52,1.21,3.04,2.42,4.57,3.63l16.66-26.85Z"/>
      <polygon class="cls-1" points="81.38 264.49 74.57 259.1 59.11 286.87 64.64 291.24 81.38 264.49"/>
      <path class="cls-1" d="M104.59,282.82c-2.55-2-5.09-4-7.64-5.99l-15.32,27.92c2.11,1.68,4.22,3.36,6.33,5.03l16.63-26.96Z"/>
      <polygon class="cls-1" points="73.54 258.28 67.79 253.72 52.27 281.46 56.73 284.99 73.54 258.28"/>
      <path class="cls-1" d="M119.91,21.55l-27.26,53.62-28.35,55.43-29.28,57.05L5.63,244.57l5.63,4.45,31.3-48.34-28.83,50.29,5.63,4.45,30.79-47.81-28.36,49.73,5.35,4.23,22.95-35.8,17.14-33,21.07-40.24,20.69-39.39,20.41-38.53s.01-.03,.02-.04c.09-.11,.24-.15,.34-.08l214.73,149.33c.56,.39,.72,1.22,.35,1.93h0s-89.22,170.91-89.22,170.91c-.05,.09-.11,.19-.17,.28-.74,1.08-2.05,1.42-2.91,.74h-.02s-5.21-4.04-5.21-4.04l-15.63,31.47,5.53,4.44,29.84-53.27-27.31,55.31,5.42,4.36,28.27-50.73-25.87,52.66,5.32,4.28,29.6-53.39-27.08,55.42,6.52,5.24,124.49-239.42L119.91,21.55Z"/>
      <polygon class="cls-1" points="206.45 404.84 223.42 375.16 216.74 369.99 201.21 400.63 206.45 404.84"/>
      <path class="cls-1" d="M124.83,298.71c-1.5-1.18-3.01-2.36-4.51-3.54l-15.26,28.23c1.06,.85,2.13,1.7,3.19,2.55l16.59-27.24Z"/>
      <path class="cls-1" d="M132.46,304.69c-2.18-1.71-4.36-3.42-6.54-5.12l-15.25,28.32c1.74,1.39,3.47,2.77,5.21,4.16l16.58-27.36Z"/>
      <polygon class="cls-1" points="170.17 333.94 162.39 327.92 147.06 357.08 153.44 362.22 170.17 333.94"/>
      <path class="cls-1" d="M144.74,314.25c-1.84-1.43-3.68-2.86-5.52-4.29l-15.25,28.58c1.39,1.11,2.78,2.22,4.16,3.34l16.61-27.63Z"/>
      <path class="cls-1" d="M136.34,348.47l16.64-27.83-5.27-4.08c-.67-.52-1.33-1.04-2-1.56l-15.27,28.73c.57,.46,1.15,.92,1.72,1.38l4.17,3.35Z"/>
      <polygon class="cls-1" points="177.71 339.78 171.21 334.74 155.84 364.14 160.95 368.25 177.71 339.78"/>
      <polygon class="cls-1" points="185.34 345.69 178.79 340.61 163.4 370.22 168.54 374.36 185.34 345.69"/>
      <polygon class="cls-1" points="215.74 369.22 209.21 364.16 193.7 394.59 198.81 398.7 215.74 369.22"/>
      <polygon class="cls-1" points="175.58 380.02 192.41 351.16 186.42 346.52 170.99 376.33 175.58 380.02"/>
      <polygon class="cls-1" points="208.23 363.4 201.95 358.54 186.47 388.78 191.33 392.68 208.23 363.4"/>
      <path class="cls-1" d="M138.21,309.17c-1.58-1.23-3.16-2.46-4.74-3.69l-15.25,28.45c1.13,.91,2.26,1.82,3.39,2.72l16.59-27.48Z"/>
      <polygon class="cls-1" points="238.42 386.77 232.62 382.29 217.04 413.36 221.39 416.86 238.42 386.77"/>
      <polygon class="cls-1" points="246.28 392.86 239.47 387.59 223.87 418.85 229.22 423.15 246.28 392.86"/>
      <path class="cls-1" d="M98.26,317.98c1.48,1.18,2.96,2.36,4.44,3.54l16.6-27.15c-1.92-1.51-3.84-3.02-5.76-4.52l-15.28,28.14Z"/>
      <polygon class="cls-1" points="208.92 406.83 214.57 411.37 231.57 381.48 224.47 375.98 208.92 406.83"/>
      <polygon class="cls-1" points="177.94 381.92 184.06 386.84 200.93 357.75 193.39 351.92 177.94 381.92"/>
      <polygon class="cls-1" points="138.72 350.38 144.69 355.18 161.37 327.13 154.02 321.44 138.72 350.38"/>
      <polygon class="cls-1" points="45.16 275.84 49.82 279.52 66.68 252.84 60.73 248.13 45.16 275.84"/>
      <path class="cls-1" d="M69.48,248.4l11.17-17.68-10.28,18.37,6.02,4.64,10.09-16.03-9.28,16.65,7.1,5.46,10.16-16.22-9.34,16.85,6.91,5.32,9.53-15.3-8.76,15.89,6.15,4.73,9.89-15.94-9.09,16.56,.22,.17c2.55,1.99,5.12,3.98,7.68,5.97l11.15-18.07-10.24,18.78c2.29,1.78,4.58,3.56,6.88,5.34l11.43-18.63-10.5,19.35c2.01,1.56,4.01,3.11,6.02,4.67l9.5-15.53-8.72,16.13c1.59,1.23,3.18,2.47,4.77,3.71l10.36-17.01-9.52,17.67c2.27,1.76,4.53,3.52,6.8,5.29l9.25-15.27-8.5,15.86c1.66,1.3,3.32,2.6,4.98,3.9l9.23-15.28-8.47,15.88c1.92,1.5,3.83,3,5.75,4.51l8.78-14.61-8.06,15.17c.89,.7,1.77,1.39,2.66,2.08l4.82,3.79,9.59-16.04-8.81,16.66,7.54,5.94,9.38-15.77-8.61,16.38,7.97,6.28,9.58-16.19-8.79,16.81,6.7,5.28,10.1-17.16-9.26,17.82,6.74,5.31,10.1-17.23-9.26,17.89,6.19,4.87,8.93-15.31-8.19,15.9,7.71,6.08,9.54-16.45-8.74,17.07,6.46,5.09,9.05-15.68-8.29,16.28,6.71,5.29,9.23-16.08-8.46,16.69,6.85,5.4,9.92-17.35-9.08,18.01,7.27,5.73,9.87-17.36-9.04,18.02,5.96,4.7,9.94-17.57-9.1,18.23,6.97,5.49,9.59-17.02-8.77,17.67,3.92,3.09,88.36-166.6L129.67,75.08l-19.13,38.71-19.8,39.75-20.29,40.57-19.99,39.64,4.06,3.12,9.87-15.47-9.08,16.07,7.11,5.47,10.84-17.08-9.97,17.74,6.21,4.78Zm88.06-115.97s.02-.01,.02-.02c.09-.12,.24-.16,.35-.08l17.84,12.83c.2,.15,.26,.45,.13,.73v.02s-26.68,53.51-26.68,53.51l-27.56,54.97c-.06,.12-.14,.25-.21,.37-.73,1.01-2,1.34-2.83,.72l-.04-.03-16.4-12.04c-.8-.58-1.02-1.77-.49-2.87l.03-.07,6.77-13.99,3.39-6.95c1.14-2.31,2.24-4.63,3.4-6.92l6.9-13.7c2.28-4.55,4.65-9.05,6.96-13.57l7-13.43c2.31-4.46,4.72-8.87,7.08-13.29,2.38-4.4,4.67-8.81,7.1-13.16,2.41-4.35,4.77-8.7,7.23-13.01h0Zm-7.26-5.29v.02s-26.95,53.08-26.95,53.08l-27.84,54.53c-.06,.12-.14,.25-.22,.36-.73,1.01-2,1.32-2.83,.71l-.03-.03-16.3-11.97c-.79-.58-1.01-1.76-.47-2.86l.03-.06,6.84-13.88,3.43-6.89c1.15-2.29,2.26-4.59,3.44-6.86l6.97-13.6c2.31-4.51,4.7-8.98,7.03-13.46l7.07-13.32c2.34-4.43,4.77-8.79,7.15-13.18,2.4-4.36,4.72-8.74,7.16-13.06,2.43-4.31,4.81-8.63,7.29-12.9h.01s.01-.03,.02-.04c.09-.12,.24-.16,.35-.08l17.74,12.76c.21,.15,.27,.45,.13,.73Z"/>
      <path class="cls-1" d="M107.32,167.89c-2.22,4.52-4.39,9.08-6.66,13.61l-6.82,13.66c-1.13,2.29-2.33,4.55-3.49,6.84l-3.52,6.86-6.19,11.94,12.71,10.01,27.63-51.59,28.03-52.03-16.67-12.91c-1.91,4.38-3.91,8.74-5.88,13.11-2.01,4.5-4.16,8.95-6.24,13.45-2.12,4.49-4.18,9.01-6.36,13.5l-6.53,13.55Z"/>
      <path class="cls-1" d="M132.07,113.75s-.01,.02-.02,.03h-.01c-2.48,4.28-4.86,8.6-7.29,12.91-2.44,4.32-4.76,8.7-7.16,13.06-2.37,4.39-4.81,8.76-7.15,13.18l-7.07,13.32c-2.33,4.48-4.72,8.95-7.03,13.46l-6.97,13.6c-1.18,2.27-2.29,4.57-3.44,6.86l-3.43,6.89-6.84,13.88-.03,.06c-.54,1.1-.31,2.28,.47,2.86l16.3,11.97,.03,.03c.83,.61,2.1,.29,2.83-.71,.08-.11,.16-.24,.22-.36l27.84-54.53,26.94-53.08v-.02c.15-.27,.09-.58-.12-.73l-17.74-12.76c-.1-.07-.26-.03-.35,.08Zm-5.62,13.64c1.97-4.38,3.97-8.73,5.88-13.11l16.67,12.91-28.03,52.03-27.63,51.59-12.71-10.01,6.19-11.94,3.52-6.86c1.17-2.28,2.36-4.55,3.49-6.84l6.82-13.66c2.27-4.53,4.44-9.09,6.66-13.61l6.53-13.55c2.18-4.49,4.24-9.01,6.36-13.5,2.07-4.49,4.23-8.95,6.24-13.45Z"/>
      <path class="cls-1" d="M145.83,159.7c-2.09,4.53-4.13,9.09-6.28,13.62l-6.46,13.66c-2.2,4.56-4.35,9.15-6.59,13.72l-6.74,13.77c-1.12,2.31-2.3,4.59-3.46,6.89l-3.49,6.92-6.13,12.03,12.79,10.07,27.36-52.01,27.76-52.46-16.78-12.99c-1.88,4.42-3.86,8.8-5.81,13.22-1.99,4.53-4.11,9.02-6.17,13.55Z"/>
      <path class="cls-1" d="M143.2,158.61c-2.35,4.42-4.76,8.83-7.08,13.29l-7,13.43c-2.31,4.51-4.68,9.02-6.96,13.57l-6.9,13.7c-1.16,2.29-2.26,4.61-3.4,6.92l-3.39,6.95-6.77,13.99-.03,.07c-.54,1.1-.31,2.29,.49,2.87l16.4,12.04,.04,.03c.83,.61,2.1,.29,2.83-.72,.08-.11,.16-.24,.21-.37l27.56-54.97,26.67-53.51v-.02c.14-.28,.08-.58-.12-.73l-17.84-12.83c-.11-.08-.26-.04-.35,.08,0,0-.01,.01-.02,.02h0c-2.46,4.32-4.82,8.67-7.23,13.02-2.43,4.35-4.72,8.77-7.1,13.16Zm31.39-12.7l-27.76,52.46-27.36,52.01-12.79-10.07,6.13-12.03,3.49-6.92c1.15-2.3,2.33-4.58,3.46-6.89l6.74-13.77c2.24-4.57,4.4-9.16,6.59-13.72l6.46-13.66c2.15-4.53,4.19-9.09,6.28-13.62,2.06-4.53,4.18-9.01,6.17-13.55,1.95-4.42,3.93-8.8,5.81-13.22l16.78,12.99Z"/>
    </g>
  </g>
</svg>