<svg width="120" height="86" viewBox="0 0 120 86" fill="none" xmlns="http://www.w3.org/2000/svg">
<path d="M60.2563 10.9881C60.2563 10.9881 30.8954 -1.06035 24.1059 5.81889C17.3182 12.6967 -3.21383 64.9057 0.429705 70.374C4.07156 75.8422 37.6832 74.006 47.8935 76.5695C58.1039 79.1331 87.1881 90.0275 97.0678 84.131C106.948 78.2345 123.117 22.183 119.476 15.0483C115.834 7.91357 80.6213 16.8004 60.2563 10.9896V10.9881Z" fill="#265CC6"/>
<path d="M32.5397 3.72124L31.2932 4.29172C31.2932 4.29172 25.6727 2.70509 21.5164 11.8735C17.36 21.042 7.01982 47.1741 3.83847 58.5926C0.657121 70.0125 6.86294 70.027 12.2473 70.4494C17.6333 70.8718 36.4819 70.9038 45.751 73.0028C55.02 75.1019 74.3763 80.7806 82.0632 81.5964C89.7517 82.4123 91.4689 83.4995 95.4886 79.9198C99.5083 76.3401 115.002 16.8265 115.002 16.8265C115.002 16.8265 116.017 14.9887 116.301 12.9318C106.431 10.075 77.8208 15.9962 60.2543 10.9851C60.2543 10.9851 43.661 4.17705 32.5381 3.71979L32.5397 3.72124Z" fill="#5DA5C9"/>
<path d="M31.7708 0.143009C31.7708 0.143009 26.1908 6.36612 22.3263 12.7402C18.4634 19.1143 4.17944 60.6524 4.99923 64.0667C5.81903 67.4809 5.58455 67.8133 9.56545 68.5377C13.5464 69.262 41.4093 69.5654 48.8246 71.438C56.2398 73.3106 82.3468 81.2263 87.576 80.229C92.8051 79.2318 91.2836 82.6765 95.0688 76.9963C98.8541 71.3175 114.933 14.7942 114.309 11.502C113.685 8.20968 88.2406 8.26919 68.7662 9.90081C52.6874 4.55303 39.849 0.112525 31.7708 0.143009Z" fill="#FEF4E6"/>
<path d="M30.7469 1.32318C28.9622 3.41787 25.1821 8.02968 22.3263 12.7402C18.4634 19.1143 4.17944 60.6539 4.99923 64.0667C5.81903 67.4809 5.58455 67.8119 9.56545 68.5377C13.5464 69.262 41.411 69.5654 48.8246 71.438C56.2398 73.3106 79.9616 80.261 85.3122 80.47C90.3272 80.666 91.2819 82.675 95.0688 76.9963C98.8541 71.3175 114.933 14.7942 114.309 11.5005C114.15 10.6673 112.401 10.0503 109.567 9.61775C104.549 27.6658 92.9114 68.3548 88.9946 71.7864C83.9611 76.1964 71.0434 68.886 57.9317 65.7142C44.82 62.5425 24.3302 60.397 10.3987 59.4911C12.4077 38.1073 24.8261 12.5123 30.7486 1.32318H30.7469Z" fill="#E9DAC7"/>
<path d="M65.2677 12.9013C65.2677 12.9013 51.3362 44.2288 49.501 60.6931C54.6137 50.7843 67.3358 23.2325 65.2677 12.9013Z" fill="#E9DAC7"/>
<path d="M117.571 17.8282C117.571 17.8282 100.283 74.6679 99.269 77.1458C98.2536 79.6237 99.21 79.5018 101.006 76.375C102.801 73.2482 118.042 22.5416 117.573 17.8282H117.571Z" fill="#558AF2"/>
<path d="M30.3809 9.0778C32.4894 8.79183 34.2572 9.33908 36.2443 9.68602C38.2381 10.0359 40.4444 10.2972 42.2881 11.0636C44.9499 12.1712 48.2511 13.6301 51.2148 13.9364C53.4245 14.1643 55.8873 14.7333 57.9891 15.3357C58.7465 15.552 59.492 15.7349 60.2663 15.912C60.5379 15.9745 61.3138 16.0311 61.0658 16.1472C59.1985 17.0153 56.503 16.169 54.6222 15.7843C51.4037 15.1253 48.1633 14.6811 45.0883 13.5735C43.7962 13.1075 42.6424 12.3396 41.3216 11.9389C37.7135 10.843 33.9957 10.0852 30.3809 9.07635V9.0778Z" fill="#E9DAC7"/>
<path d="M26.8218 17.3027C28.9303 17.0167 30.6981 17.564 32.6852 17.9109C34.679 18.2607 36.8854 18.522 38.7291 19.2885C41.3909 20.3961 44.692 21.8549 47.6557 22.1612C49.8654 22.3891 52.3282 22.9582 54.43 23.5606C55.1874 23.7769 55.933 23.9598 56.7072 24.1369C56.9788 24.1993 57.7547 24.2559 57.5068 24.3721C55.6394 25.2401 52.9439 24.3938 51.0631 24.0092C47.8446 23.3501 44.6043 22.9074 41.5292 21.7983C40.2371 21.3324 39.0833 20.5645 37.7625 20.1638C34.1544 19.0678 30.4366 18.3101 26.8218 17.3012V17.3027Z" fill="#E9DAC7"/>
<path d="M23.124 26.5307C25.2326 26.2447 27.0003 26.7919 28.9874 27.1389C30.9812 27.4887 33.1876 27.75 35.0313 28.5165C37.6931 29.624 40.9942 31.0844 43.958 31.3892C46.1677 31.6171 48.6305 32.1862 50.7323 32.7886C51.4896 33.0049 52.2352 33.1878 53.0095 33.3649C53.2811 33.4273 54.057 33.4854 53.809 33.6C51.9417 34.4681 49.2462 33.6218 47.3653 33.2371C44.1469 32.5781 40.9065 32.1339 37.8314 31.0263C36.5393 30.5604 35.3855 29.7924 34.0648 29.3918C30.4566 28.2958 26.7389 27.5381 23.124 26.5292V26.5307Z" fill="#E9DAC7"/>
<path d="M18.6943 36.8908C20.8029 36.6049 22.5707 37.1521 24.5577 37.4991C26.5516 37.8489 28.7579 38.1102 30.6016 38.8767C33.2634 39.9842 36.5645 41.4431 39.5283 41.7494C41.738 41.9773 44.2008 42.5464 46.3026 43.1488C47.06 43.3651 47.8055 43.548 48.5798 43.7251C48.8514 43.7875 49.6273 43.8441 49.3793 43.9602C47.512 44.8283 44.8165 43.982 42.9357 43.5973C39.7172 42.9383 36.4768 42.4941 33.4017 41.3865C32.1096 40.9205 30.9558 40.1526 29.6351 39.752C26.027 38.656 22.3092 37.8983 18.6943 36.8894V36.8908Z" fill="#E9DAC7"/>
<path d="M15.063 49.4068C17.1125 48.8943 18.9461 49.2442 20.9686 49.3748C22.9978 49.504 25.2244 49.5258 27.1659 50.0861C29.9678 50.8961 33.4578 51.9863 36.4435 51.9674C38.6684 51.9529 41.1953 52.2505 43.3696 52.6207C44.1523 52.7542 44.9198 52.8529 45.7126 52.9458C45.9926 52.9778 46.7702 52.9502 46.5408 53.0924C44.8152 54.1565 42.0184 53.6092 40.0954 53.4321C36.8061 53.1273 33.527 53.0387 30.3136 52.2737C28.9641 51.9515 27.7057 51.3157 26.3377 51.0616C22.598 50.3663 18.7993 50.0179 15.0647 49.4097L15.063 49.4068Z" fill="#E9DAC7"/>
<path d="M56.1438 55.7546C58.2321 55.3714 60.0302 55.8359 62.0375 56.0914C64.0499 56.3484 66.2698 56.508 68.1573 57.1874C70.8832 58.1701 74.2721 59.4752 77.251 59.6435C79.4709 59.7684 81.9674 60.2242 84.1029 60.7279C84.8721 60.9094 85.6294 61.0574 86.4121 61.1982C86.6888 61.2476 87.4664 61.2694 87.2252 61.3956C85.4135 62.3479 82.6708 61.6294 80.768 61.3303C77.5141 60.8208 74.2501 60.5276 71.1093 59.5637C69.7902 59.1587 68.5908 58.446 67.2464 58.1063C63.5742 57.1787 59.816 56.5937 56.1421 55.7532L56.1438 55.7546Z" fill="#E9DAC7"/>
<path d="M59.8445 46.9869C61.8923 46.4686 63.7275 46.8141 65.75 46.9375C67.7793 47.0609 70.0059 47.0754 71.9491 47.6299C74.7543 48.4312 78.2477 49.5112 81.2334 49.4837C83.4583 49.4633 85.9868 49.7537 88.1612 50.1166C88.9438 50.2472 89.7114 50.3445 90.5058 50.4345C90.7859 50.4664 91.5635 50.4359 91.3341 50.5782C89.6118 51.6466 86.8134 51.108 84.8904 50.9353C81.6011 50.6406 78.3202 50.5622 75.1035 49.8045C73.7523 49.4866 72.4923 48.8537 71.1226 48.604C67.3795 47.9203 63.5791 47.582 59.8428 46.984L59.8445 46.9869Z" fill="#E9DAC7"/>
<path d="M62.5066 35.1852C64.5544 34.6669 66.3896 35.0124 68.4121 35.1358C70.4414 35.2592 72.668 35.2737 74.6112 35.8282C77.4164 36.6295 80.9098 37.7095 83.8955 37.682C86.1204 37.6616 88.649 37.952 90.8233 38.3149C91.606 38.4455 92.3735 38.5428 93.168 38.6328C93.448 38.6647 94.2256 38.6342 93.9962 38.7765C92.2739 39.8449 89.4755 39.3063 87.5525 39.1336C84.2632 38.8389 80.9823 38.7605 77.7656 38.0028C76.4144 37.6849 75.1544 37.052 73.7847 36.8023C70.0416 36.1186 66.2412 35.7803 62.5049 35.1823L62.5066 35.1852Z" fill="#E9DAC7"/>
<path d="M65.8853 26.1764C67.8723 25.5057 69.7346 25.7119 71.7638 25.6843C73.7981 25.6553 76.018 25.5028 78.0101 25.9093C80.8862 26.4972 84.4757 27.3101 87.4462 27.059C89.661 26.8717 92.2081 26.9704 94.4128 27.1693C95.2056 27.2404 95.9816 27.2796 96.7811 27.3101C97.0628 27.3217 97.8354 27.2317 97.6211 27.3914C96.0136 28.5846 93.1713 28.2595 91.2382 28.2319C87.9304 28.184 84.6562 28.3524 81.3753 27.8414C79.9972 27.6266 78.6781 27.0909 77.2882 26.9443C73.4894 26.5437 69.6705 26.4928 65.8869 26.1778L65.8853 26.1764Z" fill="#E9DAC7"/>
<path d="M68.9802 17.8354C70.8998 17.0326 72.7756 17.111 74.7947 16.9455C76.8206 16.7786 79.0185 16.4752 81.0427 16.7452C83.9643 17.1357 87.6162 17.7033 90.5547 17.2518C92.7442 16.915 95.2946 16.841 97.5094 16.8889C98.3073 16.9063 99.0833 16.8933 99.8828 16.8686C100.165 16.8613 100.925 16.7191 100.728 16.8918C99.2351 18.191 96.3708 18.0589 94.4411 18.162C91.14 18.3391 87.8895 18.7296 84.5715 18.4407C83.1782 18.3202 81.8136 17.876 80.4152 17.8238C76.5928 17.6815 72.7789 17.8905 68.9785 17.8339L68.9802 17.8354Z" fill="#E9DAC7"/>
<path d="M75.4004 9.18951C72.828 7.0295 68.8808 7.23128 67.42 10.2695C65.9592 13.3078 55.646 45.6456 54.2948 50.0832C52.9437 54.5222 49.7168 60.4289 49.7168 60.4289L54.3606 57.2048L55.4503 62.0315C55.4503 62.0315 59.222 55.5674 60.8566 50.285C62.4911 45.0025 70.711 16.5304 71.9761 13.5589C73.2412 10.5889 73.0017 9.30564 75.3987 9.18806L75.4004 9.18951Z" fill="#CB442E"/>
</svg>
