<svg width="100" height="84" viewBox="0 0 100 84" fill="none" xmlns="http://www.w3.org/2000/svg">
<path d="M89.1677 79.5639C89.1677 79.5639 96.2406 71.7276 95.6476 62.9938C95.0562 54.2601 27.4031 50.4032 27.4031 50.4032C27.4031 50.4032 22.7087 58.693 22.0884 60.0741C21.4682 61.4552 14.9354 71.6798 22.542 74.1413C30.1486 76.6028 89.235 80.8511 89.235 80.8511L89.1677 79.5639Z" fill="#FAE9D7"/>
<path d="M95.2452 67.8691L24.7473 60.6183L22.0467 60.1521C21.8592 60.5419 21.3559 61.4154 20.7965 62.5722L94.7692 69.6368C94.9503 69.0624 95.1106 68.4721 95.2452 67.8706V67.8691ZM93.9293 71.9042L23.5741 64.6677L20.1218 64.0726C19.7916 64.8666 19.4871 65.7194 19.2627 66.5882L93.1168 73.6401C93.3988 73.0896 93.6729 72.5104 93.9309 71.9042H93.9293ZM91.8955 75.8024L22.1172 68.6248L18.9678 68.0807C18.8524 68.9749 18.8572 69.8532 19.0512 70.6615L90.7671 77.5097C91.1165 77.0165 91.5012 76.4405 91.8955 75.8008V75.8024Z" fill="#F4CEA6"/>
<path d="M14.1003 0.0439979C14.1003 0.0439979 3.1632 2.37819 0.316742 11.5829C-2.52972 20.786 14.6516 71.5892 18.1664 75.2583C21.6812 78.9275 90.0555 83.3333 90.0555 83.3333C90.0555 83.3333 92.9869 81.1185 90.6661 79.1009C88.3454 77.085 24.5132 74.7794 23.0035 72.3927C21.4937 70.006 25.1527 60.4322 30.9017 59.1291C36.6507 57.8259 92.8138 67.1404 96.0625 65.6591C99.3097 64.1793 100.685 63.9916 99.6735 60.499C98.6606 57.0081 81.6892 12.9162 77.0477 8.88273C72.4062 4.84921 22.1027 -0.531991 14.1003 0.0424068V0.0439979Z" fill="#CD7432"/>
<path d="M15.1694 1.51743C11.9383 3.84048 25.0375 45.8193 30.3553 54.8442C24.8131 58.1139 18.4887 64.8062 18.8541 73.6641C21.1604 62.1984 28.1564 57.2834 31.1246 55.6747C42.1162 57.2706 90.6614 64.8285 97.6446 61.4251C97.6446 61.4251 79.7228 60.3718 70.3676 58.927C61.0124 57.4823 33.8589 54.7073 31.8875 54.0693C29.9146 53.4313 15.155 6.57563 15.1694 1.51743Z" fill="#DB9B6C"/>
<path d="M12.5166 10.0904C12.6384 10.4866 9.86247 11.8836 7.39586 14.6697C7.37182 14.6967 7.34778 14.7253 7.32213 14.7524C6.05437 16.2608 5.29948 17.4223 4.81065 18.5488C4.36989 19.564 4.27213 20.2911 4.03653 20.3229C3.83618 20.35 3.51083 19.6483 3.72079 18.3659C3.93716 17.0404 4.69044 15.435 6.09925 13.8486C6.12489 13.8184 6.15214 13.7882 6.17778 13.7563C9.02584 10.4691 12.3724 9.62259 12.515 10.0904H12.5166Z" fill="#DB9B6C"/>
<path d="M23.7312 50.6324C23.9924 50.9522 21.723 53.1384 19.5224 56.2872C19.492 56.3302 19.4615 56.3747 19.4311 56.4177C18.2322 58.1854 17.5815 59.199 16.9693 60.456C16.4612 61.503 16.2368 62.2269 16.0076 62.2285C15.7993 62.2285 15.6165 61.4807 15.8938 60.2189C16.1855 58.884 16.8987 57.3708 18.0896 55.6683C18.12 55.6221 18.1521 55.576 18.1841 55.5299C20.553 52.1105 23.4171 50.2489 23.7296 50.6324H23.7312Z" fill="#DB9B6C"/>
<path d="M9.50683 19.0039C9.57254 19.0103 9.33053 19.7486 9.76006 19.8202C9.8995 19.9045 10.1143 19.8011 10.4156 19.6515C10.9028 19.3301 11.616 18.673 11.4349 18.1702C11.3067 17.669 11.0583 16.9577 10.6287 17.0818C10.1944 17.0532 9.71037 17.4892 9.16865 18.0031C8.04994 19.206 6.98572 21.0565 7.34474 22.6046C7.48578 23.3381 7.95217 23.9841 8.62051 24.3469C9.28725 24.7208 10.1111 24.8752 11.0214 25.0788C11.6881 25.2157 12.4238 25.3732 13.113 25.6882C13.2877 25.7678 13.4592 25.8569 13.6243 25.9587C14.4913 26.514 15.001 27.4624 15.0843 28.5236C15.2558 30.9151 13.7429 33.3177 11.7955 34.3758C10.9188 34.8595 9.93155 35.0043 9.11736 34.6813C8.12046 34.196 7.75824 33.1332 7.72939 32.2167C7.7342 32.0369 7.61239 31.7918 7.5563 31.4418C7.48097 30.9994 7.65086 30.5078 8.01468 30.1355C8.57564 29.6008 9.29847 29.3415 9.91713 29.4688C10.5053 29.6358 10.8435 30.0845 11.0038 30.4998C11.2282 31.0249 11.2121 31.5738 11.0535 32.0162C10.6512 33.0393 9.89629 32.9072 9.89469 32.8324C9.89469 32.7576 10.555 32.5969 10.656 31.9573C10.7329 31.6216 10.672 31.2429 10.4605 30.8403C10.289 30.5476 10.0101 30.2389 9.64947 30.1975C9.33053 30.1195 8.90099 30.3566 8.51473 30.721C8.42017 30.7831 8.39453 30.9676 8.42819 31.122C8.46986 31.3129 8.60609 31.5627 8.65898 31.9716C8.75835 32.6813 9.03402 33.488 9.64306 33.6646C10.1079 33.8683 10.781 33.7075 11.4173 33.3686C12.8501 32.5922 14.0153 30.6223 13.8599 28.8419C13.8022 28.1147 13.4367 27.4385 12.8485 27.0805C12.7251 26.9993 12.5921 26.9293 12.4527 26.8657C11.9013 26.6143 11.2298 26.479 10.563 26.3231C9.66229 26.129 8.74713 25.9285 7.9073 25.4639C7.00015 24.9484 6.39592 24.0573 6.2068 23.0215C5.86702 20.8242 7.15882 18.6618 8.54999 17.3428C9.14781 16.7111 9.94117 16.2003 10.7842 16.1812C11.8084 16.3181 12.1337 17.2664 12.1561 17.9426C12.1866 19.1073 11.2362 19.844 10.5742 20.1193C10.1976 20.3214 9.79372 20.3436 9.51804 20.1718C8.85612 19.5719 9.43791 18.996 9.50362 19.0023L9.50683 19.0039Z" fill="#DB9B6C"/>
<path d="M11.9059 38.5462C11.8915 38.4778 12.688 37.6265 13.2522 38.6019C13.4076 39.0267 13.2987 39.5709 13.0118 40.1134C12.7906 40.5892 12.4364 41.1508 11.8915 41.6027C11.4779 41.9623 10.8465 42.166 10.3031 41.8287C9.54986 41.2622 8.94402 40.1787 9.31265 38.7848C9.64602 37.7045 10.433 36.7195 11.4331 36.0226C12.3194 35.3735 13.4685 34.8929 14.6193 35.0011C15.7973 35.1746 16.6355 36.1038 16.8519 37.3019C17.0779 38.543 16.8824 39.8589 16.5458 41.1349C16.2733 42.201 15.9255 43.2368 15.5569 44.2933C15.4207 44.6832 15.3598 44.8566 15.2251 45.2464C14.7652 46.5798 14.3404 47.805 14.1225 49.0269C13.9526 50.0755 13.9125 51.0604 14.3004 51.7414C14.4206 52.0644 14.9094 52.2267 15.3886 52.4479C15.9271 52.634 16.3855 52.8122 16.8102 52.7216C16.6548 52.9777 16.6804 52.6086 17.134 52.2028C17.8392 51.4662 18.429 50.8217 18.7143 50.0914C19.0477 49.3897 18.7383 48.6021 18.2848 48.1884C18.1742 47.8797 17.5459 48.2982 17.1933 48.6085C16.666 49.1892 16.3134 49.6761 16.2573 50.1662C15.9816 50.7231 16.9545 50.5226 17.0827 50.4685C17.3936 50.3333 17.5026 50.1185 17.5459 50.1328C17.5571 50.136 17.5892 50.4049 17.1805 50.6992C16.9513 50.8631 15.8534 51.3039 15.7284 50.2203C15.7653 49.5425 16.1339 48.8201 16.7205 48.1677C17.1709 47.5822 18.0508 47.0301 18.8682 47.4899C19.5541 48.0214 20.0141 49.0747 19.5974 50.311C19.2192 51.2975 18.5524 52.1281 17.8184 52.8966C17.8088 52.973 17.5924 53.4519 16.8135 53.8242C16.0554 53.9515 15.3998 53.7797 14.8469 53.5569C14.3228 53.4042 13.6721 53.1289 13.257 52.4654C12.7265 51.4534 12.7072 50.2139 12.93 49.0222C13.1656 47.6586 13.6048 46.3523 14.0664 45.0173C14.177 44.6975 14.2875 44.3808 14.3981 44.061C14.7636 43.0125 15.1033 42.018 15.3614 41.022C15.6627 39.8207 15.8662 38.6989 15.6819 37.7347C15.5216 36.9153 14.9927 36.2199 14.2956 36.1658C13.5423 36.0433 12.6463 36.4109 11.9091 36.8946C11.0981 37.4594 10.4506 38.1723 10.2102 38.9312C9.87521 39.7841 10.3176 40.6544 10.8593 41.1636C10.9298 41.3354 11.284 41.2113 11.5405 41.0522C11.962 40.7578 12.2905 40.3091 12.5245 39.913C12.781 39.4149 12.9525 39.084 12.8659 38.8039C12.8948 38.2184 11.9219 38.6162 11.9091 38.5478L11.9059 38.5462Z" fill="#DB9B6C"/>
<path d="M28.3405 7.37907C28.3405 7.37907 26.3724 7.18973 25.9156 9.72599C25.4604 12.2638 28.512 25.7789 31.0139 26.8131C33.5158 27.8458 76.8794 34.9422 79.5447 31.5547C82.2085 28.1656 75.8809 13.8136 73.2668 12.52C70.6528 11.2264 30.7238 6.1364 28.3405 7.37907Z" fill="#FAE9D7"/>
<path d="M70.7203 14.6155C69.9125 14.3355 68.5598 14.0857 66.6012 14.2782C64.9953 14.4707 63.3861 15.9712 61.8844 15.7404C60.3842 15.6307 59.1389 14.7921 57.6644 13.7627C56.4431 12.8685 54.9141 11.8183 52.9764 11.6465C52.1958 11.6115 51.4682 11.7976 50.7935 12.0283C50.4777 12.1365 50.1732 12.2543 49.8911 12.3577C48.7868 12.7252 47.7915 13.0817 46.8587 13.0339C45.4451 13.0101 44.0876 12.267 42.8583 11.6465C41.629 10.975 40.4414 10.2765 38.9156 10.3513C37.8289 10.4547 36.9058 11.0084 36.2166 11.4921C35.3319 12.0824 34.726 12.5375 33.9776 12.7093C31.6808 13.3506 30.2127 11.8835 30.147 11.9886C30.0813 12.0952 31.0926 13.7881 34.0625 13.3267C34.9889 13.1485 35.7598 12.6791 36.6397 12.1206C37.3273 11.7085 38.1335 11.2407 38.8819 11.236C40.0311 11.1548 40.9671 11.8485 42.2733 12.5264C43.4674 13.1962 44.9419 14.0013 46.7017 14.1C47.931 14.135 49.0898 13.7627 50.1876 13.3728C50.5018 13.271 50.8031 13.1596 51.098 13.0562C51.723 12.8366 52.2792 12.668 52.7808 12.7237C54.3227 12.7984 55.7074 13.769 56.9624 14.6091C58.4465 15.6545 59.9226 16.5185 61.7225 16.6426C63.9647 16.676 65.3655 15.1581 66.6365 14.9576C69.5599 14.4278 71.6274 15.2536 71.6402 15.1231C71.6467 15.0658 71.3485 14.8303 70.7203 14.6123V14.6155ZM72.8679 22.0031C72.6564 21.914 69.3339 22.8258 65.9281 20.8909C65.1267 20.4311 63.9952 19.486 62.5768 19.2934C60.6663 19.0977 58.7911 19.5242 56.7316 20.0413C55.2891 20.3865 53.7297 20.7986 52.3016 20.8066C52.0019 20.8082 51.707 20.7939 51.4185 20.7573C48.6009 20.4184 46.2209 20.0381 44.2479 18.9354C42.9833 18.221 41.9047 17.513 40.443 17.3236C38.8066 17.1677 37.0997 17.9617 36.1124 18.3451C33.6602 19.2441 32.2322 18.579 32.1585 18.684C32.112 18.7509 33.3108 19.9028 36.2887 18.9513C37.3385 18.6395 39.0262 17.9537 40.2298 18.1781C41.4319 18.3467 42.3278 19.0404 43.6453 19.7962C45.7865 21.0389 48.322 21.5099 51.1701 21.8345C51.5115 21.8711 51.8561 21.8886 52.2007 21.8854C53.8467 21.8743 55.4895 21.4431 56.9223 21.066C58.9882 20.5457 60.6936 20.0938 62.3812 20.2433C63.399 20.2863 64.5017 21.1582 65.4521 21.6197C69.5551 23.6261 72.8888 22.1782 72.8792 22.0159C72.8792 22.0111 72.8759 22.0063 72.8679 22.0031ZM66.1396 26.7479C65.8736 26.6683 64.1026 26.8052 62.1617 26.4026C60.9885 26.1814 59.7191 25.4336 57.9208 25.1297C56.411 24.8894 54.8772 24.9451 53.1831 25.0899C51.6285 25.2236 50.3864 25.3779 49.0385 25.4018C46.9245 25.467 45.0989 24.5505 43.5667 24.2244C41.5553 23.7932 40.3052 23.8568 40.2683 23.992C40.233 24.1273 41.4703 24.323 43.2975 24.9133C44.3168 25.2443 46.8427 26.3915 48.9359 26.436C50.3399 26.4503 51.6702 26.3103 53.1783 26.1767C54.85 26.0287 56.2716 25.946 57.6532 26.1385C59.1934 26.3326 60.599 27.0247 61.9565 27.1823C64.7869 27.4798 66.106 26.9293 66.1717 26.7813C66.1781 26.767 66.1669 26.7574 66.1396 26.7495V26.7479Z" fill="#DB9B6C"/>
</svg>
