<svg width="120" height="83" viewBox="0 0 120 83" fill="none" xmlns="http://www.w3.org/2000/svg">
<path d="M56.9506 2.20146C56.9506 2.20146 60.4098 4.45342 59.0557 7.38723C57.7031 10.3197 54.3978 12.5477 54.3978 12.5477L48.7231 10.4209L51.8061 5.65331C51.8061 5.65331 53.0654 1.59819 56.9506 2.20146Z" fill="#E9DAC7"/>
<path d="M117.898 14.5812L68.1694 43.7222L43.1123 18.6976L61.7096 7.87463L117.898 14.5812Z" fill="#E9DAC7"/>
<path d="M114.165 7.34325L120 8.00646L117.898 14.5812L61.7097 7.87461L105.145 40.4914L96.9376 46.4136L52.7671 10.9762C57.7157 8.8015 58.9766 6.50826 56.3445 2.49442C56.3445 2.49442 54.3824 1.74066 61.6817 1.5662C68.9826 1.39174 114.167 7.34459 114.167 7.34459L114.165 7.34325Z" fill="#FEF4E6"/>
<path d="M119.044 4.11115C119.044 4.11115 113.458 5.01273 103.703 3.89941C93.9493 2.78608 60.5372 -0.155715 56.2198 0.964271C51.9024 2.08293 17.0135 23.5731 15.367 28.0051C13.7206 32.4384 15.2831 33.8714 19.7933 38.4991C24.3034 43.1269 56.7313 71.6513 56.7313 71.6513C58.2052 72.6594 68.5937 66.584 79.5325 60.5619C90.9736 54.2628 102.893 47.9424 99.9955 46.1979C99.9955 46.1979 55.385 11.0508 54.505 8.82149C53.6235 6.59217 54.2982 3.34274 57.6222 2.55036C60.9446 1.75798 114.167 7.34326 114.167 7.34326C114.167 7.34326 122.416 6.04216 119.045 4.11248L119.044 4.11115Z" fill="#51662B"/>
<path d="M55.1115 1.3864C47.7998 4.62384 2.18497 34.2895 0.638042 38.4538C-1.00838 42.8872 0.554093 44.3201 5.06427 48.9465C9.57445 53.5743 42.0023 82.0987 42.0023 82.0987C43.4762 83.1068 68.5924 66.584 79.5328 60.5619C87.3249 56.2724 95.3347 51.9736 98.7379 49.1157C91.7993 43.4705 53.4434 12.2413 52.4795 10.9149C51.4238 9.46202 50.0308 7.45511 52.0441 4.22699C52.6598 3.23885 53.8118 2.26535 55.11 1.38507L55.1115 1.3864Z" fill="#5E7A27"/>
<path d="M48.7126 9.54858C48.7126 9.54858 9.82185 32.5343 2.53809 40.4354C10.2587 35.6559 48.7126 9.54858 48.7126 9.54858Z" fill="#4C5F23"/>
<path d="M59.2656 7.87598L102.052 40.2757C102.052 40.2757 73.345 21.4849 59.2656 7.87598Z" fill="#E9DAC7"/>
<path d="M57.543 9.91089L100.33 42.3106C100.33 42.3106 71.6223 23.5199 57.543 9.91089Z" fill="#E9DAC7"/>
<path d="M59.4058 6.01819L115.451 12.0936C115.451 12.0936 87.0327 6.81456 59.4058 6.01819Z" fill="#E9DAC7"/>
<path d="M116.034 9.72443L58.5352 4.50537C58.5352 4.50537 88.6015 4.74641 116.034 9.72443Z" fill="#E9DAC7"/>
<path d="M55.4941 23.36C55.4941 23.36 51.9541 24.1085 49.6609 23.1802C47.0708 25.0034 40.639 29.1664 40.639 29.1664C40.639 29.1664 42.6772 30.6526 40.042 32.9112C43.7826 36.7732 62.4592 53.1096 62.4592 53.1096C62.4592 53.1096 67.2477 51.8458 69.1926 53.5291C73.269 51.3184 81.0067 47.0462 81.0067 47.0462C81.0067 47.0462 78.8519 45.4708 81.0036 44.1257C77.5056 41.0641 55.4926 23.36 55.4926 23.36H55.4941Z" fill="#E9DAC7"/>
</svg>
