<svg width="120" height="92" viewBox="0 0 120 92" fill="none" xmlns="http://www.w3.org/2000/svg">
<path d="M115.933 16.7251C115.933 16.7251 120.937 18.2601 119.844 29.5234C118.753 40.7866 80.6083 88.7659 75.6328 91.2504C70.6573 93.7333 2.31586 69.4369 2.31586 69.4369C-1.15355 68.4593 -0.437001 65.0368 2.8211 65.1542L3.78355 50.2998C-1.18621 48.2139 -0.621423 45.4663 1.8356 42.0967C4.29263 38.7272 48.836 3.23695 55.0641 0.841711C61.2921 -1.55353 108.354 12.6475 115.929 16.7267L115.933 16.7251Z" fill="#CB442E"/>
<path d="M3.68346 50.2601L3.64119 50.2716C3.69114 50.2799 3.7334 50.2915 3.78527 50.2981L2.82091 65.1526C2.6288 65.146 2.4463 65.1526 2.27148 65.1691C20.4504 71.3706 42.8518 79.8052 71.072 86.5361C71.072 86.5361 74.6797 80.801 70.5725 73.7311C54.2647 67.8803 3.68346 50.2584 3.68346 50.2584V50.2601Z" fill="#FAE9D7"/>
<path d="M3.14591 47.3983C3.14591 47.3983 70.5825 69.9529 73.4622 71.2382C76.3399 72.5235 76.7299 84.2863 73.6043 89.9486C73.1798 91.6027 74.999 91.0155 76.4648 88.2795C77.9305 85.5435 79.4481 75.5043 76.995 71.0315C94.0001 50.5826 115.72 21.0126 115.862 19.4263C115.862 19.4263 115.032 18.3329 112.896 20.8902C110.759 23.4476 74.6647 69.637 74.6647 69.637C74.6647 69.637 7.52782 46.0436 5.3724 45.6333C3.21891 45.2231 1.77043 45.9063 3.14783 47.3983H3.14591Z" fill="#DC7665"/>
<path d="M25.084 36.5371L35.8649 26.7725L81.4784 40.603L70.488 52.4204L25.084 36.5354V36.5371Z" fill="#DC7665"/>
<path d="M3.6414 52.5114L3.50501 54.6271L68.3405 75.1421L3.6414 52.5098V52.5114ZM3.27832 58.1207L3.1938 59.4259L68.694 80.0104L3.28025 58.1207H3.27832ZM2.96327 62.9658L2.86914 64.4248L63.0576 81.3982L2.96519 62.9658H2.96327Z" fill="#F1C4B3"/>
</svg>
