<svg width="100" height="82" viewBox="0 0 100 82" fill="none" xmlns="http://www.w3.org/2000/svg">
<path d="M85.1738 65.6025C85.1881 66.1293 84.4518 71.8104 84.4518 71.8104C84.4518 71.8104 64.4312 66.8247 58.6865 59.9608C52.9419 53.097 50.1196 48.2811 50.1196 48.2811C50.1196 48.2811 47.2243 66.8234 40.7119 70.912C34.1995 75.0005 23.1333 81.4286 23.1333 81.4286L25.7998 56.0335L47.7605 40.8191L57.4784 42.4622L85.1724 65.6025H85.1738Z" fill="#F1C88D"/>
<path d="M90.6094 58.8728L92.478 67.7415C92.478 67.7415 58.8692 65.7477 50.0263 47.4958C43.8298 57.567 26.5214 67.456 9.2002 68.6449C9.95081 62.4149 9.49901 54.5529 9.49901 54.5529L50.4295 37.1306L90.6094 58.8728Z" fill="#F5D6AB"/>
<path d="M94.3308 56.5282L96.3281 64.4997C96.3281 64.4997 59.5553 62.8419 49.9761 46.4571C43.1391 55.5437 24.1408 64.5096 5.17676 65.6505C6.03317 60.042 5.58137 52.9714 5.58137 52.9714L50.4751 37.1306L94.3322 56.5295L94.3308 56.5282Z" fill="#F8E1C1"/>
<path d="M99.9986 59.9067C99.9986 59.9067 94.2053 24.9819 94.3826 13.2111C84.2443 12.9859 62.7969 6.89621 56.6004 2.66616C50.4025 -1.56267 43.8571 -0.122697 39.3749 2.58616C34.8913 5.29379 13.2822 11.4783 3.69301 12.7262C3.90747 38.4327 1.67136 53.9659 0 61.6223C10.3756 63.5226 33.9662 57.0895 42.2272 50.03C47.0197 45.9341 50.9386 44.5569 54.5802 47.9672C58.2217 51.3776 65.8651 54.4828 70.5088 55.9732C77.2229 58.1282 94.4855 61.9632 100 59.9067H99.9986Z" fill="#CD7432"/>
<mask id="mask0_271_721" style="mask-type:luminance" maskUnits="userSpaceOnUse" x="0" y="0" width="100" height="62">
<path d="M99.9986 59.9067C99.9986 59.9067 94.2053 24.9819 94.3826 13.2111C84.2443 12.9859 62.7969 6.89621 56.6004 2.66616C50.4025 -1.56267 43.8571 -0.122697 39.3749 2.58616C34.8913 5.29379 13.2822 11.4783 3.69301 12.7262C3.90747 38.4327 1.67136 53.9659 0 61.6223C10.3756 63.5226 33.9662 57.0895 42.2272 50.03C47.0197 45.9341 50.9386 44.5569 54.5802 47.9672C58.2217 51.3776 65.8651 54.4828 70.5088 55.9732C77.2229 58.1282 94.4855 61.9632 100 59.9067H99.9986Z" fill="white"/>
</mask>
<g mask="url(#mask0_271_721)">
<path d="M-6.58111 27.2354C24.8202 28.0773 32.7309 15.1077 50.8399 15.5951C68.949 16.0825 90.7224 31.02 105.427 30.6101L108.538 46.3808C77.433 44.5618 75.2255 30.9043 49.9992 30.9806C24.773 31.0569 24.8816 45.2916 -6.57969 42.3699C-38.041 39.4493 -6.57969 27.2342 -6.57969 27.2342L-6.58111 27.2354Z" fill="#F1A218"/>
</g>
<path opacity="0.66" d="M42.1045 50.1272C42.1431 50.0952 42.186 50.0632 42.2246 50.0312C47.017 45.9353 50.9359 44.5581 54.5775 47.9685C54.9821 48.3475 55.4439 48.7229 55.9372 49.0921L55.6555 2.07294C51.5707 -0.333153 47.3888 -0.395918 43.7887 0.645288L42.103 50.1284L42.1045 50.1272Z" fill="#F1A218"/>
</svg>
