<svg width="100" height="97" viewBox="0 0 100 97" fill="none" xmlns="http://www.w3.org/2000/svg">
<path d="M92.0712 91.0235C92.0712 91.0235 91.2484 95.4567 78.3327 96.5833C65.4171 97.7099 4.29919 74.6929 0.590005 71.0096C-3.11918 67.3263 11.8734 6.17439 11.8734 6.17439C12.3446 3.11607 16.3407 3.09333 16.8025 5.8205L33.7503 3.93746C35.2021 -0.567241 38.4058 -0.593208 42.6585 0.838556C46.9111 2.27032 95.0906 32.8584 98.929 37.6002C102.767 42.3402 95.2996 83.9945 92.0712 91.0219V91.0235Z" fill="#265CC6"/>
<path d="M33.773 3.84809L33.7521 3.81561C33.7521 3.85944 33.7464 3.89678 33.7483 3.94061L16.8004 5.82365C16.7738 5.66132 16.732 5.51199 16.6807 5.37076C12.9867 21.5893 7.54078 41.7184 5.07812 66.3733C5.07812 66.3733 12.2096 68.3343 19.4455 63.6462C23.0844 49.0444 33.773 3.84972 33.773 3.84972V3.84809Z" fill="#FAE9D7"/>
<path d="M36.9064 2.88391C36.9064 2.88391 23.7152 62.9693 22.7879 65.5926C21.8606 68.2159 8.64855 70.6622 1.68623 69.0892C-0.259569 69.0356 0.736135 70.4398 4.09188 71.1638C7.44763 71.8878 19.0597 71.3359 23.662 68.4886C49.8448 78.92 87.1875 91.6192 89.006 91.4504C89.006 91.4504 90.091 90.5641 86.8131 89.2508C83.5372 87.9375 24.8135 66.3004 24.8135 66.3004C24.8135 66.3004 39.2322 6.27665 39.3044 4.41308C39.3747 2.54952 38.3391 1.47001 36.9064 2.88391Z" fill="#F8BC54"/>
<path d="M53.1628 19.1448L66.1506 26.3361L58.8368 66.7209L43.4927 59.726L53.1628 19.1464V19.1448Z" fill="#F7BC55"/>
<path d="M31.2233 4.21989L28.8101 4.48774L17.4469 62.044L31.2233 4.21826V4.21989ZM24.8235 4.9309L23.3337 5.09648L12.0142 63.216L24.8235 4.9309ZM19.2958 5.54452L17.6312 5.72958L9.42236 58.786L19.2958 5.54452Z" fill="#F1C4B3"/>
</svg>
