<svg width="199" height="199" viewBox="0 0 199 199" fill="none" xmlns="http://www.w3.org/2000/svg">
<path fill-rule="evenodd" clip-rule="evenodd" d="M195.06 160.485L196.197 162.619L196.285 160.202L198.42 159.065L196.003 158.977L194.865 156.842L194.777 159.259L192.643 160.397L195.06 160.485ZM183.071 108.492L184.208 110.627L184.296 108.209L186.431 107.072L184.013 106.984L182.876 104.85L182.788 107.267L180.654 108.404L183.071 108.492ZM172.219 58.6338L171.081 56.4994L168.664 56.4114L170.799 55.2739L170.887 52.8568L172.024 54.9913L174.441 55.0793L172.307 56.2168L172.219 58.6338ZM159.092 4.50666L160.229 6.64111L160.317 4.22407L162.452 3.08656L160.035 2.99859L158.897 0.864141L158.809 3.28118L156.675 4.41871L159.092 4.50666ZM144.205 174.609L143.067 172.474L140.65 172.386L142.785 171.249L142.873 168.832L144.01 170.966L146.427 171.054L144.293 172.191L144.205 174.609ZM131.078 120.481L132.215 122.616L132.303 120.199L134.438 119.061L132.021 118.973L130.883 116.839L130.795 119.256L128.661 120.393L131.078 120.481ZM120.226 70.6231L119.089 68.4887L116.672 68.4007L118.806 67.2632L118.894 64.8462L120.031 66.9806L122.449 67.0686L120.314 68.2061L120.226 70.6231ZM107.099 16.496L108.237 18.6304L108.325 16.2134L110.459 15.0759L108.042 14.9879L106.905 12.8535L106.817 15.2705L104.682 16.408L107.099 16.496ZM92.2121 186.598L91.0746 184.463L88.6575 184.375L90.792 183.238L90.8799 180.821L92.0174 182.955L94.4345 183.043L92.3 184.181L92.2121 186.598ZM79.0852 132.471L80.2227 134.605L80.3107 132.188L82.4451 131.051L80.0281 130.963L78.8906 128.828L78.8026 131.245L76.6682 132.383L79.0852 132.471ZM68.2334 82.6125L67.0959 80.478L64.6788 80.3901L66.8133 79.2526L66.9013 76.8355L68.0388 78.97L70.4558 79.0579L68.3214 80.1954L68.2334 82.6125ZM55.1066 28.4853L56.2441 30.6198L56.332 28.2027L58.4665 27.0652L56.0494 26.9773L54.9119 24.8428L54.824 27.2598L52.6895 28.3974L55.1066 28.4853ZM40.2194 198.587L39.0818 196.453L36.6648 196.365L38.7993 195.227L38.8872 192.81L40.0247 194.945L42.4418 195.033L40.3073 196.17L40.2194 198.587ZM27.0925 144.46L28.23 146.595L28.318 144.177L30.4524 143.04L28.0354 142.952L26.8979 140.818L26.8099 143.235L24.6755 144.372L27.0925 144.46ZM16.2407 94.6018L15.1032 92.4674L12.6861 92.3794L14.8206 91.2419L14.9086 88.8248L16.0461 90.9593L18.4631 91.0473L16.3287 92.1848L16.2407 94.6018ZM3.11385 40.4747L4.25137 42.6091L4.33933 40.1921L6.47378 39.0546L4.05674 38.9666L2.91923 36.8321L2.83125 39.2492L0.69681 40.3867L3.11385 40.4747Z" fill="#F0F0F0"/>
</svg>
