<svg width="201" height="158" viewBox="0 0 201 158" fill="none" xmlns="http://www.w3.org/2000/svg">
<path d="M138.896 76.6757C138.896 97.0449 122.314 113.557 101.859 113.557C81.4037 113.557 64.8216 97.0449 64.8216 76.6757C64.8216 56.3065 81.4037 39.794 101.859 39.794C122.314 39.794 138.896 56.3065 138.896 76.6757Z" fill="white"/>
<path d="M101.859 33C77.6481 33 57.999 52.5667 57.999 76.6757C57.999 100.785 77.6481 120.351 101.859 120.351C126.069 120.351 145.718 100.785 145.718 76.6757C145.718 52.5667 126.069 33 101.859 33ZM93.0867 98.5136L71.1569 76.6757L77.3411 70.5174L93.0867 86.1533L126.376 53.0035L132.56 59.2054L93.0867 98.5136Z" fill="#2BB673"/>
<path d="M44.7407 111.052C43.1257 114.999 37.6055 122.104 28.4443 118.946C16.9927 114.999 17.4332 109.297 20.0758 107.104C22.7185 104.911 34.1717 106.666 26.6833 123.333C17.8745 134.736 7.01019 131.812 3.78027 130.788" stroke="#FC5E8B" stroke-width="6" stroke-linecap="round"/>
<path d="M163.999 119.736C168.852 120.312 181.907 121.304 186.466 136.654" stroke="#F5C168" stroke-width="6" stroke-linecap="round"/>
<path d="M154.999 36.1012C160.102 35.9976 170.817 34.202 172.847 27.8485C175.385 19.9067 176.519 9.74686 185.034 11.1301" stroke="#2BB673" stroke-width="6" stroke-linecap="round"/>
<ellipse cx="141.163" cy="151.118" rx="6.16621" ry="6.14035" fill="#15A4BE"/>
<ellipse cx="194.053" cy="77.0482" rx="6.16621" ry="6.14035" fill="#FC5E8B"/>
<ellipse cx="67.2033" cy="144.592" rx="6.16621" ry="6.14035" fill="#2BB673"/>
<circle cx="40.999" cy="47" r="8" fill="#F7C163"/>
<ellipse cx="88.9465" cy="6.48677" rx="6.16621" ry="6.14035" fill="#FC5E8B"/>
<ellipse cx="108.325" cy="15.2587" rx="4.40444" ry="4.38596" fill="#F9BC55"/>
<ellipse cx="124.423" cy="144.978" rx="2.64266" ry="2.63158" fill="#15A4BE"/>
</svg>
